<mxfile host="app.diagrams.net" agent="Mozilla/5.0 (Windows NT 10.0; Win64; x64) AppleWebKit/537.36 (KHTML, like Gecko) Chrome/134.0.0.0 Safari/537.36" version="26.1.1">
  <diagram name="Page-1" id="9f46799a-70d6-7492-0946-bef42562c5a5">
    <mxGraphModel dx="12890" dy="5895" grid="1" gridSize="10" guides="1" tooltips="1" connect="1" arrows="1" fold="1" page="1" pageScale="1" pageWidth="1100" pageHeight="850" background="none" math="0" shadow="0">
      <root>
        <mxCell id="0" />
        <mxCell id="1" parent="0" />
        <mxCell id="78961159f06e98e8-69" value="users&lt;div&gt;&lt;br&gt;&lt;/div&gt;" style="swimlane;html=1;fontStyle=1;align=center;verticalAlign=top;childLayout=stackLayout;horizontal=1;startSize=26;horizontalStack=0;resizeParent=1;resizeLast=0;collapsible=1;marginBottom=0;swimlaneFillColor=#ffffff;rounded=0;shadow=0;comic=0;labelBackgroundColor=none;strokeWidth=1;fillColor=none;fontFamily=Verdana;fontSize=12" parent="1" vertex="1">
          <mxGeometry x="330" y="230" width="250" height="240" as="geometry" />
        </mxCell>
        <mxCell id="cOtZHhIljCrcvXUx9MyU-213" value="&lt;div&gt;id&lt;/div&gt;&lt;div&gt;&lt;br&gt;&lt;/div&gt;" style="text;html=1;strokeColor=none;fillColor=none;align=left;verticalAlign=top;spacingLeft=4;spacingRight=4;whiteSpace=wrap;overflow=hidden;rotatable=0;points=[[0,0.5],[1,0.5]];portConstraint=eastwest;" vertex="1" parent="78961159f06e98e8-69">
          <mxGeometry y="26" width="250" height="24" as="geometry" />
        </mxCell>
        <mxCell id="78961159f06e98e8-110" value="miobile&lt;div&gt;&lt;br&gt;&lt;/div&gt;" style="text;html=1;strokeColor=none;fillColor=none;align=left;verticalAlign=top;spacingLeft=4;spacingRight=4;whiteSpace=wrap;overflow=hidden;rotatable=0;points=[[0,0.5],[1,0.5]];portConstraint=eastwest;" parent="78961159f06e98e8-69" vertex="1">
          <mxGeometry y="50" width="250" height="24" as="geometry" />
        </mxCell>
        <mxCell id="cOtZHhIljCrcvXUx9MyU-199" value="email" style="text;html=1;strokeColor=none;fillColor=none;align=left;verticalAlign=top;spacingLeft=4;spacingRight=4;whiteSpace=wrap;overflow=hidden;rotatable=0;points=[[0,0.5],[1,0.5]];portConstraint=eastwest;" vertex="1" parent="78961159f06e98e8-69">
          <mxGeometry y="74" width="250" height="24" as="geometry" />
        </mxCell>
        <mxCell id="cOtZHhIljCrcvXUx9MyU-200" value="email_verified_at" style="text;html=1;strokeColor=none;fillColor=none;align=left;verticalAlign=top;spacingLeft=4;spacingRight=4;whiteSpace=wrap;overflow=hidden;rotatable=0;points=[[0,0.5],[1,0.5]];portConstraint=eastwest;" vertex="1" parent="78961159f06e98e8-69">
          <mxGeometry y="98" width="250" height="24" as="geometry" />
        </mxCell>
        <mxCell id="cOtZHhIljCrcvXUx9MyU-201" value="password" style="text;html=1;strokeColor=none;fillColor=none;align=left;verticalAlign=top;spacingLeft=4;spacingRight=4;whiteSpace=wrap;overflow=hidden;rotatable=0;points=[[0,0.5],[1,0.5]];portConstraint=eastwest;" vertex="1" parent="78961159f06e98e8-69">
          <mxGeometry y="122" width="250" height="24" as="geometry" />
        </mxCell>
        <mxCell id="cOtZHhIljCrcvXUx9MyU-202" value="display_name" style="text;html=1;strokeColor=none;fillColor=none;align=left;verticalAlign=top;spacingLeft=4;spacingRight=4;whiteSpace=wrap;overflow=hidden;rotatable=0;points=[[0,0.5],[1,0.5]];portConstraint=eastwest;" vertex="1" parent="78961159f06e98e8-69">
          <mxGeometry y="146" width="250" height="24" as="geometry" />
        </mxCell>
        <mxCell id="cOtZHhIljCrcvXUx9MyU-204" style="edgeStyle=orthogonalEdgeStyle;rounded=0;orthogonalLoop=1;jettySize=auto;html=1;exitX=1;exitY=0.5;exitDx=0;exitDy=0;" edge="1" parent="78961159f06e98e8-69" source="cOtZHhIljCrcvXUx9MyU-200" target="cOtZHhIljCrcvXUx9MyU-200">
          <mxGeometry relative="1" as="geometry" />
        </mxCell>
        <mxCell id="cOtZHhIljCrcvXUx9MyU-203" value="updated_at" style="text;html=1;strokeColor=none;fillColor=none;align=left;verticalAlign=top;spacingLeft=4;spacingRight=4;whiteSpace=wrap;overflow=hidden;rotatable=0;points=[[0,0.5],[1,0.5]];portConstraint=eastwest;" vertex="1" parent="78961159f06e98e8-69">
          <mxGeometry y="170" width="250" height="20" as="geometry" />
        </mxCell>
        <mxCell id="cOtZHhIljCrcvXUx9MyU-268" value="isAdmin" style="text;html=1;strokeColor=none;fillColor=none;align=left;verticalAlign=top;spacingLeft=4;spacingRight=4;whiteSpace=wrap;overflow=hidden;rotatable=0;points=[[0,0.5],[1,0.5]];portConstraint=eastwest;" vertex="1" parent="78961159f06e98e8-69">
          <mxGeometry y="190" width="250" height="20" as="geometry" />
        </mxCell>
        <mxCell id="cOtZHhIljCrcvXUx9MyU-205" value="&lt;div&gt;tickets&lt;/div&gt;" style="swimlane;html=1;fontStyle=1;align=center;verticalAlign=top;childLayout=stackLayout;horizontal=1;startSize=26;horizontalStack=0;resizeParent=1;resizeLast=0;collapsible=1;marginBottom=0;swimlaneFillColor=#ffffff;rounded=0;shadow=0;comic=0;labelBackgroundColor=none;strokeWidth=1;fillColor=none;fontFamily=Verdana;fontSize=12" vertex="1" parent="1">
          <mxGeometry x="30" y="304" width="250" height="242" as="geometry" />
        </mxCell>
        <mxCell id="cOtZHhIljCrcvXUx9MyU-206" value="&lt;div&gt;id&lt;span style=&quot;white-space: pre;&quot;&gt;&#x9;&lt;/span&gt;&lt;/div&gt;" style="text;html=1;strokeColor=none;fillColor=none;align=left;verticalAlign=top;spacingLeft=4;spacingRight=4;whiteSpace=wrap;overflow=hidden;rotatable=0;points=[[0,0.5],[1,0.5]];portConstraint=eastwest;" vertex="1" parent="cOtZHhIljCrcvXUx9MyU-205">
          <mxGeometry y="26" width="250" height="24" as="geometry" />
        </mxCell>
        <mxCell id="cOtZHhIljCrcvXUx9MyU-207" value="user_id" style="text;html=1;strokeColor=none;fillColor=none;align=left;verticalAlign=top;spacingLeft=4;spacingRight=4;whiteSpace=wrap;overflow=hidden;rotatable=0;points=[[0,0.5],[1,0.5]];portConstraint=eastwest;" vertex="1" parent="cOtZHhIljCrcvXUx9MyU-205">
          <mxGeometry y="50" width="250" height="24" as="geometry" />
        </mxCell>
        <mxCell id="cOtZHhIljCrcvXUx9MyU-208" value="title" style="text;html=1;strokeColor=none;fillColor=none;align=left;verticalAlign=top;spacingLeft=4;spacingRight=4;whiteSpace=wrap;overflow=hidden;rotatable=0;points=[[0,0.5],[1,0.5]];portConstraint=eastwest;" vertex="1" parent="cOtZHhIljCrcvXUx9MyU-205">
          <mxGeometry y="74" width="250" height="24" as="geometry" />
        </mxCell>
        <mxCell id="cOtZHhIljCrcvXUx9MyU-379" value="type" style="text;html=1;strokeColor=none;fillColor=none;align=left;verticalAlign=top;spacingLeft=4;spacingRight=4;whiteSpace=wrap;overflow=hidden;rotatable=0;points=[[0,0.5],[1,0.5]];portConstraint=eastwest;" vertex="1" parent="cOtZHhIljCrcvXUx9MyU-205">
          <mxGeometry y="98" width="250" height="24" as="geometry" />
        </mxCell>
        <mxCell id="cOtZHhIljCrcvXUx9MyU-209" value="supported_by" style="text;html=1;strokeColor=none;fillColor=none;align=left;verticalAlign=top;spacingLeft=4;spacingRight=4;whiteSpace=wrap;overflow=hidden;rotatable=0;points=[[0,0.5],[1,0.5]];portConstraint=eastwest;" vertex="1" parent="cOtZHhIljCrcvXUx9MyU-205">
          <mxGeometry y="122" width="250" height="24" as="geometry" />
        </mxCell>
        <mxCell id="cOtZHhIljCrcvXUx9MyU-376" value="supported_by" style="text;html=1;strokeColor=none;fillColor=none;align=left;verticalAlign=top;spacingLeft=4;spacingRight=4;whiteSpace=wrap;overflow=hidden;rotatable=0;points=[[0,0.5],[1,0.5]];portConstraint=eastwest;" vertex="1" parent="cOtZHhIljCrcvXUx9MyU-205">
          <mxGeometry y="146" width="250" height="24" as="geometry" />
        </mxCell>
        <mxCell id="cOtZHhIljCrcvXUx9MyU-210" value="file" style="text;html=1;strokeColor=none;fillColor=none;align=left;verticalAlign=top;spacingLeft=4;spacingRight=4;whiteSpace=wrap;overflow=hidden;rotatable=0;points=[[0,0.5],[1,0.5]];portConstraint=eastwest;" vertex="1" parent="cOtZHhIljCrcvXUx9MyU-205">
          <mxGeometry y="170" width="250" height="24" as="geometry" />
        </mxCell>
        <mxCell id="cOtZHhIljCrcvXUx9MyU-377" style="edgeStyle=orthogonalEdgeStyle;rounded=0;orthogonalLoop=1;jettySize=auto;html=1;entryX=0;entryY=0.5;entryDx=0;entryDy=0;" edge="1" parent="cOtZHhIljCrcvXUx9MyU-205" source="cOtZHhIljCrcvXUx9MyU-211" target="cOtZHhIljCrcvXUx9MyU-206">
          <mxGeometry relative="1" as="geometry" />
        </mxCell>
        <mxCell id="cOtZHhIljCrcvXUx9MyU-378" value="answer" style="text;html=1;strokeColor=none;fillColor=none;align=left;verticalAlign=top;spacingLeft=4;spacingRight=4;whiteSpace=wrap;overflow=hidden;rotatable=0;points=[[0,0.5],[1,0.5]];portConstraint=eastwest;" vertex="1" parent="cOtZHhIljCrcvXUx9MyU-205">
          <mxGeometry y="194" width="250" height="24" as="geometry" />
        </mxCell>
        <mxCell id="cOtZHhIljCrcvXUx9MyU-211" value="parent_id" style="text;html=1;strokeColor=none;fillColor=none;align=left;verticalAlign=top;spacingLeft=4;spacingRight=4;whiteSpace=wrap;overflow=hidden;rotatable=0;points=[[0,0.5],[1,0.5]];portConstraint=eastwest;" vertex="1" parent="cOtZHhIljCrcvXUx9MyU-205">
          <mxGeometry y="218" width="250" height="24" as="geometry" />
        </mxCell>
        <mxCell id="cOtZHhIljCrcvXUx9MyU-212" style="edgeStyle=orthogonalEdgeStyle;rounded=0;orthogonalLoop=1;jettySize=auto;html=1;exitX=1;exitY=0.5;exitDx=0;exitDy=0;" edge="1" parent="cOtZHhIljCrcvXUx9MyU-205" source="cOtZHhIljCrcvXUx9MyU-208" target="cOtZHhIljCrcvXUx9MyU-208">
          <mxGeometry relative="1" as="geometry" />
        </mxCell>
        <mxCell id="cOtZHhIljCrcvXUx9MyU-214" style="edgeStyle=orthogonalEdgeStyle;rounded=0;orthogonalLoop=1;jettySize=auto;html=1;" edge="1" parent="1" source="cOtZHhIljCrcvXUx9MyU-213" target="cOtZHhIljCrcvXUx9MyU-207">
          <mxGeometry relative="1" as="geometry">
            <mxPoint x="330" y="308" as="sourcePoint" />
            <Array as="points">
              <mxPoint x="300" y="268" />
              <mxPoint x="300" y="358" />
            </Array>
          </mxGeometry>
        </mxCell>
        <mxCell id="cOtZHhIljCrcvXUx9MyU-216" value="&lt;div&gt;comments&lt;/div&gt;" style="swimlane;html=1;fontStyle=1;align=center;verticalAlign=top;childLayout=stackLayout;horizontal=1;startSize=26;horizontalStack=0;resizeParent=1;resizeLast=0;collapsible=1;marginBottom=0;swimlaneFillColor=#ffffff;rounded=0;shadow=0;comic=0;labelBackgroundColor=none;strokeWidth=1;fillColor=none;fontFamily=Verdana;fontSize=12" vertex="1" parent="1">
          <mxGeometry x="30" y="150" width="250" height="150" as="geometry" />
        </mxCell>
        <mxCell id="cOtZHhIljCrcvXUx9MyU-217" value="&lt;div&gt;id&lt;span style=&quot;white-space: pre;&quot;&gt;&#x9;&lt;/span&gt;&lt;/div&gt;" style="text;html=1;strokeColor=none;fillColor=none;align=left;verticalAlign=top;spacingLeft=4;spacingRight=4;whiteSpace=wrap;overflow=hidden;rotatable=0;points=[[0,0.5],[1,0.5]];portConstraint=eastwest;" vertex="1" parent="cOtZHhIljCrcvXUx9MyU-216">
          <mxGeometry y="26" width="250" height="24" as="geometry" />
        </mxCell>
        <mxCell id="cOtZHhIljCrcvXUx9MyU-218" value="user_id" style="text;html=1;strokeColor=none;fillColor=none;align=left;verticalAlign=top;spacingLeft=4;spacingRight=4;whiteSpace=wrap;overflow=hidden;rotatable=0;points=[[0,0.5],[1,0.5]];portConstraint=eastwest;" vertex="1" parent="cOtZHhIljCrcvXUx9MyU-216">
          <mxGeometry y="50" width="250" height="24" as="geometry" />
        </mxCell>
        <mxCell id="cOtZHhIljCrcvXUx9MyU-219" value="score" style="text;html=1;strokeColor=none;fillColor=none;align=left;verticalAlign=top;spacingLeft=4;spacingRight=4;whiteSpace=wrap;overflow=hidden;rotatable=0;points=[[0,0.5],[1,0.5]];portConstraint=eastwest;" vertex="1" parent="cOtZHhIljCrcvXUx9MyU-216">
          <mxGeometry y="74" width="250" height="24" as="geometry" />
        </mxCell>
        <mxCell id="cOtZHhIljCrcvXUx9MyU-220" value="created_at" style="text;html=1;strokeColor=none;fillColor=none;align=left;verticalAlign=top;spacingLeft=4;spacingRight=4;whiteSpace=wrap;overflow=hidden;rotatable=0;points=[[0,0.5],[1,0.5]];portConstraint=eastwest;" vertex="1" parent="cOtZHhIljCrcvXUx9MyU-216">
          <mxGeometry y="98" width="250" height="24" as="geometry" />
        </mxCell>
        <mxCell id="cOtZHhIljCrcvXUx9MyU-221" value="text" style="text;html=1;strokeColor=none;fillColor=none;align=left;verticalAlign=top;spacingLeft=4;spacingRight=4;whiteSpace=wrap;overflow=hidden;rotatable=0;points=[[0,0.5],[1,0.5]];portConstraint=eastwest;" vertex="1" parent="cOtZHhIljCrcvXUx9MyU-216">
          <mxGeometry y="122" width="250" height="24" as="geometry" />
        </mxCell>
        <mxCell id="cOtZHhIljCrcvXUx9MyU-223" style="edgeStyle=orthogonalEdgeStyle;rounded=0;orthogonalLoop=1;jettySize=auto;html=1;exitX=1;exitY=0.5;exitDx=0;exitDy=0;" edge="1" parent="cOtZHhIljCrcvXUx9MyU-216" source="cOtZHhIljCrcvXUx9MyU-219" target="cOtZHhIljCrcvXUx9MyU-219">
          <mxGeometry relative="1" as="geometry" />
        </mxCell>
        <mxCell id="cOtZHhIljCrcvXUx9MyU-224" style="edgeStyle=orthogonalEdgeStyle;rounded=0;orthogonalLoop=1;jettySize=auto;html=1;exitX=0;exitY=0.5;exitDx=0;exitDy=0;entryX=1;entryY=0.5;entryDx=0;entryDy=0;" edge="1" parent="1" source="cOtZHhIljCrcvXUx9MyU-213" target="cOtZHhIljCrcvXUx9MyU-218">
          <mxGeometry relative="1" as="geometry" />
        </mxCell>
        <mxCell id="cOtZHhIljCrcvXUx9MyU-225" value="&lt;div&gt;wallet&lt;/div&gt;" style="swimlane;html=1;fontStyle=1;align=center;verticalAlign=top;childLayout=stackLayout;horizontal=1;startSize=26;horizontalStack=0;resizeParent=1;resizeLast=0;collapsible=1;marginBottom=0;swimlaneFillColor=#ffffff;rounded=0;shadow=0;comic=0;labelBackgroundColor=none;strokeWidth=1;fillColor=none;fontFamily=Verdana;fontSize=12" vertex="1" parent="1">
          <mxGeometry x="30" y="960" width="250" height="130" as="geometry" />
        </mxCell>
        <mxCell id="cOtZHhIljCrcvXUx9MyU-226" value="&lt;div&gt;id&lt;span style=&quot;white-space: pre;&quot;&gt;&#x9;&lt;/span&gt;&lt;/div&gt;" style="text;html=1;strokeColor=none;fillColor=none;align=left;verticalAlign=top;spacingLeft=4;spacingRight=4;whiteSpace=wrap;overflow=hidden;rotatable=0;points=[[0,0.5],[1,0.5]];portConstraint=eastwest;" vertex="1" parent="cOtZHhIljCrcvXUx9MyU-225">
          <mxGeometry y="26" width="250" height="24" as="geometry" />
        </mxCell>
        <mxCell id="cOtZHhIljCrcvXUx9MyU-227" value="user_id" style="text;html=1;strokeColor=none;fillColor=none;align=left;verticalAlign=top;spacingLeft=4;spacingRight=4;whiteSpace=wrap;overflow=hidden;rotatable=0;points=[[0,0.5],[1,0.5]];portConstraint=eastwest;" vertex="1" parent="cOtZHhIljCrcvXUx9MyU-225">
          <mxGeometry y="50" width="250" height="24" as="geometry" />
        </mxCell>
        <mxCell id="cOtZHhIljCrcvXUx9MyU-228" value="amount" style="text;html=1;strokeColor=none;fillColor=none;align=left;verticalAlign=top;spacingLeft=4;spacingRight=4;whiteSpace=wrap;overflow=hidden;rotatable=0;points=[[0,0.5],[1,0.5]];portConstraint=eastwest;" vertex="1" parent="cOtZHhIljCrcvXUx9MyU-225">
          <mxGeometry y="74" width="250" height="24" as="geometry" />
        </mxCell>
        <mxCell id="cOtZHhIljCrcvXUx9MyU-229" value="updated_at" style="text;html=1;strokeColor=none;fillColor=none;align=left;verticalAlign=top;spacingLeft=4;spacingRight=4;whiteSpace=wrap;overflow=hidden;rotatable=0;points=[[0,0.5],[1,0.5]];portConstraint=eastwest;" vertex="1" parent="cOtZHhIljCrcvXUx9MyU-225">
          <mxGeometry y="98" width="250" height="24" as="geometry" />
        </mxCell>
        <mxCell id="cOtZHhIljCrcvXUx9MyU-231" style="edgeStyle=orthogonalEdgeStyle;rounded=0;orthogonalLoop=1;jettySize=auto;html=1;exitX=1;exitY=0.5;exitDx=0;exitDy=0;" edge="1" parent="cOtZHhIljCrcvXUx9MyU-225" source="cOtZHhIljCrcvXUx9MyU-228" target="cOtZHhIljCrcvXUx9MyU-228">
          <mxGeometry relative="1" as="geometry" />
        </mxCell>
        <mxCell id="cOtZHhIljCrcvXUx9MyU-236" value="address" style="swimlane;html=1;fontStyle=1;align=center;verticalAlign=top;childLayout=stackLayout;horizontal=1;startSize=26;horizontalStack=0;resizeParent=1;resizeLast=0;collapsible=1;marginBottom=0;swimlaneFillColor=#ffffff;rounded=0;shadow=0;comic=0;labelBackgroundColor=none;strokeWidth=1;fillColor=none;fontFamily=Verdana;fontSize=12" vertex="1" parent="1">
          <mxGeometry x="30" y="550" width="250" height="242" as="geometry" />
        </mxCell>
        <mxCell id="cOtZHhIljCrcvXUx9MyU-237" value="&lt;div&gt;id&lt;span style=&quot;white-space: pre;&quot;&gt;&#x9;&lt;/span&gt;&lt;/div&gt;" style="text;html=1;strokeColor=none;fillColor=none;align=left;verticalAlign=top;spacingLeft=4;spacingRight=4;whiteSpace=wrap;overflow=hidden;rotatable=0;points=[[0,0.5],[1,0.5]];portConstraint=eastwest;" vertex="1" parent="cOtZHhIljCrcvXUx9MyU-236">
          <mxGeometry y="26" width="250" height="24" as="geometry" />
        </mxCell>
        <mxCell id="cOtZHhIljCrcvXUx9MyU-238" value="user_id" style="text;html=1;strokeColor=none;fillColor=none;align=left;verticalAlign=top;spacingLeft=4;spacingRight=4;whiteSpace=wrap;overflow=hidden;rotatable=0;points=[[0,0.5],[1,0.5]];portConstraint=eastwest;" vertex="1" parent="cOtZHhIljCrcvXUx9MyU-236">
          <mxGeometry y="50" width="250" height="24" as="geometry" />
        </mxCell>
        <mxCell id="cOtZHhIljCrcvXUx9MyU-239" value="province" style="text;html=1;strokeColor=none;fillColor=none;align=left;verticalAlign=top;spacingLeft=4;spacingRight=4;whiteSpace=wrap;overflow=hidden;rotatable=0;points=[[0,0.5],[1,0.5]];portConstraint=eastwest;" vertex="1" parent="cOtZHhIljCrcvXUx9MyU-236">
          <mxGeometry y="74" width="250" height="24" as="geometry" />
        </mxCell>
        <mxCell id="cOtZHhIljCrcvXUx9MyU-241" style="edgeStyle=orthogonalEdgeStyle;rounded=0;orthogonalLoop=1;jettySize=auto;html=1;exitX=1;exitY=0.5;exitDx=0;exitDy=0;" edge="1" parent="cOtZHhIljCrcvXUx9MyU-236" source="cOtZHhIljCrcvXUx9MyU-239" target="cOtZHhIljCrcvXUx9MyU-239">
          <mxGeometry relative="1" as="geometry" />
        </mxCell>
        <mxCell id="cOtZHhIljCrcvXUx9MyU-243" value="city" style="text;html=1;strokeColor=none;fillColor=none;align=left;verticalAlign=top;spacingLeft=4;spacingRight=4;whiteSpace=wrap;overflow=hidden;rotatable=0;points=[[0,0.5],[1,0.5]];portConstraint=eastwest;" vertex="1" parent="cOtZHhIljCrcvXUx9MyU-236">
          <mxGeometry y="98" width="250" height="24" as="geometry" />
        </mxCell>
        <mxCell id="cOtZHhIljCrcvXUx9MyU-246" value="address" style="text;html=1;strokeColor=none;fillColor=none;align=left;verticalAlign=top;spacingLeft=4;spacingRight=4;whiteSpace=wrap;overflow=hidden;rotatable=0;points=[[0,0.5],[1,0.5]];portConstraint=eastwest;" vertex="1" parent="cOtZHhIljCrcvXUx9MyU-236">
          <mxGeometry y="122" width="250" height="24" as="geometry" />
        </mxCell>
        <mxCell id="cOtZHhIljCrcvXUx9MyU-248" value="description" style="text;html=1;strokeColor=none;fillColor=none;align=left;verticalAlign=top;spacingLeft=4;spacingRight=4;whiteSpace=wrap;overflow=hidden;rotatable=0;points=[[0,0.5],[1,0.5]];portConstraint=eastwest;" vertex="1" parent="cOtZHhIljCrcvXUx9MyU-236">
          <mxGeometry y="146" width="250" height="24" as="geometry" />
        </mxCell>
        <mxCell id="cOtZHhIljCrcvXUx9MyU-403" value="pelque" style="text;html=1;strokeColor=none;fillColor=none;align=left;verticalAlign=top;spacingLeft=4;spacingRight=4;whiteSpace=wrap;overflow=hidden;rotatable=0;points=[[0,0.5],[1,0.5]];portConstraint=eastwest;" vertex="1" parent="cOtZHhIljCrcvXUx9MyU-236">
          <mxGeometry y="170" width="250" height="24" as="geometry" />
        </mxCell>
        <mxCell id="cOtZHhIljCrcvXUx9MyU-247" value="x" style="text;html=1;strokeColor=none;fillColor=none;align=left;verticalAlign=top;spacingLeft=4;spacingRight=4;whiteSpace=wrap;overflow=hidden;rotatable=0;points=[[0,0.5],[1,0.5]];portConstraint=eastwest;" vertex="1" parent="cOtZHhIljCrcvXUx9MyU-236">
          <mxGeometry y="194" width="250" height="24" as="geometry" />
        </mxCell>
        <mxCell id="cOtZHhIljCrcvXUx9MyU-245" value="y" style="text;html=1;strokeColor=none;fillColor=none;align=left;verticalAlign=top;spacingLeft=4;spacingRight=4;whiteSpace=wrap;overflow=hidden;rotatable=0;points=[[0,0.5],[1,0.5]];portConstraint=eastwest;" vertex="1" parent="cOtZHhIljCrcvXUx9MyU-236">
          <mxGeometry y="218" width="250" height="24" as="geometry" />
        </mxCell>
        <mxCell id="cOtZHhIljCrcvXUx9MyU-251" value="roles" style="swimlane;html=1;fontStyle=1;align=center;verticalAlign=top;childLayout=stackLayout;horizontal=1;startSize=26;horizontalStack=0;resizeParent=1;resizeLast=0;collapsible=1;marginBottom=0;swimlaneFillColor=#ffffff;rounded=0;shadow=0;comic=0;labelBackgroundColor=none;strokeWidth=1;fillColor=none;fontFamily=Verdana;fontSize=12" vertex="1" parent="1">
          <mxGeometry x="370" y="-135" width="250" height="130" as="geometry" />
        </mxCell>
        <mxCell id="cOtZHhIljCrcvXUx9MyU-252" value="&lt;div&gt;id&lt;span style=&quot;white-space: pre;&quot;&gt;&#x9;&lt;/span&gt;&lt;/div&gt;" style="text;html=1;strokeColor=none;fillColor=none;align=left;verticalAlign=top;spacingLeft=4;spacingRight=4;whiteSpace=wrap;overflow=hidden;rotatable=0;points=[[0,0.5],[1,0.5]];portConstraint=eastwest;" vertex="1" parent="cOtZHhIljCrcvXUx9MyU-251">
          <mxGeometry y="26" width="250" height="24" as="geometry" />
        </mxCell>
        <mxCell id="cOtZHhIljCrcvXUx9MyU-253" value="user_id" style="text;html=1;strokeColor=none;fillColor=none;align=left;verticalAlign=top;spacingLeft=4;spacingRight=4;whiteSpace=wrap;overflow=hidden;rotatable=0;points=[[0,0.5],[1,0.5]];portConstraint=eastwest;" vertex="1" parent="cOtZHhIljCrcvXUx9MyU-251">
          <mxGeometry y="50" width="250" height="24" as="geometry" />
        </mxCell>
        <mxCell id="cOtZHhIljCrcvXUx9MyU-266" style="edgeStyle=orthogonalEdgeStyle;rounded=0;orthogonalLoop=1;jettySize=auto;html=1;entryX=0;entryY=0.5;entryDx=0;entryDy=0;" edge="1" parent="cOtZHhIljCrcvXUx9MyU-251" source="cOtZHhIljCrcvXUx9MyU-254" target="cOtZHhIljCrcvXUx9MyU-252">
          <mxGeometry relative="1" as="geometry" />
        </mxCell>
        <mxCell id="cOtZHhIljCrcvXUx9MyU-254" value="parent_id" style="text;html=1;strokeColor=none;fillColor=none;align=left;verticalAlign=top;spacingLeft=4;spacingRight=4;whiteSpace=wrap;overflow=hidden;rotatable=0;points=[[0,0.5],[1,0.5]];portConstraint=eastwest;" vertex="1" parent="cOtZHhIljCrcvXUx9MyU-251">
          <mxGeometry y="74" width="250" height="24" as="geometry" />
        </mxCell>
        <mxCell id="cOtZHhIljCrcvXUx9MyU-255" style="edgeStyle=orthogonalEdgeStyle;rounded=0;orthogonalLoop=1;jettySize=auto;html=1;exitX=1;exitY=0.5;exitDx=0;exitDy=0;" edge="1" parent="cOtZHhIljCrcvXUx9MyU-251" source="cOtZHhIljCrcvXUx9MyU-254" target="cOtZHhIljCrcvXUx9MyU-254">
          <mxGeometry relative="1" as="geometry" />
        </mxCell>
        <mxCell id="cOtZHhIljCrcvXUx9MyU-261" value="permitions" style="swimlane;html=1;fontStyle=1;align=center;verticalAlign=top;childLayout=stackLayout;horizontal=1;startSize=26;horizontalStack=0;resizeParent=1;resizeLast=0;collapsible=1;marginBottom=0;swimlaneFillColor=#ffffff;rounded=0;shadow=0;comic=0;labelBackgroundColor=none;strokeWidth=1;fillColor=none;fontFamily=Verdana;fontSize=12" vertex="1" parent="1">
          <mxGeometry x="370" y="5" width="250" height="130" as="geometry" />
        </mxCell>
        <mxCell id="cOtZHhIljCrcvXUx9MyU-262" value="&lt;div&gt;id&lt;span style=&quot;white-space: pre;&quot;&gt;&#x9;&lt;/span&gt;&lt;/div&gt;" style="text;html=1;strokeColor=none;fillColor=none;align=left;verticalAlign=top;spacingLeft=4;spacingRight=4;whiteSpace=wrap;overflow=hidden;rotatable=0;points=[[0,0.5],[1,0.5]];portConstraint=eastwest;" vertex="1" parent="cOtZHhIljCrcvXUx9MyU-261">
          <mxGeometry y="26" width="250" height="24" as="geometry" />
        </mxCell>
        <mxCell id="cOtZHhIljCrcvXUx9MyU-263" value="resource" style="text;html=1;strokeColor=none;fillColor=none;align=left;verticalAlign=top;spacingLeft=4;spacingRight=4;whiteSpace=wrap;overflow=hidden;rotatable=0;points=[[0,0.5],[1,0.5]];portConstraint=eastwest;" vertex="1" parent="cOtZHhIljCrcvXUx9MyU-261">
          <mxGeometry y="50" width="250" height="24" as="geometry" />
        </mxCell>
        <mxCell id="cOtZHhIljCrcvXUx9MyU-264" value="actions" style="text;html=1;strokeColor=none;fillColor=none;align=left;verticalAlign=top;spacingLeft=4;spacingRight=4;whiteSpace=wrap;overflow=hidden;rotatable=0;points=[[0,0.5],[1,0.5]];portConstraint=eastwest;" vertex="1" parent="cOtZHhIljCrcvXUx9MyU-261">
          <mxGeometry y="74" width="250" height="24" as="geometry" />
        </mxCell>
        <mxCell id="cOtZHhIljCrcvXUx9MyU-265" style="edgeStyle=orthogonalEdgeStyle;rounded=0;orthogonalLoop=1;jettySize=auto;html=1;exitX=1;exitY=0.5;exitDx=0;exitDy=0;" edge="1" parent="cOtZHhIljCrcvXUx9MyU-261" source="cOtZHhIljCrcvXUx9MyU-264" target="cOtZHhIljCrcvXUx9MyU-264">
          <mxGeometry relative="1" as="geometry" />
        </mxCell>
        <mxCell id="cOtZHhIljCrcvXUx9MyU-269" value="role_id" style="text;html=1;strokeColor=none;fillColor=none;align=left;verticalAlign=top;spacingLeft=4;spacingRight=4;whiteSpace=wrap;overflow=hidden;rotatable=0;points=[[0,0.5],[1,0.5]];portConstraint=eastwest;" vertex="1" parent="cOtZHhIljCrcvXUx9MyU-261">
          <mxGeometry y="98" width="250" height="24" as="geometry" />
        </mxCell>
        <mxCell id="cOtZHhIljCrcvXUx9MyU-267" style="edgeStyle=orthogonalEdgeStyle;rounded=0;orthogonalLoop=1;jettySize=auto;html=1;" edge="1" parent="1" source="cOtZHhIljCrcvXUx9MyU-213" target="cOtZHhIljCrcvXUx9MyU-253">
          <mxGeometry relative="1" as="geometry">
            <Array as="points">
              <mxPoint x="600" y="268" />
              <mxPoint x="600" y="190" />
              <mxPoint x="350" y="190" />
              <mxPoint x="350" y="-73" />
            </Array>
          </mxGeometry>
        </mxCell>
        <mxCell id="cOtZHhIljCrcvXUx9MyU-270" style="edgeStyle=orthogonalEdgeStyle;rounded=0;orthogonalLoop=1;jettySize=auto;html=1;entryX=0;entryY=0.5;entryDx=0;entryDy=0;" edge="1" parent="1" source="cOtZHhIljCrcvXUx9MyU-269" target="cOtZHhIljCrcvXUx9MyU-252">
          <mxGeometry relative="1" as="geometry" />
        </mxCell>
        <mxCell id="cOtZHhIljCrcvXUx9MyU-271" value="refresh_token" style="swimlane;html=1;fontStyle=1;align=center;verticalAlign=top;childLayout=stackLayout;horizontal=1;startSize=26;horizontalStack=0;resizeParent=1;resizeLast=0;collapsible=1;marginBottom=0;swimlaneFillColor=#ffffff;rounded=0;shadow=0;comic=0;labelBackgroundColor=none;strokeWidth=1;fillColor=none;fontFamily=Verdana;fontSize=12" vertex="1" parent="1">
          <mxGeometry x="370" y="-280" width="250" height="130" as="geometry" />
        </mxCell>
        <mxCell id="cOtZHhIljCrcvXUx9MyU-272" value="&lt;div&gt;id&lt;span style=&quot;white-space: pre;&quot;&gt;&#x9;&lt;/span&gt;&lt;/div&gt;" style="text;html=1;strokeColor=none;fillColor=none;align=left;verticalAlign=top;spacingLeft=4;spacingRight=4;whiteSpace=wrap;overflow=hidden;rotatable=0;points=[[0,0.5],[1,0.5]];portConstraint=eastwest;" vertex="1" parent="cOtZHhIljCrcvXUx9MyU-271">
          <mxGeometry y="26" width="250" height="24" as="geometry" />
        </mxCell>
        <mxCell id="cOtZHhIljCrcvXUx9MyU-273" value="token" style="text;html=1;strokeColor=none;fillColor=none;align=left;verticalAlign=top;spacingLeft=4;spacingRight=4;whiteSpace=wrap;overflow=hidden;rotatable=0;points=[[0,0.5],[1,0.5]];portConstraint=eastwest;" vertex="1" parent="cOtZHhIljCrcvXUx9MyU-271">
          <mxGeometry y="50" width="250" height="24" as="geometry" />
        </mxCell>
        <mxCell id="cOtZHhIljCrcvXUx9MyU-275" value="expired_at" style="text;html=1;strokeColor=none;fillColor=none;align=left;verticalAlign=top;spacingLeft=4;spacingRight=4;whiteSpace=wrap;overflow=hidden;rotatable=0;points=[[0,0.5],[1,0.5]];portConstraint=eastwest;" vertex="1" parent="cOtZHhIljCrcvXUx9MyU-271">
          <mxGeometry y="74" width="250" height="24" as="geometry" />
        </mxCell>
        <mxCell id="cOtZHhIljCrcvXUx9MyU-276" style="edgeStyle=orthogonalEdgeStyle;rounded=0;orthogonalLoop=1;jettySize=auto;html=1;exitX=1;exitY=0.5;exitDx=0;exitDy=0;" edge="1" parent="cOtZHhIljCrcvXUx9MyU-271" source="cOtZHhIljCrcvXUx9MyU-275" target="cOtZHhIljCrcvXUx9MyU-275">
          <mxGeometry relative="1" as="geometry" />
        </mxCell>
        <mxCell id="cOtZHhIljCrcvXUx9MyU-277" value="user_id" style="text;html=1;strokeColor=none;fillColor=none;align=left;verticalAlign=top;spacingLeft=4;spacingRight=4;whiteSpace=wrap;overflow=hidden;rotatable=0;points=[[0,0.5],[1,0.5]];portConstraint=eastwest;" vertex="1" parent="cOtZHhIljCrcvXUx9MyU-271">
          <mxGeometry y="98" width="250" height="24" as="geometry" />
        </mxCell>
        <mxCell id="cOtZHhIljCrcvXUx9MyU-278" style="edgeStyle=orthogonalEdgeStyle;rounded=0;orthogonalLoop=1;jettySize=auto;html=1;" edge="1" parent="1" source="cOtZHhIljCrcvXUx9MyU-277" target="cOtZHhIljCrcvXUx9MyU-213">
          <mxGeometry relative="1" as="geometry">
            <Array as="points">
              <mxPoint x="330" y="-170" />
              <mxPoint x="330" y="170" />
              <mxPoint x="620" y="170" />
              <mxPoint x="620" y="260" />
            </Array>
          </mxGeometry>
        </mxCell>
        <mxCell id="cOtZHhIljCrcvXUx9MyU-280" style="edgeStyle=orthogonalEdgeStyle;rounded=0;orthogonalLoop=1;jettySize=auto;html=1;" edge="1" parent="1" source="cOtZHhIljCrcvXUx9MyU-213" target="cOtZHhIljCrcvXUx9MyU-238">
          <mxGeometry relative="1" as="geometry" />
        </mxCell>
        <mxCell id="cOtZHhIljCrcvXUx9MyU-281" value="&lt;div&gt;wishlist&lt;/div&gt;" style="swimlane;html=1;fontStyle=1;align=center;verticalAlign=top;childLayout=stackLayout;horizontal=1;startSize=26;horizontalStack=0;resizeParent=1;resizeLast=0;collapsible=1;marginBottom=0;swimlaneFillColor=#ffffff;rounded=0;shadow=0;comic=0;labelBackgroundColor=none;strokeWidth=1;fillColor=none;fontFamily=Verdana;fontSize=12" vertex="1" parent="1">
          <mxGeometry x="30" y="810" width="250" height="130" as="geometry" />
        </mxCell>
        <mxCell id="cOtZHhIljCrcvXUx9MyU-282" value="&lt;div&gt;id&lt;/div&gt;" style="text;html=1;strokeColor=none;fillColor=none;align=left;verticalAlign=top;spacingLeft=4;spacingRight=4;whiteSpace=wrap;overflow=hidden;rotatable=0;points=[[0,0.5],[1,0.5]];portConstraint=eastwest;" vertex="1" parent="cOtZHhIljCrcvXUx9MyU-281">
          <mxGeometry y="26" width="250" height="24" as="geometry" />
        </mxCell>
        <mxCell id="cOtZHhIljCrcvXUx9MyU-283" value="user_id" style="text;html=1;strokeColor=none;fillColor=none;align=left;verticalAlign=top;spacingLeft=4;spacingRight=4;whiteSpace=wrap;overflow=hidden;rotatable=0;points=[[0,0.5],[1,0.5]];portConstraint=eastwest;" vertex="1" parent="cOtZHhIljCrcvXUx9MyU-281">
          <mxGeometry y="50" width="250" height="24" as="geometry" />
        </mxCell>
        <mxCell id="cOtZHhIljCrcvXUx9MyU-284" value="product_id" style="text;html=1;strokeColor=none;fillColor=none;align=left;verticalAlign=top;spacingLeft=4;spacingRight=4;whiteSpace=wrap;overflow=hidden;rotatable=0;points=[[0,0.5],[1,0.5]];portConstraint=eastwest;" vertex="1" parent="cOtZHhIljCrcvXUx9MyU-281">
          <mxGeometry y="74" width="250" height="24" as="geometry" />
        </mxCell>
        <mxCell id="cOtZHhIljCrcvXUx9MyU-285" value="created_at" style="text;html=1;strokeColor=none;fillColor=none;align=left;verticalAlign=top;spacingLeft=4;spacingRight=4;whiteSpace=wrap;overflow=hidden;rotatable=0;points=[[0,0.5],[1,0.5]];portConstraint=eastwest;" vertex="1" parent="cOtZHhIljCrcvXUx9MyU-281">
          <mxGeometry y="98" width="250" height="24" as="geometry" />
        </mxCell>
        <mxCell id="cOtZHhIljCrcvXUx9MyU-287" style="edgeStyle=orthogonalEdgeStyle;rounded=0;orthogonalLoop=1;jettySize=auto;html=1;exitX=1;exitY=0.5;exitDx=0;exitDy=0;" edge="1" parent="cOtZHhIljCrcvXUx9MyU-281" source="cOtZHhIljCrcvXUx9MyU-284" target="cOtZHhIljCrcvXUx9MyU-284">
          <mxGeometry relative="1" as="geometry" />
        </mxCell>
        <mxCell id="cOtZHhIljCrcvXUx9MyU-289" style="edgeStyle=orthogonalEdgeStyle;rounded=0;orthogonalLoop=1;jettySize=auto;html=1;" edge="1" parent="1" source="cOtZHhIljCrcvXUx9MyU-213" target="cOtZHhIljCrcvXUx9MyU-283">
          <mxGeometry relative="1" as="geometry" />
        </mxCell>
        <mxCell id="cOtZHhIljCrcvXUx9MyU-290" value="password_reset" style="swimlane;html=1;fontStyle=1;align=center;verticalAlign=top;childLayout=stackLayout;horizontal=1;startSize=26;horizontalStack=0;resizeParent=1;resizeLast=0;collapsible=1;marginBottom=0;swimlaneFillColor=#ffffff;rounded=0;shadow=0;comic=0;labelBackgroundColor=none;strokeWidth=1;fillColor=none;fontFamily=Verdana;fontSize=12" vertex="1" parent="1">
          <mxGeometry x="370" y="-430" width="250" height="130" as="geometry" />
        </mxCell>
        <mxCell id="cOtZHhIljCrcvXUx9MyU-291" value="&lt;div&gt;id&lt;span style=&quot;white-space: pre;&quot;&gt;&#x9;&lt;/span&gt;&lt;/div&gt;" style="text;html=1;strokeColor=none;fillColor=none;align=left;verticalAlign=top;spacingLeft=4;spacingRight=4;whiteSpace=wrap;overflow=hidden;rotatable=0;points=[[0,0.5],[1,0.5]];portConstraint=eastwest;" vertex="1" parent="cOtZHhIljCrcvXUx9MyU-290">
          <mxGeometry y="26" width="250" height="24" as="geometry" />
        </mxCell>
        <mxCell id="cOtZHhIljCrcvXUx9MyU-292" value="email" style="text;html=1;strokeColor=none;fillColor=none;align=left;verticalAlign=top;spacingLeft=4;spacingRight=4;whiteSpace=wrap;overflow=hidden;rotatable=0;points=[[0,0.5],[1,0.5]];portConstraint=eastwest;" vertex="1" parent="cOtZHhIljCrcvXUx9MyU-290">
          <mxGeometry y="50" width="250" height="24" as="geometry" />
        </mxCell>
        <mxCell id="cOtZHhIljCrcvXUx9MyU-293" value="toke" style="text;html=1;strokeColor=none;fillColor=none;align=left;verticalAlign=top;spacingLeft=4;spacingRight=4;whiteSpace=wrap;overflow=hidden;rotatable=0;points=[[0,0.5],[1,0.5]];portConstraint=eastwest;" vertex="1" parent="cOtZHhIljCrcvXUx9MyU-290">
          <mxGeometry y="74" width="250" height="24" as="geometry" />
        </mxCell>
        <mxCell id="cOtZHhIljCrcvXUx9MyU-294" style="edgeStyle=orthogonalEdgeStyle;rounded=0;orthogonalLoop=1;jettySize=auto;html=1;exitX=1;exitY=0.5;exitDx=0;exitDy=0;" edge="1" parent="cOtZHhIljCrcvXUx9MyU-290" source="cOtZHhIljCrcvXUx9MyU-293" target="cOtZHhIljCrcvXUx9MyU-293">
          <mxGeometry relative="1" as="geometry" />
        </mxCell>
        <mxCell id="cOtZHhIljCrcvXUx9MyU-295" value="created_at" style="text;html=1;strokeColor=none;fillColor=none;align=left;verticalAlign=top;spacingLeft=4;spacingRight=4;whiteSpace=wrap;overflow=hidden;rotatable=0;points=[[0,0.5],[1,0.5]];portConstraint=eastwest;" vertex="1" parent="cOtZHhIljCrcvXUx9MyU-290">
          <mxGeometry y="98" width="250" height="24" as="geometry" />
        </mxCell>
        <mxCell id="cOtZHhIljCrcvXUx9MyU-296" style="edgeStyle=orthogonalEdgeStyle;rounded=0;orthogonalLoop=1;jettySize=auto;html=1;exitX=0;exitY=0.5;exitDx=0;exitDy=0;" edge="1" parent="1" source="cOtZHhIljCrcvXUx9MyU-213" target="cOtZHhIljCrcvXUx9MyU-226">
          <mxGeometry relative="1" as="geometry">
            <mxPoint x="320" y="280" as="sourcePoint" />
            <mxPoint x="20" y="1021.9999999999995" as="targetPoint" />
            <Array as="points">
              <mxPoint x="320" y="268" />
              <mxPoint x="320" y="1000" />
            </Array>
          </mxGeometry>
        </mxCell>
        <mxCell id="cOtZHhIljCrcvXUx9MyU-297" value="garantee_name" style="swimlane;html=1;fontStyle=1;align=center;verticalAlign=top;childLayout=stackLayout;horizontal=1;startSize=26;horizontalStack=0;resizeParent=1;resizeLast=0;collapsible=1;marginBottom=0;swimlaneFillColor=#ffffff;rounded=0;shadow=0;comic=0;labelBackgroundColor=none;strokeWidth=1;fillColor=none;fontFamily=Verdana;fontSize=12" vertex="1" parent="1">
          <mxGeometry x="800" y="280" width="250" height="260" as="geometry" />
        </mxCell>
        <mxCell id="cOtZHhIljCrcvXUx9MyU-298" value="&lt;div&gt;id&lt;span style=&quot;white-space: pre;&quot;&gt;&#x9;&lt;/span&gt;&lt;/div&gt;" style="text;html=1;strokeColor=none;fillColor=none;align=left;verticalAlign=top;spacingLeft=4;spacingRight=4;whiteSpace=wrap;overflow=hidden;rotatable=0;points=[[0,0.5],[1,0.5]];portConstraint=eastwest;" vertex="1" parent="cOtZHhIljCrcvXUx9MyU-297">
          <mxGeometry y="26" width="250" height="24" as="geometry" />
        </mxCell>
        <mxCell id="cOtZHhIljCrcvXUx9MyU-299" value="transaction_id" style="text;html=1;strokeColor=none;fillColor=none;align=left;verticalAlign=top;spacingLeft=4;spacingRight=4;whiteSpace=wrap;overflow=hidden;rotatable=0;points=[[0,0.5],[1,0.5]];portConstraint=eastwest;" vertex="1" parent="cOtZHhIljCrcvXUx9MyU-297">
          <mxGeometry y="50" width="250" height="24" as="geometry" />
        </mxCell>
        <mxCell id="cOtZHhIljCrcvXUx9MyU-303" value="status" style="text;html=1;strokeColor=none;fillColor=none;align=left;verticalAlign=top;spacingLeft=4;spacingRight=4;whiteSpace=wrap;overflow=hidden;rotatable=0;points=[[0,0.5],[1,0.5]];portConstraint=eastwest;" vertex="1" parent="cOtZHhIljCrcvXUx9MyU-297">
          <mxGeometry y="74" width="250" height="24" as="geometry" />
        </mxCell>
        <mxCell id="cOtZHhIljCrcvXUx9MyU-304" value="cancel" style="text;html=1;strokeColor=none;fillColor=none;align=left;verticalAlign=top;spacingLeft=4;spacingRight=4;whiteSpace=wrap;overflow=hidden;rotatable=0;points=[[0,0.5],[1,0.5]];portConstraint=eastwest;" vertex="1" parent="cOtZHhIljCrcvXUx9MyU-297">
          <mxGeometry y="98" width="250" height="24" as="geometry" />
        </mxCell>
        <mxCell id="cOtZHhIljCrcvXUx9MyU-305" value="deliver_id" style="text;html=1;strokeColor=none;fillColor=none;align=left;verticalAlign=top;spacingLeft=4;spacingRight=4;whiteSpace=wrap;overflow=hidden;rotatable=0;points=[[0,0.5],[1,0.5]];portConstraint=eastwest;" vertex="1" parent="cOtZHhIljCrcvXUx9MyU-297">
          <mxGeometry y="122" width="250" height="24" as="geometry" />
        </mxCell>
        <mxCell id="cOtZHhIljCrcvXUx9MyU-308" value="user_id" style="text;html=1;strokeColor=none;fillColor=none;align=left;verticalAlign=top;spacingLeft=4;spacingRight=4;whiteSpace=wrap;overflow=hidden;rotatable=0;points=[[0,0.5],[1,0.5]];portConstraint=eastwest;" vertex="1" parent="cOtZHhIljCrcvXUx9MyU-297">
          <mxGeometry y="146" width="250" height="24" as="geometry" />
        </mxCell>
        <mxCell id="cOtZHhIljCrcvXUx9MyU-307" value="garantee_name" style="text;html=1;strokeColor=none;fillColor=none;align=left;verticalAlign=top;spacingLeft=4;spacingRight=4;whiteSpace=wrap;overflow=hidden;rotatable=0;points=[[0,0.5],[1,0.5]];portConstraint=eastwest;" vertex="1" parent="cOtZHhIljCrcvXUx9MyU-297">
          <mxGeometry y="170" width="250" height="24" as="geometry" />
        </mxCell>
        <mxCell id="cOtZHhIljCrcvXUx9MyU-300" value="created_at" style="text;html=1;strokeColor=none;fillColor=none;align=left;verticalAlign=top;spacingLeft=4;spacingRight=4;whiteSpace=wrap;overflow=hidden;rotatable=0;points=[[0,0.5],[1,0.5]];portConstraint=eastwest;" vertex="1" parent="cOtZHhIljCrcvXUx9MyU-297">
          <mxGeometry y="194" width="250" height="24" as="geometry" />
        </mxCell>
        <mxCell id="cOtZHhIljCrcvXUx9MyU-301" style="edgeStyle=orthogonalEdgeStyle;rounded=0;orthogonalLoop=1;jettySize=auto;html=1;exitX=1;exitY=0.5;exitDx=0;exitDy=0;" edge="1" parent="cOtZHhIljCrcvXUx9MyU-297" source="cOtZHhIljCrcvXUx9MyU-300" target="cOtZHhIljCrcvXUx9MyU-300">
          <mxGeometry relative="1" as="geometry" />
        </mxCell>
        <mxCell id="cOtZHhIljCrcvXUx9MyU-302" value="updated_at" style="text;html=1;strokeColor=none;fillColor=none;align=left;verticalAlign=top;spacingLeft=4;spacingRight=4;whiteSpace=wrap;overflow=hidden;rotatable=0;points=[[0,0.5],[1,0.5]];portConstraint=eastwest;" vertex="1" parent="cOtZHhIljCrcvXUx9MyU-297">
          <mxGeometry y="218" width="250" height="24" as="geometry" />
        </mxCell>
        <mxCell id="cOtZHhIljCrcvXUx9MyU-309" style="edgeStyle=orthogonalEdgeStyle;rounded=0;orthogonalLoop=1;jettySize=auto;html=1;entryX=0;entryY=0.5;entryDx=0;entryDy=0;" edge="1" parent="1" source="cOtZHhIljCrcvXUx9MyU-213" target="cOtZHhIljCrcvXUx9MyU-308">
          <mxGeometry relative="1" as="geometry" />
        </mxCell>
        <mxCell id="cOtZHhIljCrcvXUx9MyU-311" value="product" style="swimlane;html=1;fontStyle=1;align=center;verticalAlign=top;childLayout=stackLayout;horizontal=1;startSize=26;horizontalStack=0;resizeParent=1;resizeLast=0;collapsible=1;marginBottom=0;swimlaneFillColor=#ffffff;rounded=0;shadow=0;comic=0;labelBackgroundColor=none;strokeWidth=1;fillColor=none;fontFamily=Verdana;fontSize=12" vertex="1" parent="1">
          <mxGeometry x="530" y="670" width="250" height="510" as="geometry" />
        </mxCell>
        <mxCell id="cOtZHhIljCrcvXUx9MyU-312" value="&lt;div&gt;id&lt;span style=&quot;white-space: pre;&quot;&gt;&#x9;&lt;/span&gt;&lt;/div&gt;" style="text;html=1;strokeColor=none;fillColor=none;align=left;verticalAlign=top;spacingLeft=4;spacingRight=4;whiteSpace=wrap;overflow=hidden;rotatable=0;points=[[0,0.5],[1,0.5]];portConstraint=eastwest;" vertex="1" parent="cOtZHhIljCrcvXUx9MyU-311">
          <mxGeometry y="26" width="250" height="24" as="geometry" />
        </mxCell>
        <mxCell id="cOtZHhIljCrcvXUx9MyU-313" value="category_id" style="text;html=1;strokeColor=none;fillColor=none;align=left;verticalAlign=top;spacingLeft=4;spacingRight=4;whiteSpace=wrap;overflow=hidden;rotatable=0;points=[[0,0.5],[1,0.5]];portConstraint=eastwest;" vertex="1" parent="cOtZHhIljCrcvXUx9MyU-311">
          <mxGeometry y="50" width="250" height="24" as="geometry" />
        </mxCell>
        <mxCell id="cOtZHhIljCrcvXUx9MyU-314" value="subcategory_id" style="text;html=1;strokeColor=none;fillColor=none;align=left;verticalAlign=top;spacingLeft=4;spacingRight=4;whiteSpace=wrap;overflow=hidden;rotatable=0;points=[[0,0.5],[1,0.5]];portConstraint=eastwest;" vertex="1" parent="cOtZHhIljCrcvXUx9MyU-311">
          <mxGeometry y="74" width="250" height="24" as="geometry" />
        </mxCell>
        <mxCell id="cOtZHhIljCrcvXUx9MyU-315" value="brand_id" style="text;html=1;strokeColor=none;fillColor=none;align=left;verticalAlign=top;spacingLeft=4;spacingRight=4;whiteSpace=wrap;overflow=hidden;rotatable=0;points=[[0,0.5],[1,0.5]];portConstraint=eastwest;" vertex="1" parent="cOtZHhIljCrcvXUx9MyU-311">
          <mxGeometry y="98" width="250" height="24" as="geometry" />
        </mxCell>
        <mxCell id="cOtZHhIljCrcvXUx9MyU-316" value="product_name" style="text;html=1;strokeColor=none;fillColor=none;align=left;verticalAlign=top;spacingLeft=4;spacingRight=4;whiteSpace=wrap;overflow=hidden;rotatable=0;points=[[0,0.5],[1,0.5]];portConstraint=eastwest;" vertex="1" parent="cOtZHhIljCrcvXUx9MyU-311">
          <mxGeometry y="122" width="250" height="24" as="geometry" />
        </mxCell>
        <mxCell id="cOtZHhIljCrcvXUx9MyU-484" value="suggest" style="text;html=1;strokeColor=none;fillColor=none;align=left;verticalAlign=top;spacingLeft=4;spacingRight=4;whiteSpace=wrap;overflow=hidden;rotatable=0;points=[[0,0.5],[1,0.5]];portConstraint=eastwest;" vertex="1" parent="cOtZHhIljCrcvXUx9MyU-311">
          <mxGeometry y="146" width="250" height="24" as="geometry" />
        </mxCell>
        <mxCell id="cOtZHhIljCrcvXUx9MyU-479" value="product_nameEn" style="text;html=1;strokeColor=none;fillColor=none;align=left;verticalAlign=top;spacingLeft=4;spacingRight=4;whiteSpace=wrap;overflow=hidden;rotatable=0;points=[[0,0.5],[1,0.5]];portConstraint=eastwest;" vertex="1" parent="cOtZHhIljCrcvXUx9MyU-311">
          <mxGeometry y="170" width="250" height="24" as="geometry" />
        </mxCell>
        <mxCell id="cOtZHhIljCrcvXUx9MyU-317" value="product_code" style="text;html=1;strokeColor=none;fillColor=none;align=left;verticalAlign=top;spacingLeft=4;spacingRight=4;whiteSpace=wrap;overflow=hidden;rotatable=0;points=[[0,0.5],[1,0.5]];portConstraint=eastwest;" vertex="1" parent="cOtZHhIljCrcvXUx9MyU-311">
          <mxGeometry y="194" width="250" height="24" as="geometry" />
        </mxCell>
        <mxCell id="cOtZHhIljCrcvXUx9MyU-319" value="product_details" style="text;html=1;strokeColor=none;fillColor=none;align=left;verticalAlign=top;spacingLeft=4;spacingRight=4;whiteSpace=wrap;overflow=hidden;rotatable=0;points=[[0,0.5],[1,0.5]];portConstraint=eastwest;" vertex="1" parent="cOtZHhIljCrcvXUx9MyU-311">
          <mxGeometry y="218" width="250" height="24" as="geometry" />
        </mxCell>
        <mxCell id="cOtZHhIljCrcvXUx9MyU-320" style="edgeStyle=orthogonalEdgeStyle;rounded=0;orthogonalLoop=1;jettySize=auto;html=1;exitX=1;exitY=0.5;exitDx=0;exitDy=0;" edge="1" parent="cOtZHhIljCrcvXUx9MyU-311" source="cOtZHhIljCrcvXUx9MyU-319" target="cOtZHhIljCrcvXUx9MyU-319">
          <mxGeometry relative="1" as="geometry" />
        </mxCell>
        <mxCell id="cOtZHhIljCrcvXUx9MyU-497" value="max_cart" style="text;html=1;strokeColor=none;fillColor=none;align=left;verticalAlign=top;spacingLeft=4;spacingRight=4;whiteSpace=wrap;overflow=hidden;rotatable=0;points=[[0,0.5],[1,0.5]];portConstraint=eastwest;" vertex="1" parent="cOtZHhIljCrcvXUx9MyU-311">
          <mxGeometry y="242" width="250" height="24" as="geometry" />
        </mxCell>
        <mxCell id="cOtZHhIljCrcvXUx9MyU-496" value="min_cart" style="text;html=1;strokeColor=none;fillColor=none;align=left;verticalAlign=top;spacingLeft=4;spacingRight=4;whiteSpace=wrap;overflow=hidden;rotatable=0;points=[[0,0.5],[1,0.5]];portConstraint=eastwest;" vertex="1" parent="cOtZHhIljCrcvXUx9MyU-311">
          <mxGeometry y="266" width="250" height="24" as="geometry" />
        </mxCell>
        <mxCell id="cOtZHhIljCrcvXUx9MyU-326" value="video_link" style="text;html=1;strokeColor=none;fillColor=none;align=left;verticalAlign=top;spacingLeft=4;spacingRight=4;whiteSpace=wrap;overflow=hidden;rotatable=0;points=[[0,0.5],[1,0.5]];portConstraint=eastwest;" vertex="1" parent="cOtZHhIljCrcvXUx9MyU-311">
          <mxGeometry y="290" width="250" height="24" as="geometry" />
        </mxCell>
        <mxCell id="cOtZHhIljCrcvXUx9MyU-325" value="hot_deal" style="text;html=1;strokeColor=none;fillColor=none;align=left;verticalAlign=top;spacingLeft=4;spacingRight=4;whiteSpace=wrap;overflow=hidden;rotatable=0;points=[[0,0.5],[1,0.5]];portConstraint=eastwest;" vertex="1" parent="cOtZHhIljCrcvXUx9MyU-311">
          <mxGeometry y="314" width="250" height="24" as="geometry" />
        </mxCell>
        <mxCell id="cOtZHhIljCrcvXUx9MyU-329" value="best_rated" style="text;html=1;strokeColor=none;fillColor=none;align=left;verticalAlign=top;spacingLeft=4;spacingRight=4;whiteSpace=wrap;overflow=hidden;rotatable=0;points=[[0,0.5],[1,0.5]];portConstraint=eastwest;" vertex="1" parent="cOtZHhIljCrcvXUx9MyU-311">
          <mxGeometry y="338" width="250" height="24" as="geometry" />
        </mxCell>
        <mxCell id="cOtZHhIljCrcvXUx9MyU-328" value="hot_new" style="text;html=1;strokeColor=none;fillColor=none;align=left;verticalAlign=top;spacingLeft=4;spacingRight=4;whiteSpace=wrap;overflow=hidden;rotatable=0;points=[[0,0.5],[1,0.5]];portConstraint=eastwest;" vertex="1" parent="cOtZHhIljCrcvXUx9MyU-311">
          <mxGeometry y="362" width="250" height="24" as="geometry" />
        </mxCell>
        <mxCell id="cOtZHhIljCrcvXUx9MyU-827" value="3d_Image" style="text;html=1;strokeColor=none;fillColor=none;align=left;verticalAlign=top;spacingLeft=4;spacingRight=4;whiteSpace=wrap;overflow=hidden;rotatable=0;points=[[0,0.5],[1,0.5]];portConstraint=eastwest;" vertex="1" parent="cOtZHhIljCrcvXUx9MyU-311">
          <mxGeometry y="386" width="250" height="24" as="geometry" />
        </mxCell>
        <mxCell id="cOtZHhIljCrcvXUx9MyU-327" value="buyone_getone" style="text;html=1;strokeColor=none;fillColor=none;align=left;verticalAlign=top;spacingLeft=4;spacingRight=4;whiteSpace=wrap;overflow=hidden;rotatable=0;points=[[0,0.5],[1,0.5]];portConstraint=eastwest;" vertex="1" parent="cOtZHhIljCrcvXUx9MyU-311">
          <mxGeometry y="410" width="250" height="24" as="geometry" />
        </mxCell>
        <mxCell id="cOtZHhIljCrcvXUx9MyU-489" value="image_id" style="text;html=1;strokeColor=none;fillColor=none;align=left;verticalAlign=top;spacingLeft=4;spacingRight=4;whiteSpace=wrap;overflow=hidden;rotatable=0;points=[[0,0.5],[1,0.5]];portConstraint=eastwest;" vertex="1" parent="cOtZHhIljCrcvXUx9MyU-311">
          <mxGeometry y="434" width="250" height="24" as="geometry" />
        </mxCell>
        <mxCell id="cOtZHhIljCrcvXUx9MyU-488" value="alt_image" style="text;html=1;strokeColor=none;fillColor=none;align=left;verticalAlign=top;spacingLeft=4;spacingRight=4;whiteSpace=wrap;overflow=hidden;rotatable=0;points=[[0,0.5],[1,0.5]];portConstraint=eastwest;" vertex="1" parent="cOtZHhIljCrcvXUx9MyU-311">
          <mxGeometry y="458" width="250" height="24" as="geometry" />
        </mxCell>
        <mxCell id="cOtZHhIljCrcvXUx9MyU-332" value="status" style="text;html=1;strokeColor=none;fillColor=none;align=left;verticalAlign=top;spacingLeft=4;spacingRight=4;whiteSpace=wrap;overflow=hidden;rotatable=0;points=[[0,0.5],[1,0.5]];portConstraint=eastwest;" vertex="1" parent="cOtZHhIljCrcvXUx9MyU-311">
          <mxGeometry y="482" width="250" height="24" as="geometry" />
        </mxCell>
        <mxCell id="cOtZHhIljCrcvXUx9MyU-334" value="categories" style="swimlane;html=1;fontStyle=1;align=center;verticalAlign=top;childLayout=stackLayout;horizontal=1;startSize=26;horizontalStack=0;resizeParent=1;resizeLast=0;collapsible=1;marginBottom=0;swimlaneFillColor=#ffffff;rounded=0;shadow=0;comic=0;labelBackgroundColor=none;strokeWidth=1;fillColor=none;fontFamily=Verdana;fontSize=12" vertex="1" parent="1">
          <mxGeometry x="850" y="570" width="250" height="170" as="geometry" />
        </mxCell>
        <mxCell id="cOtZHhIljCrcvXUx9MyU-335" value="&lt;div&gt;id&lt;span style=&quot;white-space: pre;&quot;&gt;&#x9;&lt;/span&gt;&lt;/div&gt;" style="text;html=1;strokeColor=none;fillColor=none;align=left;verticalAlign=top;spacingLeft=4;spacingRight=4;whiteSpace=wrap;overflow=hidden;rotatable=0;points=[[0,0.5],[1,0.5]];portConstraint=eastwest;" vertex="1" parent="cOtZHhIljCrcvXUx9MyU-334">
          <mxGeometry y="26" width="250" height="24" as="geometry" />
        </mxCell>
        <mxCell id="cOtZHhIljCrcvXUx9MyU-336" value="category_name" style="text;html=1;strokeColor=none;fillColor=none;align=left;verticalAlign=top;spacingLeft=4;spacingRight=4;whiteSpace=wrap;overflow=hidden;rotatable=0;points=[[0,0.5],[1,0.5]];portConstraint=eastwest;" vertex="1" parent="cOtZHhIljCrcvXUx9MyU-334">
          <mxGeometry y="50" width="250" height="24" as="geometry" />
        </mxCell>
        <mxCell id="cOtZHhIljCrcvXUx9MyU-719" value="languages" style="text;html=1;strokeColor=none;fillColor=none;align=left;verticalAlign=top;spacingLeft=4;spacingRight=4;whiteSpace=wrap;overflow=hidden;rotatable=0;points=[[0,0.5],[1,0.5]];portConstraint=eastwest;" vertex="1" parent="cOtZHhIljCrcvXUx9MyU-334">
          <mxGeometry y="74" width="250" height="24" as="geometry" />
        </mxCell>
        <mxCell id="cOtZHhIljCrcvXUx9MyU-742" value="image" style="text;html=1;strokeColor=none;fillColor=none;align=left;verticalAlign=top;spacingLeft=4;spacingRight=4;whiteSpace=wrap;overflow=hidden;rotatable=0;points=[[0,0.5],[1,0.5]];portConstraint=eastwest;" vertex="1" parent="cOtZHhIljCrcvXUx9MyU-334">
          <mxGeometry y="98" width="250" height="24" as="geometry" />
        </mxCell>
        <mxCell id="cOtZHhIljCrcvXUx9MyU-337" value="updated_at" style="text;html=1;strokeColor=none;fillColor=none;align=left;verticalAlign=top;spacingLeft=4;spacingRight=4;whiteSpace=wrap;overflow=hidden;rotatable=0;points=[[0,0.5],[1,0.5]];portConstraint=eastwest;" vertex="1" parent="cOtZHhIljCrcvXUx9MyU-334">
          <mxGeometry y="122" width="250" height="24" as="geometry" />
        </mxCell>
        <mxCell id="cOtZHhIljCrcvXUx9MyU-338" style="edgeStyle=orthogonalEdgeStyle;rounded=0;orthogonalLoop=1;jettySize=auto;html=1;exitX=1;exitY=0.5;exitDx=0;exitDy=0;" edge="1" parent="cOtZHhIljCrcvXUx9MyU-334" source="cOtZHhIljCrcvXUx9MyU-337" target="cOtZHhIljCrcvXUx9MyU-337">
          <mxGeometry relative="1" as="geometry" />
        </mxCell>
        <mxCell id="cOtZHhIljCrcvXUx9MyU-339" value="created_at" style="text;html=1;strokeColor=none;fillColor=none;align=left;verticalAlign=top;spacingLeft=4;spacingRight=4;whiteSpace=wrap;overflow=hidden;rotatable=0;points=[[0,0.5],[1,0.5]];portConstraint=eastwest;" vertex="1" parent="cOtZHhIljCrcvXUx9MyU-334">
          <mxGeometry y="146" width="250" height="24" as="geometry" />
        </mxCell>
        <mxCell id="cOtZHhIljCrcvXUx9MyU-340" value="sub_Categories" style="swimlane;html=1;fontStyle=1;align=center;verticalAlign=top;childLayout=stackLayout;horizontal=1;startSize=26;horizontalStack=0;resizeParent=1;resizeLast=0;collapsible=1;marginBottom=0;swimlaneFillColor=#ffffff;rounded=0;shadow=0;comic=0;labelBackgroundColor=none;strokeWidth=1;fillColor=none;fontFamily=Verdana;fontSize=12" vertex="1" parent="1">
          <mxGeometry x="920" y="792" width="250" height="194" as="geometry" />
        </mxCell>
        <mxCell id="cOtZHhIljCrcvXUx9MyU-341" value="&lt;div&gt;id&lt;span style=&quot;white-space: pre;&quot;&gt;&#x9;&lt;/span&gt;&lt;/div&gt;" style="text;html=1;strokeColor=none;fillColor=none;align=left;verticalAlign=top;spacingLeft=4;spacingRight=4;whiteSpace=wrap;overflow=hidden;rotatable=0;points=[[0,0.5],[1,0.5]];portConstraint=eastwest;" vertex="1" parent="cOtZHhIljCrcvXUx9MyU-340">
          <mxGeometry y="26" width="250" height="24" as="geometry" />
        </mxCell>
        <mxCell id="cOtZHhIljCrcvXUx9MyU-342" value="category_id" style="text;html=1;strokeColor=none;fillColor=none;align=left;verticalAlign=top;spacingLeft=4;spacingRight=4;whiteSpace=wrap;overflow=hidden;rotatable=0;points=[[0,0.5],[1,0.5]];portConstraint=eastwest;" vertex="1" parent="cOtZHhIljCrcvXUx9MyU-340">
          <mxGeometry y="50" width="250" height="24" as="geometry" />
        </mxCell>
        <mxCell id="cOtZHhIljCrcvXUx9MyU-743" value="image" style="text;html=1;strokeColor=none;fillColor=none;align=left;verticalAlign=top;spacingLeft=4;spacingRight=4;whiteSpace=wrap;overflow=hidden;rotatable=0;points=[[0,0.5],[1,0.5]];portConstraint=eastwest;" vertex="1" parent="cOtZHhIljCrcvXUx9MyU-340">
          <mxGeometry y="74" width="250" height="24" as="geometry" />
        </mxCell>
        <mxCell id="cOtZHhIljCrcvXUx9MyU-729" value="languages" style="text;html=1;strokeColor=none;fillColor=none;align=left;verticalAlign=top;spacingLeft=4;spacingRight=4;whiteSpace=wrap;overflow=hidden;rotatable=0;points=[[0,0.5],[1,0.5]];portConstraint=eastwest;" vertex="1" parent="cOtZHhIljCrcvXUx9MyU-340">
          <mxGeometry y="98" width="250" height="24" as="geometry" />
        </mxCell>
        <mxCell id="cOtZHhIljCrcvXUx9MyU-356" style="edgeStyle=orthogonalEdgeStyle;rounded=0;orthogonalLoop=1;jettySize=auto;html=1;entryX=0;entryY=0.5;entryDx=0;entryDy=0;exitX=0.024;exitY=0.989;exitDx=0;exitDy=0;exitPerimeter=0;" edge="1" parent="cOtZHhIljCrcvXUx9MyU-340" source="cOtZHhIljCrcvXUx9MyU-341">
          <mxGeometry relative="1" as="geometry">
            <mxPoint x="115.00000000000045" y="53" as="sourcePoint" />
            <mxPoint x="-80" y="-181" as="targetPoint" />
            <Array as="points">
              <mxPoint x="6" y="53" />
              <mxPoint x="-20" y="53" />
              <mxPoint x="-20" y="122" />
              <mxPoint x="-90" y="122" />
              <mxPoint x="-90" y="-181" />
            </Array>
          </mxGeometry>
        </mxCell>
        <mxCell id="cOtZHhIljCrcvXUx9MyU-343" value="subcategory_name" style="text;html=1;strokeColor=none;fillColor=none;align=left;verticalAlign=top;spacingLeft=4;spacingRight=4;whiteSpace=wrap;overflow=hidden;rotatable=0;points=[[0,0.5],[1,0.5]];portConstraint=eastwest;" vertex="1" parent="cOtZHhIljCrcvXUx9MyU-340">
          <mxGeometry y="122" width="250" height="24" as="geometry" />
        </mxCell>
        <mxCell id="cOtZHhIljCrcvXUx9MyU-344" style="edgeStyle=orthogonalEdgeStyle;rounded=0;orthogonalLoop=1;jettySize=auto;html=1;exitX=1;exitY=0.5;exitDx=0;exitDy=0;" edge="1" parent="cOtZHhIljCrcvXUx9MyU-340" source="cOtZHhIljCrcvXUx9MyU-343" target="cOtZHhIljCrcvXUx9MyU-343">
          <mxGeometry relative="1" as="geometry" />
        </mxCell>
        <mxCell id="cOtZHhIljCrcvXUx9MyU-345" value="updated_at" style="text;html=1;strokeColor=none;fillColor=none;align=left;verticalAlign=top;spacingLeft=4;spacingRight=4;whiteSpace=wrap;overflow=hidden;rotatable=0;points=[[0,0.5],[1,0.5]];portConstraint=eastwest;" vertex="1" parent="cOtZHhIljCrcvXUx9MyU-340">
          <mxGeometry y="146" width="250" height="24" as="geometry" />
        </mxCell>
        <mxCell id="cOtZHhIljCrcvXUx9MyU-353" value="created_at" style="text;html=1;strokeColor=none;fillColor=none;align=left;verticalAlign=top;spacingLeft=4;spacingRight=4;whiteSpace=wrap;overflow=hidden;rotatable=0;points=[[0,0.5],[1,0.5]];portConstraint=eastwest;" vertex="1" parent="cOtZHhIljCrcvXUx9MyU-340">
          <mxGeometry y="170" width="250" height="24" as="geometry" />
        </mxCell>
        <mxCell id="cOtZHhIljCrcvXUx9MyU-346" value="brands" style="swimlane;html=1;fontStyle=1;align=center;verticalAlign=top;childLayout=stackLayout;horizontal=1;startSize=26;horizontalStack=0;resizeParent=1;resizeLast=0;collapsible=1;marginBottom=0;swimlaneFillColor=#ffffff;rounded=0;shadow=0;comic=0;labelBackgroundColor=none;strokeWidth=1;fillColor=none;fontFamily=Verdana;fontSize=12" vertex="1" parent="1">
          <mxGeometry x="880" y="1040" width="250" height="130" as="geometry" />
        </mxCell>
        <mxCell id="cOtZHhIljCrcvXUx9MyU-347" value="&lt;div&gt;id&lt;span style=&quot;white-space: pre;&quot;&gt;&#x9;&lt;/span&gt;&lt;/div&gt;" style="text;html=1;strokeColor=none;fillColor=none;align=left;verticalAlign=top;spacingLeft=4;spacingRight=4;whiteSpace=wrap;overflow=hidden;rotatable=0;points=[[0,0.5],[1,0.5]];portConstraint=eastwest;" vertex="1" parent="cOtZHhIljCrcvXUx9MyU-346">
          <mxGeometry y="26" width="250" height="24" as="geometry" />
        </mxCell>
        <mxCell id="cOtZHhIljCrcvXUx9MyU-348" value="brand_name" style="text;html=1;strokeColor=none;fillColor=none;align=left;verticalAlign=top;spacingLeft=4;spacingRight=4;whiteSpace=wrap;overflow=hidden;rotatable=0;points=[[0,0.5],[1,0.5]];portConstraint=eastwest;" vertex="1" parent="cOtZHhIljCrcvXUx9MyU-346">
          <mxGeometry y="50" width="250" height="24" as="geometry" />
        </mxCell>
        <mxCell id="cOtZHhIljCrcvXUx9MyU-349" value="brand_logo" style="text;html=1;strokeColor=none;fillColor=none;align=left;verticalAlign=top;spacingLeft=4;spacingRight=4;whiteSpace=wrap;overflow=hidden;rotatable=0;points=[[0,0.5],[1,0.5]];portConstraint=eastwest;" vertex="1" parent="cOtZHhIljCrcvXUx9MyU-346">
          <mxGeometry y="74" width="250" height="24" as="geometry" />
        </mxCell>
        <mxCell id="cOtZHhIljCrcvXUx9MyU-350" style="edgeStyle=orthogonalEdgeStyle;rounded=0;orthogonalLoop=1;jettySize=auto;html=1;exitX=1;exitY=0.5;exitDx=0;exitDy=0;" edge="1" parent="cOtZHhIljCrcvXUx9MyU-346" source="cOtZHhIljCrcvXUx9MyU-349" target="cOtZHhIljCrcvXUx9MyU-349">
          <mxGeometry relative="1" as="geometry" />
        </mxCell>
        <mxCell id="cOtZHhIljCrcvXUx9MyU-351" value="status" style="text;html=1;strokeColor=none;fillColor=none;align=left;verticalAlign=top;spacingLeft=4;spacingRight=4;whiteSpace=wrap;overflow=hidden;rotatable=0;points=[[0,0.5],[1,0.5]];portConstraint=eastwest;" vertex="1" parent="cOtZHhIljCrcvXUx9MyU-346">
          <mxGeometry y="98" width="250" height="24" as="geometry" />
        </mxCell>
        <mxCell id="cOtZHhIljCrcvXUx9MyU-354" style="edgeStyle=orthogonalEdgeStyle;rounded=0;orthogonalLoop=1;jettySize=auto;html=1;" edge="1" parent="1" source="cOtZHhIljCrcvXUx9MyU-313" target="cOtZHhIljCrcvXUx9MyU-335">
          <mxGeometry relative="1" as="geometry" />
        </mxCell>
        <mxCell id="cOtZHhIljCrcvXUx9MyU-355" style="edgeStyle=orthogonalEdgeStyle;rounded=0;orthogonalLoop=1;jettySize=auto;html=1;entryX=0;entryY=0.5;entryDx=0;entryDy=0;" edge="1" parent="1" source="cOtZHhIljCrcvXUx9MyU-314" target="cOtZHhIljCrcvXUx9MyU-341">
          <mxGeometry relative="1" as="geometry" />
        </mxCell>
        <mxCell id="cOtZHhIljCrcvXUx9MyU-358" style="edgeStyle=orthogonalEdgeStyle;rounded=0;orthogonalLoop=1;jettySize=auto;html=1;entryX=-0.013;entryY=0.729;entryDx=0;entryDy=0;entryPerimeter=0;" edge="1" parent="1" source="cOtZHhIljCrcvXUx9MyU-315" target="cOtZHhIljCrcvXUx9MyU-347">
          <mxGeometry relative="1" as="geometry">
            <Array as="points">
              <mxPoint x="790" y="780" />
              <mxPoint x="790" y="1004" />
            </Array>
          </mxGeometry>
        </mxCell>
        <mxCell id="cOtZHhIljCrcvXUx9MyU-359" value="redirects&lt;div&gt;&lt;br&gt;&lt;/div&gt;" style="swimlane;html=1;fontStyle=1;align=center;verticalAlign=top;childLayout=stackLayout;horizontal=1;startSize=26;horizontalStack=0;resizeParent=1;resizeLast=0;collapsible=1;marginBottom=0;swimlaneFillColor=#ffffff;rounded=0;shadow=0;comic=0;labelBackgroundColor=none;strokeWidth=1;fillColor=none;fontFamily=Verdana;fontSize=12" vertex="1" parent="1">
          <mxGeometry x="770" y="-820" width="250" height="146" as="geometry" />
        </mxCell>
        <mxCell id="cOtZHhIljCrcvXUx9MyU-360" value="&lt;div&gt;id&lt;span style=&quot;white-space: pre;&quot;&gt;&#x9;&lt;/span&gt;&lt;/div&gt;" style="text;html=1;strokeColor=none;fillColor=none;align=left;verticalAlign=top;spacingLeft=4;spacingRight=4;whiteSpace=wrap;overflow=hidden;rotatable=0;points=[[0,0.5],[1,0.5]];portConstraint=eastwest;" vertex="1" parent="cOtZHhIljCrcvXUx9MyU-359">
          <mxGeometry y="26" width="250" height="24" as="geometry" />
        </mxCell>
        <mxCell id="cOtZHhIljCrcvXUx9MyU-361" value="start" style="text;html=1;strokeColor=none;fillColor=none;align=left;verticalAlign=top;spacingLeft=4;spacingRight=4;whiteSpace=wrap;overflow=hidden;rotatable=0;points=[[0,0.5],[1,0.5]];portConstraint=eastwest;" vertex="1" parent="cOtZHhIljCrcvXUx9MyU-359">
          <mxGeometry y="50" width="250" height="24" as="geometry" />
        </mxCell>
        <mxCell id="cOtZHhIljCrcvXUx9MyU-362" value="end" style="text;html=1;strokeColor=none;fillColor=none;align=left;verticalAlign=top;spacingLeft=4;spacingRight=4;whiteSpace=wrap;overflow=hidden;rotatable=0;points=[[0,0.5],[1,0.5]];portConstraint=eastwest;" vertex="1" parent="cOtZHhIljCrcvXUx9MyU-359">
          <mxGeometry y="74" width="250" height="24" as="geometry" />
        </mxCell>
        <mxCell id="cOtZHhIljCrcvXUx9MyU-363" style="edgeStyle=orthogonalEdgeStyle;rounded=0;orthogonalLoop=1;jettySize=auto;html=1;exitX=1;exitY=0.5;exitDx=0;exitDy=0;" edge="1" parent="cOtZHhIljCrcvXUx9MyU-359" source="cOtZHhIljCrcvXUx9MyU-362" target="cOtZHhIljCrcvXUx9MyU-362">
          <mxGeometry relative="1" as="geometry" />
        </mxCell>
        <mxCell id="cOtZHhIljCrcvXUx9MyU-364" value="created_at" style="text;html=1;strokeColor=none;fillColor=none;align=left;verticalAlign=top;spacingLeft=4;spacingRight=4;whiteSpace=wrap;overflow=hidden;rotatable=0;points=[[0,0.5],[1,0.5]];portConstraint=eastwest;" vertex="1" parent="cOtZHhIljCrcvXUx9MyU-359">
          <mxGeometry y="98" width="250" height="24" as="geometry" />
        </mxCell>
        <mxCell id="cOtZHhIljCrcvXUx9MyU-365" value="updated_at" style="text;html=1;strokeColor=none;fillColor=none;align=left;verticalAlign=top;spacingLeft=4;spacingRight=4;whiteSpace=wrap;overflow=hidden;rotatable=0;points=[[0,0.5],[1,0.5]];portConstraint=eastwest;" vertex="1" parent="cOtZHhIljCrcvXUx9MyU-359">
          <mxGeometry y="122" width="250" height="24" as="geometry" />
        </mxCell>
        <mxCell id="cOtZHhIljCrcvXUx9MyU-366" value="likes" style="swimlane;html=1;fontStyle=1;align=center;verticalAlign=top;childLayout=stackLayout;horizontal=1;startSize=26;horizontalStack=0;resizeParent=1;resizeLast=0;collapsible=1;marginBottom=0;swimlaneFillColor=#ffffff;rounded=0;shadow=0;comic=0;labelBackgroundColor=none;strokeWidth=1;fillColor=none;fontFamily=Verdana;fontSize=12" vertex="1" parent="1">
          <mxGeometry x="540" y="490" width="250" height="170" as="geometry" />
        </mxCell>
        <mxCell id="cOtZHhIljCrcvXUx9MyU-367" value="&lt;div&gt;id&lt;span style=&quot;white-space: pre;&quot;&gt;&#x9;&lt;/span&gt;&lt;/div&gt;" style="text;html=1;strokeColor=none;fillColor=none;align=left;verticalAlign=top;spacingLeft=4;spacingRight=4;whiteSpace=wrap;overflow=hidden;rotatable=0;points=[[0,0.5],[1,0.5]];portConstraint=eastwest;" vertex="1" parent="cOtZHhIljCrcvXUx9MyU-366">
          <mxGeometry y="26" width="250" height="24" as="geometry" />
        </mxCell>
        <mxCell id="cOtZHhIljCrcvXUx9MyU-368" value="prioduct_id" style="text;html=1;strokeColor=none;fillColor=none;align=left;verticalAlign=top;spacingLeft=4;spacingRight=4;whiteSpace=wrap;overflow=hidden;rotatable=0;points=[[0,0.5],[1,0.5]];portConstraint=eastwest;" vertex="1" parent="cOtZHhIljCrcvXUx9MyU-366">
          <mxGeometry y="50" width="250" height="24" as="geometry" />
        </mxCell>
        <mxCell id="cOtZHhIljCrcvXUx9MyU-370" style="edgeStyle=orthogonalEdgeStyle;rounded=0;orthogonalLoop=1;jettySize=auto;html=1;exitX=1;exitY=0.5;exitDx=0;exitDy=0;" edge="1" parent="cOtZHhIljCrcvXUx9MyU-366">
          <mxGeometry relative="1" as="geometry">
            <mxPoint x="250" y="86" as="sourcePoint" />
            <mxPoint x="250" y="86" as="targetPoint" />
          </mxGeometry>
        </mxCell>
        <mxCell id="cOtZHhIljCrcvXUx9MyU-371" value="user_id" style="text;html=1;strokeColor=none;fillColor=none;align=left;verticalAlign=top;spacingLeft=4;spacingRight=4;whiteSpace=wrap;overflow=hidden;rotatable=0;points=[[0,0.5],[1,0.5]];portConstraint=eastwest;" vertex="1" parent="cOtZHhIljCrcvXUx9MyU-366">
          <mxGeometry y="74" width="250" height="24" as="geometry" />
        </mxCell>
        <mxCell id="cOtZHhIljCrcvXUx9MyU-372" value="updated_at" style="text;html=1;strokeColor=none;fillColor=none;align=left;verticalAlign=top;spacingLeft=4;spacingRight=4;whiteSpace=wrap;overflow=hidden;rotatable=0;points=[[0,0.5],[1,0.5]];portConstraint=eastwest;" vertex="1" parent="cOtZHhIljCrcvXUx9MyU-366">
          <mxGeometry y="98" width="250" height="24" as="geometry" />
        </mxCell>
        <mxCell id="cOtZHhIljCrcvXUx9MyU-373" value="created_at" style="text;html=1;strokeColor=none;fillColor=none;align=left;verticalAlign=top;spacingLeft=4;spacingRight=4;whiteSpace=wrap;overflow=hidden;rotatable=0;points=[[0,0.5],[1,0.5]];portConstraint=eastwest;" vertex="1" parent="cOtZHhIljCrcvXUx9MyU-366">
          <mxGeometry y="122" width="250" height="24" as="geometry" />
        </mxCell>
        <mxCell id="cOtZHhIljCrcvXUx9MyU-374" style="edgeStyle=orthogonalEdgeStyle;rounded=0;orthogonalLoop=1;jettySize=auto;html=1;entryX=0;entryY=0.5;entryDx=0;entryDy=0;" edge="1" parent="1" source="cOtZHhIljCrcvXUx9MyU-368" target="cOtZHhIljCrcvXUx9MyU-312">
          <mxGeometry relative="1" as="geometry" />
        </mxCell>
        <mxCell id="cOtZHhIljCrcvXUx9MyU-375" style="edgeStyle=orthogonalEdgeStyle;rounded=0;orthogonalLoop=1;jettySize=auto;html=1;entryX=1;entryY=0.5;entryDx=0;entryDy=0;" edge="1" parent="1" source="cOtZHhIljCrcvXUx9MyU-371" target="cOtZHhIljCrcvXUx9MyU-213">
          <mxGeometry relative="1" as="geometry">
            <Array as="points">
              <mxPoint x="520" y="576" />
              <mxPoint x="520" y="480" />
              <mxPoint x="600" y="480" />
              <mxPoint x="600" y="280" />
              <mxPoint x="580" y="280" />
            </Array>
          </mxGeometry>
        </mxCell>
        <mxCell id="cOtZHhIljCrcvXUx9MyU-380" value="stores" style="swimlane;html=1;fontStyle=1;align=center;verticalAlign=top;childLayout=stackLayout;horizontal=1;startSize=26;horizontalStack=0;resizeParent=1;resizeLast=0;collapsible=1;marginBottom=0;swimlaneFillColor=#ffffff;rounded=0;shadow=0;comic=0;labelBackgroundColor=none;strokeWidth=1;fillColor=none;fontFamily=Verdana;fontSize=12" vertex="1" parent="1">
          <mxGeometry x="-600" y="-860" width="250" height="330" as="geometry" />
        </mxCell>
        <mxCell id="cOtZHhIljCrcvXUx9MyU-381" value="&lt;div&gt;id&lt;span style=&quot;white-space: pre;&quot;&gt;&#x9;&lt;/span&gt;&lt;/div&gt;" style="text;html=1;strokeColor=none;fillColor=none;align=left;verticalAlign=top;spacingLeft=4;spacingRight=4;whiteSpace=wrap;overflow=hidden;rotatable=0;points=[[0,0.5],[1,0.5]];portConstraint=eastwest;" vertex="1" parent="cOtZHhIljCrcvXUx9MyU-380">
          <mxGeometry y="26" width="250" height="24" as="geometry" />
        </mxCell>
        <mxCell id="cOtZHhIljCrcvXUx9MyU-382" value="image" style="text;html=1;strokeColor=none;fillColor=none;align=left;verticalAlign=top;spacingLeft=4;spacingRight=4;whiteSpace=wrap;overflow=hidden;rotatable=0;points=[[0,0.5],[1,0.5]];portConstraint=eastwest;" vertex="1" parent="cOtZHhIljCrcvXUx9MyU-380">
          <mxGeometry y="50" width="250" height="24" as="geometry" />
        </mxCell>
        <mxCell id="cOtZHhIljCrcvXUx9MyU-383" value="cover" style="text;html=1;strokeColor=none;fillColor=none;align=left;verticalAlign=top;spacingLeft=4;spacingRight=4;whiteSpace=wrap;overflow=hidden;rotatable=0;points=[[0,0.5],[1,0.5]];portConstraint=eastwest;" vertex="1" parent="cOtZHhIljCrcvXUx9MyU-380">
          <mxGeometry y="74" width="250" height="24" as="geometry" />
        </mxCell>
        <mxCell id="cOtZHhIljCrcvXUx9MyU-384" value="type" style="text;html=1;strokeColor=none;fillColor=none;align=left;verticalAlign=top;spacingLeft=4;spacingRight=4;whiteSpace=wrap;overflow=hidden;rotatable=0;points=[[0,0.5],[1,0.5]];portConstraint=eastwest;" vertex="1" parent="cOtZHhIljCrcvXUx9MyU-380">
          <mxGeometry y="98" width="250" height="24" as="geometry" />
        </mxCell>
        <mxCell id="cOtZHhIljCrcvXUx9MyU-385" value="day" style="text;html=1;strokeColor=none;fillColor=none;align=left;verticalAlign=top;spacingLeft=4;spacingRight=4;whiteSpace=wrap;overflow=hidden;rotatable=0;points=[[0,0.5],[1,0.5]];portConstraint=eastwest;" vertex="1" parent="cOtZHhIljCrcvXUx9MyU-380">
          <mxGeometry y="122" width="250" height="24" as="geometry" />
        </mxCell>
        <mxCell id="cOtZHhIljCrcvXUx9MyU-386" value="expire" style="text;html=1;strokeColor=none;fillColor=none;align=left;verticalAlign=top;spacingLeft=4;spacingRight=4;whiteSpace=wrap;overflow=hidden;rotatable=0;points=[[0,0.5],[1,0.5]];portConstraint=eastwest;" vertex="1" parent="cOtZHhIljCrcvXUx9MyU-380">
          <mxGeometry y="146" width="250" height="24" as="geometry" />
        </mxCell>
        <mxCell id="cOtZHhIljCrcvXUx9MyU-387" value="created_at" style="text;html=1;strokeColor=none;fillColor=none;align=left;verticalAlign=top;spacingLeft=4;spacingRight=4;whiteSpace=wrap;overflow=hidden;rotatable=0;points=[[0,0.5],[1,0.5]];portConstraint=eastwest;" vertex="1" parent="cOtZHhIljCrcvXUx9MyU-380">
          <mxGeometry y="170" width="250" height="24" as="geometry" />
        </mxCell>
        <mxCell id="cOtZHhIljCrcvXUx9MyU-388" value="updated_at" style="text;html=1;strokeColor=none;fillColor=none;align=left;verticalAlign=top;spacingLeft=4;spacingRight=4;whiteSpace=wrap;overflow=hidden;rotatable=0;points=[[0,0.5],[1,0.5]];portConstraint=eastwest;" vertex="1" parent="cOtZHhIljCrcvXUx9MyU-380">
          <mxGeometry y="194" width="250" height="24" as="geometry" />
        </mxCell>
        <mxCell id="cOtZHhIljCrcvXUx9MyU-389" style="edgeStyle=orthogonalEdgeStyle;rounded=0;orthogonalLoop=1;jettySize=auto;html=1;exitX=1;exitY=0.5;exitDx=0;exitDy=0;" edge="1" parent="cOtZHhIljCrcvXUx9MyU-380" source="cOtZHhIljCrcvXUx9MyU-388" target="cOtZHhIljCrcvXUx9MyU-388">
          <mxGeometry relative="1" as="geometry" />
        </mxCell>
        <mxCell id="cOtZHhIljCrcvXUx9MyU-390" value="title" style="text;html=1;strokeColor=none;fillColor=none;align=left;verticalAlign=top;spacingLeft=4;spacingRight=4;whiteSpace=wrap;overflow=hidden;rotatable=0;points=[[0,0.5],[1,0.5]];portConstraint=eastwest;" vertex="1" parent="cOtZHhIljCrcvXUx9MyU-380">
          <mxGeometry y="218" width="250" height="24" as="geometry" />
        </mxCell>
        <mxCell id="cOtZHhIljCrcvXUx9MyU-391" value="parent_id" style="text;html=1;strokeColor=none;fillColor=none;align=left;verticalAlign=top;spacingLeft=4;spacingRight=4;whiteSpace=wrap;overflow=hidden;rotatable=0;points=[[0,0.5],[1,0.5]];portConstraint=eastwest;" vertex="1" parent="cOtZHhIljCrcvXUx9MyU-380">
          <mxGeometry y="242" width="250" height="24" as="geometry" />
        </mxCell>
        <mxCell id="cOtZHhIljCrcvXUx9MyU-394" value="video_link" style="text;html=1;strokeColor=none;fillColor=none;align=left;verticalAlign=top;spacingLeft=4;spacingRight=4;whiteSpace=wrap;overflow=hidden;rotatable=0;points=[[0,0.5],[1,0.5]];portConstraint=eastwest;" vertex="1" parent="cOtZHhIljCrcvXUx9MyU-380">
          <mxGeometry y="266" width="250" height="24" as="geometry" />
        </mxCell>
        <mxCell id="cOtZHhIljCrcvXUx9MyU-402" value="status" style="text;html=1;strokeColor=none;fillColor=none;align=left;verticalAlign=top;spacingLeft=4;spacingRight=4;whiteSpace=wrap;overflow=hidden;rotatable=0;points=[[0,0.5],[1,0.5]];portConstraint=eastwest;" vertex="1" parent="cOtZHhIljCrcvXUx9MyU-380">
          <mxGeometry y="290" width="250" height="24" as="geometry" />
        </mxCell>
        <mxCell id="cOtZHhIljCrcvXUx9MyU-404" value="videos" style="swimlane;html=1;fontStyle=1;align=center;verticalAlign=top;childLayout=stackLayout;horizontal=1;startSize=26;horizontalStack=0;resizeParent=1;resizeLast=0;collapsible=1;marginBottom=0;swimlaneFillColor=#ffffff;rounded=0;shadow=0;comic=0;labelBackgroundColor=none;strokeWidth=1;fillColor=none;fontFamily=Verdana;fontSize=12" vertex="1" parent="1">
          <mxGeometry x="-230" y="-860" width="250" height="140" as="geometry" />
        </mxCell>
        <mxCell id="cOtZHhIljCrcvXUx9MyU-405" value="&lt;div&gt;id&lt;span style=&quot;white-space: pre;&quot;&gt;&#x9;&lt;/span&gt;&lt;/div&gt;" style="text;html=1;strokeColor=none;fillColor=none;align=left;verticalAlign=top;spacingLeft=4;spacingRight=4;whiteSpace=wrap;overflow=hidden;rotatable=0;points=[[0,0.5],[1,0.5]];portConstraint=eastwest;" vertex="1" parent="cOtZHhIljCrcvXUx9MyU-404">
          <mxGeometry y="26" width="250" height="24" as="geometry" />
        </mxCell>
        <mxCell id="cOtZHhIljCrcvXUx9MyU-406" value="url" style="text;html=1;strokeColor=none;fillColor=none;align=left;verticalAlign=top;spacingLeft=4;spacingRight=4;whiteSpace=wrap;overflow=hidden;rotatable=0;points=[[0,0.5],[1,0.5]];portConstraint=eastwest;" vertex="1" parent="cOtZHhIljCrcvXUx9MyU-404">
          <mxGeometry y="50" width="250" height="24" as="geometry" />
        </mxCell>
        <mxCell id="cOtZHhIljCrcvXUx9MyU-407" value="created_at" style="text;html=1;strokeColor=none;fillColor=none;align=left;verticalAlign=top;spacingLeft=4;spacingRight=4;whiteSpace=wrap;overflow=hidden;rotatable=0;points=[[0,0.5],[1,0.5]];portConstraint=eastwest;" vertex="1" parent="cOtZHhIljCrcvXUx9MyU-404">
          <mxGeometry y="74" width="250" height="24" as="geometry" />
        </mxCell>
        <mxCell id="cOtZHhIljCrcvXUx9MyU-408" value="updated_at" style="text;html=1;strokeColor=none;fillColor=none;align=left;verticalAlign=top;spacingLeft=4;spacingRight=4;whiteSpace=wrap;overflow=hidden;rotatable=0;points=[[0,0.5],[1,0.5]];portConstraint=eastwest;" vertex="1" parent="cOtZHhIljCrcvXUx9MyU-404">
          <mxGeometry y="98" width="250" height="24" as="geometry" />
        </mxCell>
        <mxCell id="cOtZHhIljCrcvXUx9MyU-413" style="edgeStyle=orthogonalEdgeStyle;rounded=0;orthogonalLoop=1;jettySize=auto;html=1;exitX=1;exitY=0.5;exitDx=0;exitDy=0;" edge="1" parent="cOtZHhIljCrcvXUx9MyU-404">
          <mxGeometry relative="1" as="geometry">
            <mxPoint x="249.99999999999977" y="206.00000000000023" as="sourcePoint" />
            <mxPoint x="249.99999999999977" y="206.00000000000023" as="targetPoint" />
          </mxGeometry>
        </mxCell>
        <mxCell id="cOtZHhIljCrcvXUx9MyU-418" value="galleries" style="swimlane;html=1;fontStyle=1;align=center;verticalAlign=top;childLayout=stackLayout;horizontal=1;startSize=26;horizontalStack=0;resizeParent=1;resizeLast=0;collapsible=1;marginBottom=0;swimlaneFillColor=#ffffff;rounded=0;shadow=0;comic=0;labelBackgroundColor=none;strokeWidth=1;fillColor=none;fontFamily=Verdana;fontSize=12" vertex="1" parent="1">
          <mxGeometry x="-260" y="-560" width="250" height="270" as="geometry" />
        </mxCell>
        <mxCell id="cOtZHhIljCrcvXUx9MyU-419" value="&lt;div&gt;id&lt;span style=&quot;white-space: pre;&quot;&gt;&#x9;&lt;/span&gt;&lt;/div&gt;" style="text;html=1;strokeColor=none;fillColor=none;align=left;verticalAlign=top;spacingLeft=4;spacingRight=4;whiteSpace=wrap;overflow=hidden;rotatable=0;points=[[0,0.5],[1,0.5]];portConstraint=eastwest;" vertex="1" parent="cOtZHhIljCrcvXUx9MyU-418">
          <mxGeometry y="26" width="250" height="24" as="geometry" />
        </mxCell>
        <mxCell id="cOtZHhIljCrcvXUx9MyU-420" value="name" style="text;html=1;strokeColor=none;fillColor=none;align=left;verticalAlign=top;spacingLeft=4;spacingRight=4;whiteSpace=wrap;overflow=hidden;rotatable=0;points=[[0,0.5],[1,0.5]];portConstraint=eastwest;" vertex="1" parent="cOtZHhIljCrcvXUx9MyU-418">
          <mxGeometry y="50" width="250" height="24" as="geometry" />
        </mxCell>
        <mxCell id="cOtZHhIljCrcvXUx9MyU-421" value="type (photo_video)" style="text;html=1;strokeColor=none;fillColor=none;align=left;verticalAlign=top;spacingLeft=4;spacingRight=4;whiteSpace=wrap;overflow=hidden;rotatable=0;points=[[0,0.5],[1,0.5]];portConstraint=eastwest;" vertex="1" parent="cOtZHhIljCrcvXUx9MyU-418">
          <mxGeometry y="74" width="250" height="24" as="geometry" />
        </mxCell>
        <mxCell id="cOtZHhIljCrcvXUx9MyU-422" value="path" style="text;html=1;strokeColor=none;fillColor=none;align=left;verticalAlign=top;spacingLeft=4;spacingRight=4;whiteSpace=wrap;overflow=hidden;rotatable=0;points=[[0,0.5],[1,0.5]];portConstraint=eastwest;" vertex="1" parent="cOtZHhIljCrcvXUx9MyU-418">
          <mxGeometry y="98" width="250" height="24" as="geometry" />
        </mxCell>
        <mxCell id="cOtZHhIljCrcvXUx9MyU-423" style="edgeStyle=orthogonalEdgeStyle;rounded=0;orthogonalLoop=1;jettySize=auto;html=1;exitX=1;exitY=0.5;exitDx=0;exitDy=0;" edge="1" parent="cOtZHhIljCrcvXUx9MyU-418">
          <mxGeometry relative="1" as="geometry">
            <mxPoint x="249.99999999999977" y="206.00000000000023" as="sourcePoint" />
            <mxPoint x="249.99999999999977" y="206.00000000000023" as="targetPoint" />
          </mxGeometry>
        </mxCell>
        <mxCell id="cOtZHhIljCrcvXUx9MyU-424" value="url" style="text;html=1;strokeColor=none;fillColor=none;align=left;verticalAlign=top;spacingLeft=4;spacingRight=4;whiteSpace=wrap;overflow=hidden;rotatable=0;points=[[0,0.5],[1,0.5]];portConstraint=eastwest;" vertex="1" parent="cOtZHhIljCrcvXUx9MyU-418">
          <mxGeometry y="122" width="250" height="24" as="geometry" />
        </mxCell>
        <mxCell id="cOtZHhIljCrcvXUx9MyU-425" value="user_id" style="text;html=1;strokeColor=none;fillColor=none;align=left;verticalAlign=top;spacingLeft=4;spacingRight=4;whiteSpace=wrap;overflow=hidden;rotatable=0;points=[[0,0.5],[1,0.5]];portConstraint=eastwest;" vertex="1" parent="cOtZHhIljCrcvXUx9MyU-418">
          <mxGeometry y="146" width="250" height="24" as="geometry" />
        </mxCell>
        <mxCell id="cOtZHhIljCrcvXUx9MyU-426" value="size" style="text;html=1;strokeColor=none;fillColor=none;align=left;verticalAlign=top;spacingLeft=4;spacingRight=4;whiteSpace=wrap;overflow=hidden;rotatable=0;points=[[0,0.5],[1,0.5]];portConstraint=eastwest;" vertex="1" parent="cOtZHhIljCrcvXUx9MyU-418">
          <mxGeometry y="170" width="250" height="24" as="geometry" />
        </mxCell>
        <mxCell id="cOtZHhIljCrcvXUx9MyU-427" value="created_at" style="text;html=1;strokeColor=none;fillColor=none;align=left;verticalAlign=top;spacingLeft=4;spacingRight=4;whiteSpace=wrap;overflow=hidden;rotatable=0;points=[[0,0.5],[1,0.5]];portConstraint=eastwest;" vertex="1" parent="cOtZHhIljCrcvXUx9MyU-418">
          <mxGeometry y="194" width="250" height="24" as="geometry" />
        </mxCell>
        <mxCell id="cOtZHhIljCrcvXUx9MyU-428" value="updated_at" style="text;html=1;strokeColor=none;fillColor=none;align=left;verticalAlign=top;spacingLeft=4;spacingRight=4;whiteSpace=wrap;overflow=hidden;rotatable=0;points=[[0,0.5],[1,0.5]];portConstraint=eastwest;" vertex="1" parent="cOtZHhIljCrcvXUx9MyU-418">
          <mxGeometry y="218" width="250" height="24" as="geometry" />
        </mxCell>
        <mxCell id="cOtZHhIljCrcvXUx9MyU-429" value="cover" style="text;html=1;strokeColor=none;fillColor=none;align=left;verticalAlign=top;spacingLeft=4;spacingRight=4;whiteSpace=wrap;overflow=hidden;rotatable=0;points=[[0,0.5],[1,0.5]];portConstraint=eastwest;" vertex="1" parent="cOtZHhIljCrcvXUx9MyU-418">
          <mxGeometry y="242" width="250" height="24" as="geometry" />
        </mxCell>
        <mxCell id="cOtZHhIljCrcvXUx9MyU-431" style="edgeStyle=orthogonalEdgeStyle;rounded=0;orthogonalLoop=1;jettySize=auto;html=1;" edge="1" parent="1" source="cOtZHhIljCrcvXUx9MyU-213" target="cOtZHhIljCrcvXUx9MyU-425">
          <mxGeometry relative="1" as="geometry">
            <Array as="points">
              <mxPoint x="320" y="268" />
              <mxPoint x="320" y="90" />
              <mxPoint x="160" y="90" />
              <mxPoint x="160" y="-402" />
            </Array>
          </mxGeometry>
        </mxCell>
        <mxCell id="cOtZHhIljCrcvXUx9MyU-443" value="settings" style="swimlane;html=1;fontStyle=1;align=center;verticalAlign=top;childLayout=stackLayout;horizontal=1;startSize=26;horizontalStack=0;resizeParent=1;resizeLast=0;collapsible=1;marginBottom=0;swimlaneFillColor=#ffffff;rounded=0;shadow=0;comic=0;labelBackgroundColor=none;strokeWidth=1;fillColor=none;fontFamily=Verdana;fontSize=12" vertex="1" parent="1">
          <mxGeometry x="2050" y="210" width="250" height="157" as="geometry" />
        </mxCell>
        <mxCell id="cOtZHhIljCrcvXUx9MyU-444" value="&lt;div&gt;id&lt;span style=&quot;white-space: pre;&quot;&gt;&#x9;&lt;/span&gt;&lt;/div&gt;" style="text;html=1;strokeColor=none;fillColor=none;align=left;verticalAlign=top;spacingLeft=4;spacingRight=4;whiteSpace=wrap;overflow=hidden;rotatable=0;points=[[0,0.5],[1,0.5]];portConstraint=eastwest;" vertex="1" parent="cOtZHhIljCrcvXUx9MyU-443">
          <mxGeometry y="26" width="250" height="24" as="geometry" />
        </mxCell>
        <mxCell id="cOtZHhIljCrcvXUx9MyU-447" value="key" style="text;html=1;strokeColor=none;fillColor=none;align=left;verticalAlign=top;spacingLeft=4;spacingRight=4;whiteSpace=wrap;overflow=hidden;rotatable=0;points=[[0,0.5],[1,0.5]];portConstraint=eastwest;" vertex="1" parent="cOtZHhIljCrcvXUx9MyU-443">
          <mxGeometry y="50" width="250" height="24" as="geometry" />
        </mxCell>
        <mxCell id="cOtZHhIljCrcvXUx9MyU-461" value="vaue" style="text;html=1;strokeColor=none;fillColor=none;align=left;verticalAlign=top;spacingLeft=4;spacingRight=4;whiteSpace=wrap;overflow=hidden;rotatable=0;points=[[0,0.5],[1,0.5]];portConstraint=eastwest;" vertex="1" parent="cOtZHhIljCrcvXUx9MyU-443">
          <mxGeometry y="74" width="250" height="24" as="geometry" />
        </mxCell>
        <mxCell id="cOtZHhIljCrcvXUx9MyU-462" value="created_at" style="text;html=1;strokeColor=none;fillColor=none;align=left;verticalAlign=top;spacingLeft=4;spacingRight=4;whiteSpace=wrap;overflow=hidden;rotatable=0;points=[[0,0.5],[1,0.5]];portConstraint=eastwest;" vertex="1" parent="cOtZHhIljCrcvXUx9MyU-443">
          <mxGeometry y="98" width="250" height="24" as="geometry" />
        </mxCell>
        <mxCell id="cOtZHhIljCrcvXUx9MyU-460" value="updated_at" style="text;html=1;strokeColor=none;fillColor=none;align=left;verticalAlign=top;spacingLeft=4;spacingRight=4;whiteSpace=wrap;overflow=hidden;rotatable=0;points=[[0,0.5],[1,0.5]];portConstraint=eastwest;" vertex="1" parent="cOtZHhIljCrcvXUx9MyU-443">
          <mxGeometry y="122" width="250" height="24" as="geometry" />
        </mxCell>
        <mxCell id="cOtZHhIljCrcvXUx9MyU-449" style="edgeStyle=orthogonalEdgeStyle;rounded=0;orthogonalLoop=1;jettySize=auto;html=1;exitX=1;exitY=0.5;exitDx=0;exitDy=0;" edge="1" parent="cOtZHhIljCrcvXUx9MyU-443">
          <mxGeometry relative="1" as="geometry">
            <mxPoint x="250" y="158" as="sourcePoint" />
            <mxPoint x="250" y="158" as="targetPoint" />
          </mxGeometry>
        </mxCell>
        <mxCell id="cOtZHhIljCrcvXUx9MyU-464" value="sms" style="swimlane;html=1;fontStyle=1;align=center;verticalAlign=top;childLayout=stackLayout;horizontal=1;startSize=26;horizontalStack=0;resizeParent=1;resizeLast=0;collapsible=1;marginBottom=0;swimlaneFillColor=#ffffff;rounded=0;shadow=0;comic=0;labelBackgroundColor=none;strokeWidth=1;fillColor=none;fontFamily=Verdana;fontSize=12" vertex="1" parent="1">
          <mxGeometry x="670" y="-430" width="250" height="210" as="geometry" />
        </mxCell>
        <mxCell id="cOtZHhIljCrcvXUx9MyU-465" value="&lt;div&gt;id&lt;span style=&quot;white-space: pre;&quot;&gt;&#x9;&lt;/span&gt;&lt;/div&gt;" style="text;html=1;strokeColor=none;fillColor=none;align=left;verticalAlign=top;spacingLeft=4;spacingRight=4;whiteSpace=wrap;overflow=hidden;rotatable=0;points=[[0,0.5],[1,0.5]];portConstraint=eastwest;" vertex="1" parent="cOtZHhIljCrcvXUx9MyU-464">
          <mxGeometry y="26" width="250" height="24" as="geometry" />
        </mxCell>
        <mxCell id="cOtZHhIljCrcvXUx9MyU-466" value="expire" style="text;html=1;strokeColor=none;fillColor=none;align=left;verticalAlign=top;spacingLeft=4;spacingRight=4;whiteSpace=wrap;overflow=hidden;rotatable=0;points=[[0,0.5],[1,0.5]];portConstraint=eastwest;" vertex="1" parent="cOtZHhIljCrcvXUx9MyU-464">
          <mxGeometry y="50" width="250" height="24" as="geometry" />
        </mxCell>
        <mxCell id="cOtZHhIljCrcvXUx9MyU-467" value="code" style="text;html=1;strokeColor=none;fillColor=none;align=left;verticalAlign=top;spacingLeft=4;spacingRight=4;whiteSpace=wrap;overflow=hidden;rotatable=0;points=[[0,0.5],[1,0.5]];portConstraint=eastwest;" vertex="1" parent="cOtZHhIljCrcvXUx9MyU-464">
          <mxGeometry y="74" width="250" height="24" as="geometry" />
        </mxCell>
        <mxCell id="cOtZHhIljCrcvXUx9MyU-468" value="phone" style="text;html=1;strokeColor=none;fillColor=none;align=left;verticalAlign=top;spacingLeft=4;spacingRight=4;whiteSpace=wrap;overflow=hidden;rotatable=0;points=[[0,0.5],[1,0.5]];portConstraint=eastwest;" vertex="1" parent="cOtZHhIljCrcvXUx9MyU-464">
          <mxGeometry y="98" width="250" height="24" as="geometry" />
        </mxCell>
        <mxCell id="cOtZHhIljCrcvXUx9MyU-469" value="type" style="text;html=1;strokeColor=none;fillColor=none;align=left;verticalAlign=top;spacingLeft=4;spacingRight=4;whiteSpace=wrap;overflow=hidden;rotatable=0;points=[[0,0.5],[1,0.5]];portConstraint=eastwest;" vertex="1" parent="cOtZHhIljCrcvXUx9MyU-464">
          <mxGeometry y="122" width="250" height="24" as="geometry" />
        </mxCell>
        <mxCell id="cOtZHhIljCrcvXUx9MyU-473" style="edgeStyle=orthogonalEdgeStyle;rounded=0;orthogonalLoop=1;jettySize=auto;html=1;exitX=1;exitY=0.5;exitDx=0;exitDy=0;" edge="1" parent="cOtZHhIljCrcvXUx9MyU-464">
          <mxGeometry relative="1" as="geometry">
            <mxPoint x="250" y="158" as="sourcePoint" />
            <mxPoint x="250" y="158" as="targetPoint" />
          </mxGeometry>
        </mxCell>
        <mxCell id="cOtZHhIljCrcvXUx9MyU-477" value="created_at" style="text;html=1;strokeColor=none;fillColor=none;align=left;verticalAlign=top;spacingLeft=4;spacingRight=4;whiteSpace=wrap;overflow=hidden;rotatable=0;points=[[0,0.5],[1,0.5]];portConstraint=eastwest;" vertex="1" parent="cOtZHhIljCrcvXUx9MyU-464">
          <mxGeometry y="146" width="250" height="24" as="geometry" />
        </mxCell>
        <mxCell id="cOtZHhIljCrcvXUx9MyU-478" value="updated_at" style="text;html=1;strokeColor=none;fillColor=none;align=left;verticalAlign=top;spacingLeft=4;spacingRight=4;whiteSpace=wrap;overflow=hidden;rotatable=0;points=[[0,0.5],[1,0.5]];portConstraint=eastwest;" vertex="1" parent="cOtZHhIljCrcvXUx9MyU-464">
          <mxGeometry y="170" width="250" height="24" as="geometry" />
        </mxCell>
        <mxCell id="cOtZHhIljCrcvXUx9MyU-574" value="product_seo" style="swimlane;html=1;fontStyle=1;align=center;verticalAlign=top;childLayout=stackLayout;horizontal=1;startSize=26;horizontalStack=0;resizeParent=1;resizeLast=0;collapsible=1;marginBottom=0;swimlaneFillColor=#ffffff;rounded=0;shadow=0;comic=0;labelBackgroundColor=none;strokeWidth=1;fillColor=none;fontFamily=Verdana;fontSize=12" vertex="1" parent="1">
          <mxGeometry x="830" y="1190" width="250" height="310" as="geometry" />
        </mxCell>
        <mxCell id="cOtZHhIljCrcvXUx9MyU-575" value="&lt;div&gt;id&lt;span style=&quot;white-space: pre;&quot;&gt;&#x9;&lt;/span&gt;&lt;/div&gt;" style="text;html=1;strokeColor=none;fillColor=none;align=left;verticalAlign=top;spacingLeft=4;spacingRight=4;whiteSpace=wrap;overflow=hidden;rotatable=0;points=[[0,0.5],[1,0.5]];portConstraint=eastwest;" vertex="1" parent="cOtZHhIljCrcvXUx9MyU-574">
          <mxGeometry y="26" width="250" height="24" as="geometry" />
        </mxCell>
        <mxCell id="cOtZHhIljCrcvXUx9MyU-576" value="product_id" style="text;html=1;strokeColor=none;fillColor=none;align=left;verticalAlign=top;spacingLeft=4;spacingRight=4;whiteSpace=wrap;overflow=hidden;rotatable=0;points=[[0,0.5],[1,0.5]];portConstraint=eastwest;" vertex="1" parent="cOtZHhIljCrcvXUx9MyU-574">
          <mxGeometry y="50" width="250" height="24" as="geometry" />
        </mxCell>
        <mxCell id="cOtZHhIljCrcvXUx9MyU-580" value="slug" style="text;html=1;strokeColor=none;fillColor=none;align=left;verticalAlign=top;spacingLeft=4;spacingRight=4;whiteSpace=wrap;overflow=hidden;rotatable=0;points=[[0,0.5],[1,0.5]];portConstraint=eastwest;" vertex="1" parent="cOtZHhIljCrcvXUx9MyU-574">
          <mxGeometry y="74" width="250" height="24" as="geometry" />
        </mxCell>
        <mxCell id="cOtZHhIljCrcvXUx9MyU-582" value="title_seo" style="text;html=1;strokeColor=none;fillColor=none;align=left;verticalAlign=top;spacingLeft=4;spacingRight=4;whiteSpace=wrap;overflow=hidden;rotatable=0;points=[[0,0.5],[1,0.5]];portConstraint=eastwest;" vertex="1" parent="cOtZHhIljCrcvXUx9MyU-574">
          <mxGeometry y="98" width="250" height="24" as="geometry" />
        </mxCell>
        <mxCell id="cOtZHhIljCrcvXUx9MyU-583" value="body_seo" style="text;html=1;strokeColor=none;fillColor=none;align=left;verticalAlign=top;spacingLeft=4;spacingRight=4;whiteSpace=wrap;overflow=hidden;rotatable=0;points=[[0,0.5],[1,0.5]];portConstraint=eastwest;" vertex="1" parent="cOtZHhIljCrcvXUx9MyU-574">
          <mxGeometry y="122" width="250" height="24" as="geometry" />
        </mxCell>
        <mxCell id="cOtZHhIljCrcvXUx9MyU-584" value="key_seo" style="text;html=1;strokeColor=none;fillColor=none;align=left;verticalAlign=top;spacingLeft=4;spacingRight=4;whiteSpace=wrap;overflow=hidden;rotatable=0;points=[[0,0.5],[1,0.5]];portConstraint=eastwest;" vertex="1" parent="cOtZHhIljCrcvXUx9MyU-574">
          <mxGeometry y="146" width="250" height="24" as="geometry" />
        </mxCell>
        <mxCell id="cOtZHhIljCrcvXUx9MyU-585" value="meta" style="text;html=1;strokeColor=none;fillColor=none;align=left;verticalAlign=top;spacingLeft=4;spacingRight=4;whiteSpace=wrap;overflow=hidden;rotatable=0;points=[[0,0.5],[1,0.5]];portConstraint=eastwest;" vertex="1" parent="cOtZHhIljCrcvXUx9MyU-574">
          <mxGeometry y="170" width="250" height="24" as="geometry" />
        </mxCell>
        <mxCell id="cOtZHhIljCrcvXUx9MyU-586" value="robots" style="text;html=1;strokeColor=none;fillColor=none;align=left;verticalAlign=top;spacingLeft=4;spacingRight=4;whiteSpace=wrap;overflow=hidden;rotatable=0;points=[[0,0.5],[1,0.5]];portConstraint=eastwest;" vertex="1" parent="cOtZHhIljCrcvXUx9MyU-574">
          <mxGeometry y="194" width="250" height="24" as="geometry" />
        </mxCell>
        <mxCell id="cOtZHhIljCrcvXUx9MyU-587" value="skima" style="text;html=1;strokeColor=none;fillColor=none;align=left;verticalAlign=top;spacingLeft=4;spacingRight=4;whiteSpace=wrap;overflow=hidden;rotatable=0;points=[[0,0.5],[1,0.5]];portConstraint=eastwest;" vertex="1" parent="cOtZHhIljCrcvXUx9MyU-574">
          <mxGeometry y="218" width="250" height="24" as="geometry" />
        </mxCell>
        <mxCell id="cOtZHhIljCrcvXUx9MyU-592" style="edgeStyle=orthogonalEdgeStyle;rounded=0;orthogonalLoop=1;jettySize=auto;html=1;exitX=1;exitY=0.5;exitDx=0;exitDy=0;" edge="1" parent="cOtZHhIljCrcvXUx9MyU-574">
          <mxGeometry relative="1" as="geometry">
            <mxPoint x="250" y="254" as="sourcePoint" />
            <mxPoint x="250" y="254" as="targetPoint" />
          </mxGeometry>
        </mxCell>
        <mxCell id="cOtZHhIljCrcvXUx9MyU-609" value="image_id" style="text;html=1;strokeColor=none;fillColor=none;align=left;verticalAlign=top;spacingLeft=4;spacingRight=4;whiteSpace=wrap;overflow=hidden;rotatable=0;points=[[0,0.5],[1,0.5]];portConstraint=eastwest;" vertex="1" parent="cOtZHhIljCrcvXUx9MyU-574">
          <mxGeometry y="242" width="250" height="24" as="geometry" />
        </mxCell>
        <mxCell id="cOtZHhIljCrcvXUx9MyU-610" value="alt_image" style="text;html=1;strokeColor=none;fillColor=none;align=left;verticalAlign=top;spacingLeft=4;spacingRight=4;whiteSpace=wrap;overflow=hidden;rotatable=0;points=[[0,0.5],[1,0.5]];portConstraint=eastwest;" vertex="1" parent="cOtZHhIljCrcvXUx9MyU-574">
          <mxGeometry y="266" width="250" height="24" as="geometry" />
        </mxCell>
        <mxCell id="cOtZHhIljCrcvXUx9MyU-650" style="edgeStyle=orthogonalEdgeStyle;rounded=0;orthogonalLoop=1;jettySize=auto;html=1;entryX=0;entryY=0.5;entryDx=0;entryDy=0;" edge="1" parent="1" source="cOtZHhIljCrcvXUx9MyU-312" target="cOtZHhIljCrcvXUx9MyU-576">
          <mxGeometry relative="1" as="geometry" />
        </mxCell>
        <mxCell id="cOtZHhIljCrcvXUx9MyU-666" value="carriers" style="swimlane;html=1;fontStyle=1;align=center;verticalAlign=top;childLayout=stackLayout;horizontal=1;startSize=26;horizontalStack=0;resizeParent=1;resizeLast=0;collapsible=1;marginBottom=0;swimlaneFillColor=#ffffff;rounded=0;shadow=0;comic=0;labelBackgroundColor=none;strokeWidth=1;fillColor=none;fontFamily=Verdana;fontSize=12" vertex="1" parent="1">
          <mxGeometry x="1165" y="300" width="250" height="314" as="geometry" />
        </mxCell>
        <mxCell id="cOtZHhIljCrcvXUx9MyU-667" value="&lt;div&gt;id&lt;span style=&quot;white-space: pre;&quot;&gt;&#x9;&lt;/span&gt;&lt;/div&gt;" style="text;html=1;strokeColor=none;fillColor=none;align=left;verticalAlign=top;spacingLeft=4;spacingRight=4;whiteSpace=wrap;overflow=hidden;rotatable=0;points=[[0,0.5],[1,0.5]];portConstraint=eastwest;" vertex="1" parent="cOtZHhIljCrcvXUx9MyU-666">
          <mxGeometry y="26" width="250" height="24" as="geometry" />
        </mxCell>
        <mxCell id="cOtZHhIljCrcvXUx9MyU-668" value="name" style="text;html=1;strokeColor=none;fillColor=none;align=left;verticalAlign=top;spacingLeft=4;spacingRight=4;whiteSpace=wrap;overflow=hidden;rotatable=0;points=[[0,0.5],[1,0.5]];portConstraint=eastwest;" vertex="1" parent="cOtZHhIljCrcvXUx9MyU-666">
          <mxGeometry y="50" width="250" height="24" as="geometry" />
        </mxCell>
        <mxCell id="cOtZHhIljCrcvXUx9MyU-669" value="language" style="text;html=1;strokeColor=none;fillColor=none;align=left;verticalAlign=top;spacingLeft=4;spacingRight=4;whiteSpace=wrap;overflow=hidden;rotatable=0;points=[[0,0.5],[1,0.5]];portConstraint=eastwest;" vertex="1" parent="cOtZHhIljCrcvXUx9MyU-666">
          <mxGeometry y="74" width="250" height="24" as="geometry" />
        </mxCell>
        <mxCell id="cOtZHhIljCrcvXUx9MyU-670" value="image" style="text;html=1;strokeColor=none;fillColor=none;align=left;verticalAlign=top;spacingLeft=4;spacingRight=4;whiteSpace=wrap;overflow=hidden;rotatable=0;points=[[0,0.5],[1,0.5]];portConstraint=eastwest;" vertex="1" parent="cOtZHhIljCrcvXUx9MyU-666">
          <mxGeometry y="98" width="250" height="24" as="geometry" />
        </mxCell>
        <mxCell id="cOtZHhIljCrcvXUx9MyU-671" value="description" style="text;html=1;strokeColor=none;fillColor=none;align=left;verticalAlign=top;spacingLeft=4;spacingRight=4;whiteSpace=wrap;overflow=hidden;rotatable=0;points=[[0,0.5],[1,0.5]];portConstraint=eastwest;" vertex="1" parent="cOtZHhIljCrcvXUx9MyU-666">
          <mxGeometry y="122" width="250" height="24" as="geometry" />
        </mxCell>
        <mxCell id="cOtZHhIljCrcvXUx9MyU-672" value="price(base_price)" style="text;html=1;strokeColor=none;fillColor=none;align=left;verticalAlign=top;spacingLeft=4;spacingRight=4;whiteSpace=wrap;overflow=hidden;rotatable=0;points=[[0,0.5],[1,0.5]];portConstraint=eastwest;" vertex="1" parent="cOtZHhIljCrcvXUx9MyU-666">
          <mxGeometry y="146" width="250" height="24" as="geometry" />
        </mxCell>
        <mxCell id="cOtZHhIljCrcvXUx9MyU-673" value="limit_type(city-all-passkeraie)" style="text;html=1;strokeColor=none;fillColor=none;align=left;verticalAlign=top;spacingLeft=4;spacingRight=4;whiteSpace=wrap;overflow=hidden;rotatable=0;points=[[0,0.5],[1,0.5]];portConstraint=eastwest;" vertex="1" parent="cOtZHhIljCrcvXUx9MyU-666">
          <mxGeometry y="170" width="250" height="24" as="geometry" />
        </mxCell>
        <mxCell id="cOtZHhIljCrcvXUx9MyU-825" value="&lt;span style=&quot;color: rgb(169, 183, 198); font-family: Consolas, &amp;quot;Söhne Mono&amp;quot;, Monaco, &amp;quot;Andale Mono&amp;quot;, &amp;quot;Ubuntu Mono&amp;quot;, monospace; font-size: 14.4px; white-space: pre; background-color: rgb(40, 43, 46);&quot;&gt;currency_id&lt;/span&gt;" style="text;html=1;strokeColor=none;fillColor=none;align=left;verticalAlign=top;spacingLeft=4;spacingRight=4;whiteSpace=wrap;overflow=hidden;rotatable=0;points=[[0,0.5],[1,0.5]];portConstraint=eastwest;" vertex="1" parent="cOtZHhIljCrcvXUx9MyU-666">
          <mxGeometry y="194" width="250" height="24" as="geometry" />
        </mxCell>
        <mxCell id="cOtZHhIljCrcvXUx9MyU-674" value="city" style="text;html=1;strokeColor=none;fillColor=none;align=left;verticalAlign=top;spacingLeft=4;spacingRight=4;whiteSpace=wrap;overflow=hidden;rotatable=0;points=[[0,0.5],[1,0.5]];portConstraint=eastwest;" vertex="1" parent="cOtZHhIljCrcvXUx9MyU-666">
          <mxGeometry y="218" width="250" height="24" as="geometry" />
        </mxCell>
        <mxCell id="cOtZHhIljCrcvXUx9MyU-675" style="edgeStyle=orthogonalEdgeStyle;rounded=0;orthogonalLoop=1;jettySize=auto;html=1;exitX=1;exitY=0.5;exitDx=0;exitDy=0;" edge="1" parent="cOtZHhIljCrcvXUx9MyU-666">
          <mxGeometry relative="1" as="geometry">
            <mxPoint x="250" y="158" as="sourcePoint" />
            <mxPoint x="250" y="158" as="targetPoint" />
          </mxGeometry>
        </mxCell>
        <mxCell id="cOtZHhIljCrcvXUx9MyU-676" value="free_at" style="text;html=1;strokeColor=none;fillColor=none;align=left;verticalAlign=top;spacingLeft=4;spacingRight=4;whiteSpace=wrap;overflow=hidden;rotatable=0;points=[[0,0.5],[1,0.5]];portConstraint=eastwest;" vertex="1" parent="cOtZHhIljCrcvXUx9MyU-666">
          <mxGeometry y="242" width="250" height="24" as="geometry" />
        </mxCell>
        <mxCell id="cOtZHhIljCrcvXUx9MyU-677" value="weight&lt;div&gt;&lt;br&gt;&lt;/div&gt;" style="text;html=1;strokeColor=none;fillColor=none;align=left;verticalAlign=top;spacingLeft=4;spacingRight=4;whiteSpace=wrap;overflow=hidden;rotatable=0;points=[[0,0.5],[1,0.5]];portConstraint=eastwest;" vertex="1" parent="cOtZHhIljCrcvXUx9MyU-666">
          <mxGeometry y="266" width="250" height="24" as="geometry" />
        </mxCell>
        <mxCell id="cOtZHhIljCrcvXUx9MyU-678" value="weightPrice" style="text;html=1;strokeColor=none;fillColor=none;align=left;verticalAlign=top;spacingLeft=4;spacingRight=4;whiteSpace=wrap;overflow=hidden;rotatable=0;points=[[0,0.5],[1,0.5]];portConstraint=eastwest;" vertex="1" parent="cOtZHhIljCrcvXUx9MyU-666">
          <mxGeometry y="290" width="250" height="24" as="geometry" />
        </mxCell>
        <mxCell id="cOtZHhIljCrcvXUx9MyU-679" value="CURRENCIES" style="swimlane;html=1;fontStyle=1;align=center;verticalAlign=top;childLayout=stackLayout;horizontal=1;startSize=26;horizontalStack=0;resizeParent=1;resizeLast=0;collapsible=1;marginBottom=0;swimlaneFillColor=#ffffff;rounded=0;shadow=0;comic=0;labelBackgroundColor=none;strokeWidth=1;fillColor=none;fontFamily=Verdana;fontSize=12" vertex="1" parent="1">
          <mxGeometry x="1630" y="730" width="250" height="147" as="geometry" />
        </mxCell>
        <mxCell id="cOtZHhIljCrcvXUx9MyU-680" value="&lt;div&gt;id&lt;span style=&quot;white-space: pre;&quot;&gt;&#x9;&lt;/span&gt;&lt;/div&gt;" style="text;html=1;strokeColor=none;fillColor=none;align=left;verticalAlign=top;spacingLeft=4;spacingRight=4;whiteSpace=wrap;overflow=hidden;rotatable=0;points=[[0,0.5],[1,0.5]];portConstraint=eastwest;" vertex="1" parent="cOtZHhIljCrcvXUx9MyU-679">
          <mxGeometry y="26" width="250" height="24" as="geometry" />
        </mxCell>
        <mxCell id="cOtZHhIljCrcvXUx9MyU-681" value="name" style="text;html=1;strokeColor=none;fillColor=none;align=left;verticalAlign=top;spacingLeft=4;spacingRight=4;whiteSpace=wrap;overflow=hidden;rotatable=0;points=[[0,0.5],[1,0.5]];portConstraint=eastwest;" vertex="1" parent="cOtZHhIljCrcvXUx9MyU-679">
          <mxGeometry y="50" width="250" height="24" as="geometry" />
        </mxCell>
        <mxCell id="cOtZHhIljCrcvXUx9MyU-682" value="price" style="text;html=1;strokeColor=none;fillColor=none;align=left;verticalAlign=top;spacingLeft=4;spacingRight=4;whiteSpace=wrap;overflow=hidden;rotatable=0;points=[[0,0.5],[1,0.5]];portConstraint=eastwest;" vertex="1" parent="cOtZHhIljCrcvXUx9MyU-679">
          <mxGeometry y="74" width="250" height="24" as="geometry" />
        </mxCell>
        <mxCell id="cOtZHhIljCrcvXUx9MyU-683" value="created_at" style="text;html=1;strokeColor=none;fillColor=none;align=left;verticalAlign=top;spacingLeft=4;spacingRight=4;whiteSpace=wrap;overflow=hidden;rotatable=0;points=[[0,0.5],[1,0.5]];portConstraint=eastwest;" vertex="1" parent="cOtZHhIljCrcvXUx9MyU-679">
          <mxGeometry y="98" width="250" height="24" as="geometry" />
        </mxCell>
        <mxCell id="cOtZHhIljCrcvXUx9MyU-684" value="updated_at" style="text;html=1;strokeColor=none;fillColor=none;align=left;verticalAlign=top;spacingLeft=4;spacingRight=4;whiteSpace=wrap;overflow=hidden;rotatable=0;points=[[0,0.5],[1,0.5]];portConstraint=eastwest;" vertex="1" parent="cOtZHhIljCrcvXUx9MyU-679">
          <mxGeometry y="122" width="250" height="24" as="geometry" />
        </mxCell>
        <mxCell id="cOtZHhIljCrcvXUx9MyU-688" style="edgeStyle=orthogonalEdgeStyle;rounded=0;orthogonalLoop=1;jettySize=auto;html=1;exitX=1;exitY=0.5;exitDx=0;exitDy=0;" edge="1" parent="cOtZHhIljCrcvXUx9MyU-679">
          <mxGeometry relative="1" as="geometry">
            <mxPoint x="250" y="158" as="sourcePoint" />
            <mxPoint x="250" y="158" as="targetPoint" />
          </mxGeometry>
        </mxCell>
        <mxCell id="cOtZHhIljCrcvXUx9MyU-705" value="garenties" style="swimlane;html=1;fontStyle=1;align=center;verticalAlign=top;childLayout=stackLayout;horizontal=1;startSize=26;horizontalStack=0;resizeParent=1;resizeLast=0;collapsible=1;marginBottom=0;swimlaneFillColor=#ffffff;rounded=0;shadow=0;comic=0;labelBackgroundColor=none;strokeWidth=1;fillColor=none;fontFamily=Verdana;fontSize=12" vertex="1" parent="1">
          <mxGeometry x="340" y="820" width="140" height="110" as="geometry" />
        </mxCell>
        <mxCell id="cOtZHhIljCrcvXUx9MyU-706" value="&lt;div&gt;id&lt;span style=&quot;white-space: pre;&quot;&gt;&#x9;&lt;/span&gt;&lt;/div&gt;" style="text;html=1;strokeColor=none;fillColor=none;align=left;verticalAlign=top;spacingLeft=4;spacingRight=4;whiteSpace=wrap;overflow=hidden;rotatable=0;points=[[0,0.5],[1,0.5]];portConstraint=eastwest;" vertex="1" parent="cOtZHhIljCrcvXUx9MyU-705">
          <mxGeometry y="26" width="140" height="24" as="geometry" />
        </mxCell>
        <mxCell id="cOtZHhIljCrcvXUx9MyU-707" value="name" style="text;html=1;strokeColor=none;fillColor=none;align=left;verticalAlign=top;spacingLeft=4;spacingRight=4;whiteSpace=wrap;overflow=hidden;rotatable=0;points=[[0,0.5],[1,0.5]];portConstraint=eastwest;" vertex="1" parent="cOtZHhIljCrcvXUx9MyU-705">
          <mxGeometry y="50" width="140" height="24" as="geometry" />
        </mxCell>
        <mxCell id="cOtZHhIljCrcvXUx9MyU-708" value="language" style="text;html=1;strokeColor=none;fillColor=none;align=left;verticalAlign=top;spacingLeft=4;spacingRight=4;whiteSpace=wrap;overflow=hidden;rotatable=0;points=[[0,0.5],[1,0.5]];portConstraint=eastwest;" vertex="1" parent="cOtZHhIljCrcvXUx9MyU-705">
          <mxGeometry y="74" width="140" height="24" as="geometry" />
        </mxCell>
        <mxCell id="cOtZHhIljCrcvXUx9MyU-714" style="edgeStyle=orthogonalEdgeStyle;rounded=0;orthogonalLoop=1;jettySize=auto;html=1;exitX=1;exitY=0.5;exitDx=0;exitDy=0;" edge="1" parent="cOtZHhIljCrcvXUx9MyU-705">
          <mxGeometry relative="1" as="geometry">
            <mxPoint x="250" y="158" as="sourcePoint" />
            <mxPoint x="250" y="158" as="targetPoint" />
          </mxGeometry>
        </mxCell>
        <mxCell id="cOtZHhIljCrcvXUx9MyU-730" value="categories" style="swimlane;html=1;fontStyle=1;align=center;verticalAlign=top;childLayout=stackLayout;horizontal=1;startSize=26;horizontalStack=0;resizeParent=1;resizeLast=0;collapsible=1;marginBottom=0;swimlaneFillColor=#ffffff;rounded=0;shadow=0;comic=0;labelBackgroundColor=none;strokeWidth=1;fillColor=none;fontFamily=Verdana;fontSize=12" vertex="1" parent="1">
          <mxGeometry x="1200" y="640" width="180" height="226" as="geometry" />
        </mxCell>
        <mxCell id="cOtZHhIljCrcvXUx9MyU-731" value="&lt;div&gt;id&lt;span style=&quot;white-space: pre;&quot;&gt;&#x9;&lt;/span&gt;&lt;/div&gt;" style="text;html=1;strokeColor=none;fillColor=none;align=left;verticalAlign=top;spacingLeft=4;spacingRight=4;whiteSpace=wrap;overflow=hidden;rotatable=0;points=[[0,0.5],[1,0.5]];portConstraint=eastwest;" vertex="1" parent="cOtZHhIljCrcvXUx9MyU-730">
          <mxGeometry y="26" width="180" height="24" as="geometry" />
        </mxCell>
        <mxCell id="cOtZHhIljCrcvXUx9MyU-737" value="category_nameSeo" style="text;html=1;strokeColor=none;fillColor=none;align=left;verticalAlign=top;spacingLeft=4;spacingRight=4;whiteSpace=wrap;overflow=hidden;rotatable=0;points=[[0,0.5],[1,0.5]];portConstraint=eastwest;" vertex="1" parent="cOtZHhIljCrcvXUx9MyU-730">
          <mxGeometry y="50" width="180" height="24" as="geometry" />
        </mxCell>
        <mxCell id="cOtZHhIljCrcvXUx9MyU-741" value="slug" style="text;html=1;strokeColor=none;fillColor=none;align=left;verticalAlign=top;spacingLeft=4;spacingRight=4;whiteSpace=wrap;overflow=hidden;rotatable=0;points=[[0,0.5],[1,0.5]];portConstraint=eastwest;" vertex="1" parent="cOtZHhIljCrcvXUx9MyU-730">
          <mxGeometry y="74" width="180" height="24" as="geometry" />
        </mxCell>
        <mxCell id="cOtZHhIljCrcvXUx9MyU-739" value="category_bodySeo" style="text;html=1;strokeColor=none;fillColor=none;align=left;verticalAlign=top;spacingLeft=4;spacingRight=4;whiteSpace=wrap;overflow=hidden;rotatable=0;points=[[0,0.5],[1,0.5]];portConstraint=eastwest;" vertex="1" parent="cOtZHhIljCrcvXUx9MyU-730">
          <mxGeometry y="98" width="180" height="24" as="geometry" />
        </mxCell>
        <mxCell id="cOtZHhIljCrcvXUx9MyU-738" value="category_body&lt;div&gt;&lt;br&gt;&lt;/div&gt;" style="text;html=1;strokeColor=none;fillColor=none;align=left;verticalAlign=top;spacingLeft=4;spacingRight=4;whiteSpace=wrap;overflow=hidden;rotatable=0;points=[[0,0.5],[1,0.5]];portConstraint=eastwest;" vertex="1" parent="cOtZHhIljCrcvXUx9MyU-730">
          <mxGeometry y="122" width="180" height="24" as="geometry" />
        </mxCell>
        <mxCell id="cOtZHhIljCrcvXUx9MyU-733" value="languages" style="text;html=1;strokeColor=none;fillColor=none;align=left;verticalAlign=top;spacingLeft=4;spacingRight=4;whiteSpace=wrap;overflow=hidden;rotatable=0;points=[[0,0.5],[1,0.5]];portConstraint=eastwest;" vertex="1" parent="cOtZHhIljCrcvXUx9MyU-730">
          <mxGeometry y="146" width="180" height="24" as="geometry" />
        </mxCell>
        <mxCell id="cOtZHhIljCrcvXUx9MyU-734" value="updated_at" style="text;html=1;strokeColor=none;fillColor=none;align=left;verticalAlign=top;spacingLeft=4;spacingRight=4;whiteSpace=wrap;overflow=hidden;rotatable=0;points=[[0,0.5],[1,0.5]];portConstraint=eastwest;" vertex="1" parent="cOtZHhIljCrcvXUx9MyU-730">
          <mxGeometry y="170" width="180" height="24" as="geometry" />
        </mxCell>
        <mxCell id="cOtZHhIljCrcvXUx9MyU-735" style="edgeStyle=orthogonalEdgeStyle;rounded=0;orthogonalLoop=1;jettySize=auto;html=1;exitX=1;exitY=0.5;exitDx=0;exitDy=0;" edge="1" parent="cOtZHhIljCrcvXUx9MyU-730" source="cOtZHhIljCrcvXUx9MyU-734" target="cOtZHhIljCrcvXUx9MyU-734">
          <mxGeometry relative="1" as="geometry" />
        </mxCell>
        <mxCell id="cOtZHhIljCrcvXUx9MyU-736" value="created_at" style="text;html=1;strokeColor=none;fillColor=none;align=left;verticalAlign=top;spacingLeft=4;spacingRight=4;whiteSpace=wrap;overflow=hidden;rotatable=0;points=[[0,0.5],[1,0.5]];portConstraint=eastwest;" vertex="1" parent="cOtZHhIljCrcvXUx9MyU-730">
          <mxGeometry y="194" width="180" height="24" as="geometry" />
        </mxCell>
        <mxCell id="cOtZHhIljCrcvXUx9MyU-744" style="edgeStyle=orthogonalEdgeStyle;rounded=0;orthogonalLoop=1;jettySize=auto;html=1;entryX=0;entryY=0.5;entryDx=0;entryDy=0;" edge="1" parent="1" source="cOtZHhIljCrcvXUx9MyU-341" target="cOtZHhIljCrcvXUx9MyU-731">
          <mxGeometry relative="1" as="geometry" />
        </mxCell>
        <mxCell id="cOtZHhIljCrcvXUx9MyU-745" style="edgeStyle=orthogonalEdgeStyle;rounded=0;orthogonalLoop=1;jettySize=auto;html=1;" edge="1" parent="1" source="cOtZHhIljCrcvXUx9MyU-335" target="cOtZHhIljCrcvXUx9MyU-731">
          <mxGeometry relative="1" as="geometry" />
        </mxCell>
        <mxCell id="cOtZHhIljCrcvXUx9MyU-746" value="links" style="swimlane;html=1;fontStyle=1;align=center;verticalAlign=top;childLayout=stackLayout;horizontal=1;startSize=26;horizontalStack=0;resizeParent=1;resizeLast=0;collapsible=1;marginBottom=0;swimlaneFillColor=#ffffff;rounded=0;shadow=0;comic=0;labelBackgroundColor=none;strokeWidth=1;fillColor=none;fontFamily=Verdana;fontSize=12" vertex="1" parent="1">
          <mxGeometry x="1780" y="210" width="250" height="250" as="geometry" />
        </mxCell>
        <mxCell id="cOtZHhIljCrcvXUx9MyU-747" value="&lt;div&gt;id&lt;span style=&quot;white-space: pre;&quot;&gt;&#x9;&lt;/span&gt;&lt;/div&gt;" style="text;html=1;strokeColor=none;fillColor=none;align=left;verticalAlign=top;spacingLeft=4;spacingRight=4;whiteSpace=wrap;overflow=hidden;rotatable=0;points=[[0,0.5],[1,0.5]];portConstraint=eastwest;" vertex="1" parent="cOtZHhIljCrcvXUx9MyU-746">
          <mxGeometry y="26" width="250" height="24" as="geometry" />
        </mxCell>
        <mxCell id="cOtZHhIljCrcvXUx9MyU-748" value="name" style="text;html=1;strokeColor=none;fillColor=none;align=left;verticalAlign=top;spacingLeft=4;spacingRight=4;whiteSpace=wrap;overflow=hidden;rotatable=0;points=[[0,0.5],[1,0.5]];portConstraint=eastwest;" vertex="1" parent="cOtZHhIljCrcvXUx9MyU-746">
          <mxGeometry y="50" width="250" height="24" as="geometry" />
        </mxCell>
        <mxCell id="cOtZHhIljCrcvXUx9MyU-749" value="language" style="text;html=1;strokeColor=none;fillColor=none;align=left;verticalAlign=top;spacingLeft=4;spacingRight=4;whiteSpace=wrap;overflow=hidden;rotatable=0;points=[[0,0.5],[1,0.5]];portConstraint=eastwest;" vertex="1" parent="cOtZHhIljCrcvXUx9MyU-746">
          <mxGeometry y="74" width="250" height="24" as="geometry" />
        </mxCell>
        <mxCell id="cOtZHhIljCrcvXUx9MyU-750" value="tooltip" style="text;html=1;strokeColor=none;fillColor=none;align=left;verticalAlign=top;spacingLeft=4;spacingRight=4;whiteSpace=wrap;overflow=hidden;rotatable=0;points=[[0,0.5],[1,0.5]];portConstraint=eastwest;" vertex="1" parent="cOtZHhIljCrcvXUx9MyU-746">
          <mxGeometry y="98" width="250" height="24" as="geometry" />
        </mxCell>
        <mxCell id="cOtZHhIljCrcvXUx9MyU-751" value="slug" style="text;html=1;strokeColor=none;fillColor=none;align=left;verticalAlign=top;spacingLeft=4;spacingRight=4;whiteSpace=wrap;overflow=hidden;rotatable=0;points=[[0,0.5],[1,0.5]];portConstraint=eastwest;" vertex="1" parent="cOtZHhIljCrcvXUx9MyU-746">
          <mxGeometry y="122" width="250" height="24" as="geometry" />
        </mxCell>
        <mxCell id="cOtZHhIljCrcvXUx9MyU-752" style="edgeStyle=orthogonalEdgeStyle;rounded=0;orthogonalLoop=1;jettySize=auto;html=1;exitX=1;exitY=0.5;exitDx=0;exitDy=0;" edge="1" parent="cOtZHhIljCrcvXUx9MyU-746">
          <mxGeometry relative="1" as="geometry">
            <mxPoint x="250" y="158" as="sourcePoint" />
            <mxPoint x="250" y="158" as="targetPoint" />
          </mxGeometry>
        </mxCell>
        <mxCell id="cOtZHhIljCrcvXUx9MyU-753" value="number" style="text;html=1;strokeColor=none;fillColor=none;align=left;verticalAlign=top;spacingLeft=4;spacingRight=4;whiteSpace=wrap;overflow=hidden;rotatable=0;points=[[0,0.5],[1,0.5]];portConstraint=eastwest;" vertex="1" parent="cOtZHhIljCrcvXUx9MyU-746">
          <mxGeometry y="146" width="250" height="24" as="geometry" />
        </mxCell>
        <mxCell id="cOtZHhIljCrcvXUx9MyU-755" value="parent_id" style="text;html=1;strokeColor=none;fillColor=none;align=left;verticalAlign=top;spacingLeft=4;spacingRight=4;whiteSpace=wrap;overflow=hidden;rotatable=0;points=[[0,0.5],[1,0.5]];portConstraint=eastwest;" vertex="1" parent="cOtZHhIljCrcvXUx9MyU-746">
          <mxGeometry y="170" width="250" height="24" as="geometry" />
        </mxCell>
        <mxCell id="cOtZHhIljCrcvXUx9MyU-757" value="created_at" style="text;html=1;strokeColor=none;fillColor=none;align=left;verticalAlign=top;spacingLeft=4;spacingRight=4;whiteSpace=wrap;overflow=hidden;rotatable=0;points=[[0,0.5],[1,0.5]];portConstraint=eastwest;" vertex="1" parent="cOtZHhIljCrcvXUx9MyU-746">
          <mxGeometry y="194" width="250" height="24" as="geometry" />
        </mxCell>
        <mxCell id="cOtZHhIljCrcvXUx9MyU-754" value="updated_at" style="text;html=1;strokeColor=none;fillColor=none;align=left;verticalAlign=top;spacingLeft=4;spacingRight=4;whiteSpace=wrap;overflow=hidden;rotatable=0;points=[[0,0.5],[1,0.5]];portConstraint=eastwest;" vertex="1" parent="cOtZHhIljCrcvXUx9MyU-746">
          <mxGeometry y="218" width="250" height="24" as="geometry" />
        </mxCell>
        <mxCell id="cOtZHhIljCrcvXUx9MyU-758" value="product_price" style="swimlane;html=1;fontStyle=1;align=center;verticalAlign=top;childLayout=stackLayout;horizontal=1;startSize=26;horizontalStack=0;resizeParent=1;resizeLast=0;collapsible=1;marginBottom=0;swimlaneFillColor=#ffffff;rounded=0;shadow=0;comic=0;labelBackgroundColor=none;strokeWidth=1;fillColor=none;fontFamily=Verdana;fontSize=12" vertex="1" parent="1">
          <mxGeometry x="520" y="1210" width="250" height="226" as="geometry" />
        </mxCell>
        <mxCell id="cOtZHhIljCrcvXUx9MyU-759" value="&lt;div&gt;id&lt;span style=&quot;white-space: pre;&quot;&gt;&#x9;&lt;/span&gt;&lt;/div&gt;" style="text;html=1;strokeColor=none;fillColor=none;align=left;verticalAlign=top;spacingLeft=4;spacingRight=4;whiteSpace=wrap;overflow=hidden;rotatable=0;points=[[0,0.5],[1,0.5]];portConstraint=eastwest;" vertex="1" parent="cOtZHhIljCrcvXUx9MyU-758">
          <mxGeometry y="26" width="250" height="24" as="geometry" />
        </mxCell>
        <mxCell id="cOtZHhIljCrcvXUx9MyU-817" value="applied_to(&lt;span style=&quot;color: rgb(128, 128, 128); font-family: Consolas, &amp;quot;Söhne Mono&amp;quot;, Monaco, &amp;quot;Andale Mono&amp;quot;, &amp;quot;Ubuntu Mono&amp;quot;, monospace; font-size: 14.4px; white-space: pre; background-color: rgb(40, 43, 46);&quot;&gt;&#39;product&#39;, &#39;color&#39;, &#39;size&#39;, or &#39;variation&#39;)&lt;/span&gt;" style="text;html=1;strokeColor=none;fillColor=none;align=left;verticalAlign=top;spacingLeft=4;spacingRight=4;whiteSpace=wrap;overflow=hidden;rotatable=0;points=[[0,0.5],[1,0.5]];portConstraint=eastwest;" vertex="1" parent="cOtZHhIljCrcvXUx9MyU-758">
          <mxGeometry y="50" width="250" height="24" as="geometry" />
        </mxCell>
        <mxCell id="cOtZHhIljCrcvXUx9MyU-767" value="product_quantity" style="text;html=1;strokeColor=none;fillColor=none;align=left;verticalAlign=top;spacingLeft=4;spacingRight=4;whiteSpace=wrap;overflow=hidden;rotatable=0;points=[[0,0.5],[1,0.5]];portConstraint=eastwest;" vertex="1" parent="cOtZHhIljCrcvXUx9MyU-758">
          <mxGeometry y="74" width="250" height="24" as="geometry" />
        </mxCell>
        <mxCell id="cOtZHhIljCrcvXUx9MyU-769" style="edgeStyle=orthogonalEdgeStyle;rounded=0;orthogonalLoop=1;jettySize=auto;html=1;exitX=1;exitY=0.5;exitDx=0;exitDy=0;" edge="1" parent="cOtZHhIljCrcvXUx9MyU-758">
          <mxGeometry relative="1" as="geometry">
            <mxPoint x="250" y="110" as="sourcePoint" />
            <mxPoint x="250" y="110" as="targetPoint" />
          </mxGeometry>
        </mxCell>
        <mxCell id="cOtZHhIljCrcvXUx9MyU-774" value="prouct_price" style="text;html=1;strokeColor=none;fillColor=none;align=left;verticalAlign=top;spacingLeft=4;spacingRight=4;whiteSpace=wrap;overflow=hidden;rotatable=0;points=[[0,0.5],[1,0.5]];portConstraint=eastwest;" vertex="1" parent="cOtZHhIljCrcvXUx9MyU-758">
          <mxGeometry y="98" width="250" height="24" as="geometry" />
        </mxCell>
        <mxCell id="cOtZHhIljCrcvXUx9MyU-819" value="variently(true_false)" style="text;html=1;strokeColor=none;fillColor=none;align=left;verticalAlign=top;spacingLeft=4;spacingRight=4;whiteSpace=wrap;overflow=hidden;rotatable=0;points=[[0,0.5],[1,0.5]];portConstraint=eastwest;" vertex="1" parent="cOtZHhIljCrcvXUx9MyU-758">
          <mxGeometry y="122" width="250" height="24" as="geometry" />
        </mxCell>
        <mxCell id="cOtZHhIljCrcvXUx9MyU-777" value="&lt;span style=&quot;color: rgb(169, 183, 198); font-family: Consolas, &amp;quot;Söhne Mono&amp;quot;, Monaco, &amp;quot;Andale Mono&amp;quot;, &amp;quot;Ubuntu Mono&amp;quot;, monospace; font-size: 14.4px; white-space: pre; background-color: rgb(40, 43, 46);&quot;&gt;variation_id &lt;/span&gt;" style="text;html=1;strokeColor=none;fillColor=none;align=left;verticalAlign=top;spacingLeft=4;spacingRight=4;whiteSpace=wrap;overflow=hidden;rotatable=0;points=[[0,0.5],[1,0.5]];portConstraint=eastwest;" vertex="1" parent="cOtZHhIljCrcvXUx9MyU-758">
          <mxGeometry y="146" width="250" height="24" as="geometry" />
        </mxCell>
        <mxCell id="cOtZHhIljCrcvXUx9MyU-815" value="&lt;span style=&quot;color: rgb(169, 183, 198); font-family: Consolas, &amp;quot;Söhne Mono&amp;quot;, Monaco, &amp;quot;Andale Mono&amp;quot;, &amp;quot;Ubuntu Mono&amp;quot;, monospace; font-size: 14.4px; white-space: pre; background-color: rgb(40, 43, 46);&quot;&gt;product_id &lt;/span&gt;" style="text;html=1;strokeColor=none;fillColor=none;align=left;verticalAlign=top;spacingLeft=4;spacingRight=4;whiteSpace=wrap;overflow=hidden;rotatable=0;points=[[0,0.5],[1,0.5]];portConstraint=eastwest;" vertex="1" parent="cOtZHhIljCrcvXUx9MyU-758">
          <mxGeometry y="170" width="250" height="24" as="geometry" />
        </mxCell>
        <mxCell id="cOtZHhIljCrcvXUx9MyU-816" value="&lt;span style=&quot;color: rgb(169, 183, 198); font-family: Consolas, &amp;quot;Söhne Mono&amp;quot;, Monaco, &amp;quot;Andale Mono&amp;quot;, &amp;quot;Ubuntu Mono&amp;quot;, monospace; font-size: 14.4px; white-space: pre; background-color: rgb(40, 43, 46);&quot;&gt;currency_id&lt;/span&gt;" style="text;html=1;strokeColor=none;fillColor=none;align=left;verticalAlign=top;spacingLeft=4;spacingRight=4;whiteSpace=wrap;overflow=hidden;rotatable=0;points=[[0,0.5],[1,0.5]];portConstraint=eastwest;" vertex="1" parent="cOtZHhIljCrcvXUx9MyU-758">
          <mxGeometry y="194" width="250" height="24" as="geometry" />
        </mxCell>
        <mxCell id="cOtZHhIljCrcvXUx9MyU-787" value="product_varients" style="swimlane;html=1;fontStyle=1;align=center;verticalAlign=top;childLayout=stackLayout;horizontal=1;startSize=26;horizontalStack=0;resizeParent=1;resizeLast=0;collapsible=1;marginBottom=0;swimlaneFillColor=#ffffff;rounded=0;shadow=0;comic=0;labelBackgroundColor=none;strokeWidth=1;fillColor=none;fontFamily=Verdana;fontSize=12" vertex="1" parent="1">
          <mxGeometry x="210" y="1210" width="250" height="150" as="geometry" />
        </mxCell>
        <mxCell id="cOtZHhIljCrcvXUx9MyU-788" value="&lt;div&gt;id&lt;span style=&quot;white-space: pre;&quot;&gt;&#x9;&lt;/span&gt;&lt;/div&gt;" style="text;html=1;strokeColor=none;fillColor=none;align=left;verticalAlign=top;spacingLeft=4;spacingRight=4;whiteSpace=wrap;overflow=hidden;rotatable=0;points=[[0,0.5],[1,0.5]];portConstraint=eastwest;" vertex="1" parent="cOtZHhIljCrcvXUx9MyU-787">
          <mxGeometry y="26" width="250" height="24" as="geometry" />
        </mxCell>
        <mxCell id="cOtZHhIljCrcvXUx9MyU-789" value="&lt;span style=&quot;color: rgb(169, 183, 198); font-family: Consolas, &amp;quot;Söhne Mono&amp;quot;, Monaco, &amp;quot;Andale Mono&amp;quot;, &amp;quot;Ubuntu Mono&amp;quot;, monospace; font-size: 14.4px; white-space: pre; background-color: rgb(40, 43, 46);&quot;&gt;product_id &lt;/span&gt;" style="text;html=1;strokeColor=none;fillColor=none;align=left;verticalAlign=top;spacingLeft=4;spacingRight=4;whiteSpace=wrap;overflow=hidden;rotatable=0;points=[[0,0.5],[1,0.5]];portConstraint=eastwest;" vertex="1" parent="cOtZHhIljCrcvXUx9MyU-787">
          <mxGeometry y="50" width="250" height="24" as="geometry" />
        </mxCell>
        <mxCell id="cOtZHhIljCrcvXUx9MyU-790" value="color(unique)" style="text;html=1;strokeColor=none;fillColor=none;align=left;verticalAlign=top;spacingLeft=4;spacingRight=4;whiteSpace=wrap;overflow=hidden;rotatable=0;points=[[0,0.5],[1,0.5]];portConstraint=eastwest;" vertex="1" parent="cOtZHhIljCrcvXUx9MyU-787">
          <mxGeometry y="74" width="250" height="24" as="geometry" />
        </mxCell>
        <mxCell id="cOtZHhIljCrcvXUx9MyU-791" value="size(unique)" style="text;html=1;strokeColor=none;fillColor=none;align=left;verticalAlign=top;spacingLeft=4;spacingRight=4;whiteSpace=wrap;overflow=hidden;rotatable=0;points=[[0,0.5],[1,0.5]];portConstraint=eastwest;" vertex="1" parent="cOtZHhIljCrcvXUx9MyU-787">
          <mxGeometry y="98" width="250" height="24" as="geometry" />
        </mxCell>
        <mxCell id="cOtZHhIljCrcvXUx9MyU-798" style="edgeStyle=orthogonalEdgeStyle;rounded=0;orthogonalLoop=1;jettySize=auto;html=1;exitX=1;exitY=0.5;exitDx=0;exitDy=0;" edge="1" parent="cOtZHhIljCrcvXUx9MyU-787">
          <mxGeometry relative="1" as="geometry">
            <mxPoint x="250" y="254" as="sourcePoint" />
            <mxPoint x="250" y="254" as="targetPoint" />
          </mxGeometry>
        </mxCell>
        <mxCell id="cOtZHhIljCrcvXUx9MyU-818" value="product_quantity" style="text;html=1;strokeColor=none;fillColor=none;align=left;verticalAlign=top;spacingLeft=4;spacingRight=4;whiteSpace=wrap;overflow=hidden;rotatable=0;points=[[0,0.5],[1,0.5]];portConstraint=eastwest;" vertex="1" parent="cOtZHhIljCrcvXUx9MyU-787">
          <mxGeometry y="122" width="250" height="24" as="geometry" />
        </mxCell>
        <mxCell id="cOtZHhIljCrcvXUx9MyU-820" style="edgeStyle=orthogonalEdgeStyle;rounded=0;orthogonalLoop=1;jettySize=auto;html=1;entryX=-0.015;entryY=0.913;entryDx=0;entryDy=0;entryPerimeter=0;" edge="1" parent="1" source="cOtZHhIljCrcvXUx9MyU-789" target="cOtZHhIljCrcvXUx9MyU-312">
          <mxGeometry relative="1" as="geometry" />
        </mxCell>
        <mxCell id="cOtZHhIljCrcvXUx9MyU-821" style="edgeStyle=orthogonalEdgeStyle;rounded=0;orthogonalLoop=1;jettySize=auto;html=1;" edge="1" parent="1" source="cOtZHhIljCrcvXUx9MyU-777" target="cOtZHhIljCrcvXUx9MyU-788">
          <mxGeometry relative="1" as="geometry" />
        </mxCell>
        <mxCell id="cOtZHhIljCrcvXUx9MyU-823" style="edgeStyle=orthogonalEdgeStyle;rounded=0;orthogonalLoop=1;jettySize=auto;html=1;entryX=1;entryY=0.5;entryDx=0;entryDy=0;" edge="1" parent="1" source="cOtZHhIljCrcvXUx9MyU-815" target="cOtZHhIljCrcvXUx9MyU-312">
          <mxGeometry relative="1" as="geometry" />
        </mxCell>
        <mxCell id="cOtZHhIljCrcvXUx9MyU-824" style="edgeStyle=orthogonalEdgeStyle;rounded=0;orthogonalLoop=1;jettySize=auto;html=1;entryX=0.876;entryY=1.051;entryDx=0;entryDy=0;entryPerimeter=0;exitX=0;exitY=0.5;exitDx=0;exitDy=0;" edge="1" parent="1" source="cOtZHhIljCrcvXUx9MyU-680" target="cOtZHhIljCrcvXUx9MyU-816">
          <mxGeometry relative="1" as="geometry">
            <mxPoint x="1800" y="1230" as="targetPoint" />
            <mxPoint x="1755" y="910" as="sourcePoint" />
            <Array as="points">
              <mxPoint x="1550" y="768" />
              <mxPoint x="1550" y="970" />
              <mxPoint x="1241" y="970" />
              <mxPoint x="1241" y="1540" />
              <mxPoint x="770" y="1540" />
              <mxPoint x="770" y="1429" />
            </Array>
          </mxGeometry>
        </mxCell>
        <mxCell id="cOtZHhIljCrcvXUx9MyU-826" style="edgeStyle=orthogonalEdgeStyle;rounded=0;orthogonalLoop=1;jettySize=auto;html=1;entryX=0;entryY=0.5;entryDx=0;entryDy=0;" edge="1" parent="1" source="cOtZHhIljCrcvXUx9MyU-825" target="cOtZHhIljCrcvXUx9MyU-680">
          <mxGeometry relative="1" as="geometry" />
        </mxCell>
        <mxCell id="cOtZHhIljCrcvXUx9MyU-828" value="transactions" style="swimlane;html=1;fontStyle=1;align=center;verticalAlign=top;childLayout=stackLayout;horizontal=1;startSize=26;horizontalStack=0;resizeParent=1;resizeLast=0;collapsible=1;marginBottom=0;swimlaneFillColor=#ffffff;rounded=0;shadow=0;comic=0;labelBackgroundColor=none;strokeWidth=1;fillColor=none;fontFamily=Verdana;fontSize=12" vertex="1" parent="1">
          <mxGeometry x="2160" y="1130" width="250" height="218" as="geometry" />
        </mxCell>
        <mxCell id="cOtZHhIljCrcvXUx9MyU-829" value="&lt;div&gt;id&lt;span style=&quot;white-space: pre;&quot;&gt;&#x9;&lt;/span&gt;&lt;/div&gt;" style="text;html=1;strokeColor=none;fillColor=none;align=left;verticalAlign=top;spacingLeft=4;spacingRight=4;whiteSpace=wrap;overflow=hidden;rotatable=0;points=[[0,0.5],[1,0.5]];portConstraint=eastwest;" vertex="1" parent="cOtZHhIljCrcvXUx9MyU-828">
          <mxGeometry y="26" width="250" height="24" as="geometry" />
        </mxCell>
        <mxCell id="cOtZHhIljCrcvXUx9MyU-830" value="&lt;span style=&quot;color: rgb(255, 255, 255); font-family: AzarMehr, sans-serif; font-size: 16px; background-color: rgb(33, 33, 33);&quot;&gt;user_id&lt;/span&gt;" style="text;html=1;strokeColor=none;fillColor=none;align=left;verticalAlign=top;spacingLeft=4;spacingRight=4;whiteSpace=wrap;overflow=hidden;rotatable=0;points=[[0,0.5],[1,0.5]];portConstraint=eastwest;" vertex="1" parent="cOtZHhIljCrcvXUx9MyU-828">
          <mxGeometry y="50" width="250" height="24" as="geometry" />
        </mxCell>
        <mxCell id="cOtZHhIljCrcvXUx9MyU-831" value="&lt;span style=&quot;color: rgb(255, 255, 255); font-family: AzarMehr, sans-serif; font-size: 16px; background-color: rgb(33, 33, 33);&quot;&gt;order_id&lt;/span&gt;" style="text;html=1;strokeColor=none;fillColor=none;align=left;verticalAlign=top;spacingLeft=4;spacingRight=4;whiteSpace=wrap;overflow=hidden;rotatable=0;points=[[0,0.5],[1,0.5]];portConstraint=eastwest;" vertex="1" parent="cOtZHhIljCrcvXUx9MyU-828">
          <mxGeometry y="74" width="250" height="24" as="geometry" />
        </mxCell>
        <mxCell id="cOtZHhIljCrcvXUx9MyU-871" value="&lt;span style=&quot;color: rgb(255, 255, 255); font-family: AzarMehr, sans-serif; font-size: 16px; background-color: rgb(33, 33, 33);&quot;&gt;amount&lt;/span&gt;" style="text;html=1;strokeColor=none;fillColor=none;align=left;verticalAlign=top;spacingLeft=4;spacingRight=4;whiteSpace=wrap;overflow=hidden;rotatable=0;points=[[0,0.5],[1,0.5]];portConstraint=eastwest;" vertex="1" parent="cOtZHhIljCrcvXUx9MyU-828">
          <mxGeometry y="98" width="250" height="24" as="geometry" />
        </mxCell>
        <mxCell id="cOtZHhIljCrcvXUx9MyU-900" value="&lt;span style=&quot;color: rgb(255, 255, 255); font-family: AzarMehr, sans-serif; font-size: 16px; background-color: rgb(33, 33, 33);&quot;&gt;gate&lt;/span&gt;" style="text;html=1;strokeColor=none;fillColor=none;align=left;verticalAlign=top;spacingLeft=4;spacingRight=4;whiteSpace=wrap;overflow=hidden;rotatable=0;points=[[0,0.5],[1,0.5]];portConstraint=eastwest;" vertex="1" parent="cOtZHhIljCrcvXUx9MyU-828">
          <mxGeometry y="122" width="250" height="24" as="geometry" />
        </mxCell>
        <mxCell id="cOtZHhIljCrcvXUx9MyU-901" value="&lt;span style=&quot;color: rgb(255, 255, 255); font-family: AzarMehr, sans-serif; font-size: 16px; background-color: rgb(33, 33, 33);&quot;&gt;status&lt;/span&gt;" style="text;html=1;strokeColor=none;fillColor=none;align=left;verticalAlign=top;spacingLeft=4;spacingRight=4;whiteSpace=wrap;overflow=hidden;rotatable=0;points=[[0,0.5],[1,0.5]];portConstraint=eastwest;" vertex="1" parent="cOtZHhIljCrcvXUx9MyU-828">
          <mxGeometry y="146" width="250" height="24" as="geometry" />
        </mxCell>
        <mxCell id="cOtZHhIljCrcvXUx9MyU-875" value="&lt;span style=&quot;color: rgb(255, 255, 255); font-family: AzarMehr, sans-serif; font-size: 16px; background-color: rgb(33, 33, 33);&quot;&gt;status&lt;/span&gt;" style="text;html=1;strokeColor=none;fillColor=none;align=left;verticalAlign=top;spacingLeft=4;spacingRight=4;whiteSpace=wrap;overflow=hidden;rotatable=0;points=[[0,0.5],[1,0.5]];portConstraint=eastwest;" vertex="1" parent="cOtZHhIljCrcvXUx9MyU-828">
          <mxGeometry y="170" width="250" height="24" as="geometry" />
        </mxCell>
        <mxCell id="cOtZHhIljCrcvXUx9MyU-834" style="edgeStyle=orthogonalEdgeStyle;rounded=0;orthogonalLoop=1;jettySize=auto;html=1;exitX=1;exitY=0.5;exitDx=0;exitDy=0;" edge="1" parent="cOtZHhIljCrcvXUx9MyU-828">
          <mxGeometry relative="1" as="geometry">
            <mxPoint x="250" y="158" as="sourcePoint" />
            <mxPoint x="250" y="158" as="targetPoint" />
          </mxGeometry>
        </mxCell>
        <mxCell id="cOtZHhIljCrcvXUx9MyU-838" value="updated_at" style="text;html=1;strokeColor=none;fillColor=none;align=left;verticalAlign=top;spacingLeft=4;spacingRight=4;whiteSpace=wrap;overflow=hidden;rotatable=0;points=[[0,0.5],[1,0.5]];portConstraint=eastwest;" vertex="1" parent="cOtZHhIljCrcvXUx9MyU-828">
          <mxGeometry y="194" width="250" height="24" as="geometry" />
        </mxCell>
        <mxCell id="cOtZHhIljCrcvXUx9MyU-839" value="cancel" style="swimlane;html=1;fontStyle=1;align=center;verticalAlign=top;childLayout=stackLayout;horizontal=1;startSize=20;horizontalStack=0;resizeParent=1;resizeLast=0;collapsible=1;marginBottom=0;swimlaneFillColor=#ffffff;rounded=0;shadow=0;comic=0;labelBackgroundColor=none;strokeWidth=1;fillColor=none;fontFamily=Verdana;fontSize=12" vertex="1" parent="1">
          <mxGeometry x="1890" y="890" width="250" height="200" as="geometry" />
        </mxCell>
        <mxCell id="cOtZHhIljCrcvXUx9MyU-840" value="&lt;div&gt;id&lt;span style=&quot;white-space: pre;&quot;&gt;&#x9;&lt;/span&gt;&lt;/div&gt;" style="text;html=1;strokeColor=none;fillColor=none;align=left;verticalAlign=top;spacingLeft=4;spacingRight=4;whiteSpace=wrap;overflow=hidden;rotatable=0;points=[[0,0.5],[1,0.5]];portConstraint=eastwest;" vertex="1" parent="cOtZHhIljCrcvXUx9MyU-839">
          <mxGeometry y="20" width="250" height="24" as="geometry" />
        </mxCell>
        <mxCell id="cOtZHhIljCrcvXUx9MyU-908" style="edgeStyle=orthogonalEdgeStyle;rounded=0;orthogonalLoop=1;jettySize=auto;html=1;" edge="1" parent="cOtZHhIljCrcvXUx9MyU-839" source="cOtZHhIljCrcvXUx9MyU-843">
          <mxGeometry relative="1" as="geometry">
            <mxPoint x="-90" y="210" as="targetPoint" />
          </mxGeometry>
        </mxCell>
        <mxCell id="cOtZHhIljCrcvXUx9MyU-843" value="&lt;span style=&quot;color: rgb(255, 255, 255); font-family: AzarMehr, sans-serif; font-size: 16px; background-color: rgb(33, 33, 33);&quot;&gt;user_id&lt;/span&gt;" style="text;html=1;strokeColor=none;fillColor=none;align=left;verticalAlign=top;spacingLeft=4;spacingRight=4;whiteSpace=wrap;overflow=hidden;rotatable=0;points=[[0,0.5],[1,0.5]];portConstraint=eastwest;" vertex="1" parent="cOtZHhIljCrcvXUx9MyU-839">
          <mxGeometry y="44" width="250" height="24" as="geometry" />
        </mxCell>
        <mxCell id="cOtZHhIljCrcvXUx9MyU-844" value="&lt;span style=&quot;color: rgb(255, 255, 255); font-family: AzarMehr, sans-serif; font-size: 16px; background-color: rgb(33, 33, 33);&quot;&gt;order_id&lt;/span&gt;" style="text;html=1;strokeColor=none;fillColor=none;align=left;verticalAlign=top;spacingLeft=4;spacingRight=4;whiteSpace=wrap;overflow=hidden;rotatable=0;points=[[0,0.5],[1,0.5]];portConstraint=eastwest;" vertex="1" parent="cOtZHhIljCrcvXUx9MyU-839">
          <mxGeometry y="68" width="250" height="24" as="geometry" />
        </mxCell>
        <mxCell id="cOtZHhIljCrcvXUx9MyU-845" style="edgeStyle=orthogonalEdgeStyle;rounded=0;orthogonalLoop=1;jettySize=auto;html=1;exitX=1;exitY=0.5;exitDx=0;exitDy=0;" edge="1" parent="cOtZHhIljCrcvXUx9MyU-839">
          <mxGeometry relative="1" as="geometry">
            <mxPoint x="250" y="158" as="sourcePoint" />
            <mxPoint x="250" y="158" as="targetPoint" />
          </mxGeometry>
        </mxCell>
        <mxCell id="cOtZHhIljCrcvXUx9MyU-846" value="&lt;span style=&quot;color: rgb(255, 255, 255); font-family: AzarMehr, sans-serif; font-size: 16px; background-color: rgb(33, 33, 33);&quot;&gt;reason&lt;/span&gt;" style="text;html=1;strokeColor=none;fillColor=none;align=left;verticalAlign=top;spacingLeft=4;spacingRight=4;whiteSpace=wrap;overflow=hidden;rotatable=0;points=[[0,0.5],[1,0.5]];portConstraint=eastwest;" vertex="1" parent="cOtZHhIljCrcvXUx9MyU-839">
          <mxGeometry y="92" width="250" height="24" as="geometry" />
        </mxCell>
        <mxCell id="cOtZHhIljCrcvXUx9MyU-847" value="&lt;span style=&quot;color: rgb(255, 255, 255); font-family: AzarMehr, sans-serif; font-size: 16px; background-color: rgb(33, 33, 33);&quot;&gt;status&lt;/span&gt;" style="text;html=1;strokeColor=none;fillColor=none;align=left;verticalAlign=top;spacingLeft=4;spacingRight=4;whiteSpace=wrap;overflow=hidden;rotatable=0;points=[[0,0.5],[1,0.5]];portConstraint=eastwest;" vertex="1" parent="cOtZHhIljCrcvXUx9MyU-839">
          <mxGeometry y="116" width="250" height="24" as="geometry" />
        </mxCell>
        <mxCell id="cOtZHhIljCrcvXUx9MyU-848" value="&lt;span style=&quot;color: rgb(255, 255, 255); font-family: AzarMehr, sans-serif; font-size: 16px; background-color: rgb(33, 33, 33);&quot;&gt;created_at&lt;/span&gt;" style="text;html=1;strokeColor=none;fillColor=none;align=left;verticalAlign=top;spacingLeft=4;spacingRight=4;whiteSpace=wrap;overflow=hidden;rotatable=0;points=[[0,0.5],[1,0.5]];portConstraint=eastwest;" vertex="1" parent="cOtZHhIljCrcvXUx9MyU-839">
          <mxGeometry y="140" width="250" height="24" as="geometry" />
        </mxCell>
        <mxCell id="cOtZHhIljCrcvXUx9MyU-849" value="&lt;span style=&quot;color: rgb(255, 255, 255); font-family: AzarMehr, sans-serif; font-size: 16px; background-color: rgb(33, 33, 33);&quot;&gt;updated_at&lt;/span&gt;" style="text;html=1;strokeColor=none;fillColor=none;align=left;verticalAlign=top;spacingLeft=4;spacingRight=4;whiteSpace=wrap;overflow=hidden;rotatable=0;points=[[0,0.5],[1,0.5]];portConstraint=eastwest;" vertex="1" parent="cOtZHhIljCrcvXUx9MyU-839">
          <mxGeometry y="164" width="250" height="24" as="geometry" />
        </mxCell>
        <mxCell id="cOtZHhIljCrcvXUx9MyU-850" value="cart" style="swimlane;html=1;fontStyle=1;align=center;verticalAlign=top;childLayout=stackLayout;horizontal=1;startSize=20;horizontalStack=0;resizeParent=1;resizeLast=0;collapsible=1;marginBottom=0;swimlaneFillColor=#ffffff;rounded=0;shadow=0;comic=0;labelBackgroundColor=none;strokeWidth=1;fillColor=none;fontFamily=Verdana;fontSize=12" vertex="1" parent="1">
          <mxGeometry x="1490" y="1670" width="250" height="130" as="geometry" />
        </mxCell>
        <mxCell id="cOtZHhIljCrcvXUx9MyU-851" value="&lt;div&gt;id&lt;span style=&quot;white-space: pre;&quot;&gt;&#x9;&lt;/span&gt;&lt;/div&gt;" style="text;html=1;strokeColor=none;fillColor=none;align=left;verticalAlign=top;spacingLeft=4;spacingRight=4;whiteSpace=wrap;overflow=hidden;rotatable=0;points=[[0,0.5],[1,0.5]];portConstraint=eastwest;" vertex="1" parent="cOtZHhIljCrcvXUx9MyU-850">
          <mxGeometry y="20" width="250" height="24" as="geometry" />
        </mxCell>
        <mxCell id="cOtZHhIljCrcvXUx9MyU-852" value="&lt;span style=&quot;color: rgb(255, 255, 255); font-family: AzarMehr, sans-serif; font-size: 16px; background-color: rgb(33, 33, 33);&quot;&gt;user_id&lt;/span&gt;" style="text;html=1;strokeColor=none;fillColor=none;align=left;verticalAlign=top;spacingLeft=4;spacingRight=4;whiteSpace=wrap;overflow=hidden;rotatable=0;points=[[0,0.5],[1,0.5]];portConstraint=eastwest;" vertex="1" parent="cOtZHhIljCrcvXUx9MyU-850">
          <mxGeometry y="44" width="250" height="24" as="geometry" />
        </mxCell>
        <mxCell id="cOtZHhIljCrcvXUx9MyU-854" style="edgeStyle=orthogonalEdgeStyle;rounded=0;orthogonalLoop=1;jettySize=auto;html=1;exitX=1;exitY=0.5;exitDx=0;exitDy=0;" edge="1" parent="cOtZHhIljCrcvXUx9MyU-850">
          <mxGeometry relative="1" as="geometry">
            <mxPoint x="250" y="158" as="sourcePoint" />
            <mxPoint x="250" y="158" as="targetPoint" />
          </mxGeometry>
        </mxCell>
        <mxCell id="cOtZHhIljCrcvXUx9MyU-858" value="&lt;span style=&quot;color: rgb(255, 255, 255); font-family: AzarMehr, sans-serif; font-size: 16px; background-color: rgb(33, 33, 33);&quot;&gt;created_at&lt;/span&gt;" style="text;html=1;strokeColor=none;fillColor=none;align=left;verticalAlign=top;spacingLeft=4;spacingRight=4;whiteSpace=wrap;overflow=hidden;rotatable=0;points=[[0,0.5],[1,0.5]];portConstraint=eastwest;" vertex="1" parent="cOtZHhIljCrcvXUx9MyU-850">
          <mxGeometry y="68" width="250" height="24" as="geometry" />
        </mxCell>
        <mxCell id="cOtZHhIljCrcvXUx9MyU-919" value="&lt;span style=&quot;color: rgb(255, 255, 255); font-family: AzarMehr, sans-serif; font-size: 16px; background-color: rgb(33, 33, 33);&quot;&gt;updated-at&lt;/span&gt;" style="text;html=1;strokeColor=none;fillColor=none;align=left;verticalAlign=top;spacingLeft=4;spacingRight=4;whiteSpace=wrap;overflow=hidden;rotatable=0;points=[[0,0.5],[1,0.5]];portConstraint=eastwest;" vertex="1" parent="cOtZHhIljCrcvXUx9MyU-850">
          <mxGeometry y="92" width="250" height="24" as="geometry" />
        </mxCell>
        <mxCell id="cOtZHhIljCrcvXUx9MyU-859" value="order_meta" style="swimlane;html=1;fontStyle=1;align=center;verticalAlign=top;childLayout=stackLayout;horizontal=1;startSize=26;horizontalStack=0;resizeParent=1;resizeLast=0;collapsible=1;marginBottom=0;swimlaneFillColor=#ffffff;rounded=0;shadow=0;comic=0;labelBackgroundColor=none;strokeWidth=1;fillColor=none;fontFamily=Verdana;fontSize=12" vertex="1" parent="1">
          <mxGeometry x="1490" y="1160" width="250" height="266" as="geometry" />
        </mxCell>
        <mxCell id="cOtZHhIljCrcvXUx9MyU-860" value="&lt;div&gt;id&lt;span style=&quot;white-space: pre;&quot;&gt;&#x9;&lt;/span&gt;&lt;/div&gt;" style="text;html=1;strokeColor=none;fillColor=none;align=left;verticalAlign=top;spacingLeft=4;spacingRight=4;whiteSpace=wrap;overflow=hidden;rotatable=0;points=[[0,0.5],[1,0.5]];portConstraint=eastwest;" vertex="1" parent="cOtZHhIljCrcvXUx9MyU-859">
          <mxGeometry y="26" width="250" height="24" as="geometry" />
        </mxCell>
        <mxCell id="cOtZHhIljCrcvXUx9MyU-869" value="&lt;div&gt;order_id&lt;/div&gt;" style="text;html=1;strokeColor=none;fillColor=none;align=left;verticalAlign=top;spacingLeft=4;spacingRight=4;whiteSpace=wrap;overflow=hidden;rotatable=0;points=[[0,0.5],[1,0.5]];portConstraint=eastwest;" vertex="1" parent="cOtZHhIljCrcvXUx9MyU-859">
          <mxGeometry y="50" width="250" height="24" as="geometry" />
        </mxCell>
        <mxCell id="cOtZHhIljCrcvXUx9MyU-868" value="product_id" style="text;html=1;strokeColor=none;fillColor=none;align=left;verticalAlign=top;spacingLeft=4;spacingRight=4;whiteSpace=wrap;overflow=hidden;rotatable=0;points=[[0,0.5],[1,0.5]];portConstraint=eastwest;" vertex="1" parent="cOtZHhIljCrcvXUx9MyU-859">
          <mxGeometry y="74" width="250" height="24" as="geometry" />
        </mxCell>
        <mxCell id="cOtZHhIljCrcvXUx9MyU-926" value="&lt;span style=&quot;color: rgb(169, 183, 198); font-family: Consolas, &amp;quot;Söhne Mono&amp;quot;, Monaco, &amp;quot;Andale Mono&amp;quot;, &amp;quot;Ubuntu Mono&amp;quot;, monospace; font-size: 14.4px; white-space: pre; background-color: rgb(40, 43, 46);&quot;&gt;variation_id &lt;/span&gt;" style="text;html=1;strokeColor=none;fillColor=none;align=left;verticalAlign=top;spacingLeft=4;spacingRight=4;whiteSpace=wrap;overflow=hidden;rotatable=0;points=[[0,0.5],[1,0.5]];portConstraint=eastwest;" vertex="1" parent="cOtZHhIljCrcvXUx9MyU-859">
          <mxGeometry y="98" width="250" height="24" as="geometry" />
        </mxCell>
        <mxCell id="cOtZHhIljCrcvXUx9MyU-878" value="descount_off" style="text;html=1;strokeColor=none;fillColor=none;align=left;verticalAlign=top;spacingLeft=4;spacingRight=4;whiteSpace=wrap;overflow=hidden;rotatable=0;points=[[0,0.5],[1,0.5]];portConstraint=eastwest;" vertex="1" parent="cOtZHhIljCrcvXUx9MyU-859">
          <mxGeometry y="122" width="250" height="24" as="geometry" />
        </mxCell>
        <mxCell id="cOtZHhIljCrcvXUx9MyU-864" value="&lt;span style=&quot;color: rgb(169, 183, 198); font-family: Consolas, &amp;quot;Söhne Mono&amp;quot;, Monaco, &amp;quot;Andale Mono&amp;quot;, &amp;quot;Ubuntu Mono&amp;quot;, monospace; font-size: 14.4px; white-space: pre; background-color: rgb(40, 43, 46);&quot;&gt;quantity &lt;/span&gt;" style="text;html=1;strokeColor=none;fillColor=none;align=left;verticalAlign=top;spacingLeft=4;spacingRight=4;whiteSpace=wrap;overflow=hidden;rotatable=0;points=[[0,0.5],[1,0.5]];portConstraint=eastwest;" vertex="1" parent="cOtZHhIljCrcvXUx9MyU-859">
          <mxGeometry y="146" width="250" height="24" as="geometry" />
        </mxCell>
        <mxCell id="cOtZHhIljCrcvXUx9MyU-865" style="edgeStyle=orthogonalEdgeStyle;rounded=0;orthogonalLoop=1;jettySize=auto;html=1;exitX=1;exitY=0.5;exitDx=0;exitDy=0;" edge="1" parent="cOtZHhIljCrcvXUx9MyU-859">
          <mxGeometry relative="1" as="geometry">
            <mxPoint x="250" y="158" as="sourcePoint" />
            <mxPoint x="250" y="158" as="targetPoint" />
          </mxGeometry>
        </mxCell>
        <mxCell id="cOtZHhIljCrcvXUx9MyU-867" value="status" style="text;html=1;strokeColor=none;fillColor=none;align=left;verticalAlign=top;spacingLeft=4;spacingRight=4;whiteSpace=wrap;overflow=hidden;rotatable=0;points=[[0,0.5],[1,0.5]];portConstraint=eastwest;" vertex="1" parent="cOtZHhIljCrcvXUx9MyU-859">
          <mxGeometry y="170" width="250" height="24" as="geometry" />
        </mxCell>
        <mxCell id="cOtZHhIljCrcvXUx9MyU-880" value="orders" style="swimlane;html=1;fontStyle=1;align=center;verticalAlign=top;childLayout=stackLayout;horizontal=1;startSize=26;horizontalStack=0;resizeParent=1;resizeLast=0;collapsible=1;marginBottom=0;swimlaneFillColor=#ffffff;rounded=0;shadow=0;comic=0;labelBackgroundColor=none;strokeWidth=1;fillColor=none;fontFamily=Verdana;fontSize=12" vertex="1" parent="1">
          <mxGeometry x="1840" y="1130" width="250" height="386" as="geometry" />
        </mxCell>
        <mxCell id="cOtZHhIljCrcvXUx9MyU-881" value="&lt;div&gt;id&lt;span style=&quot;white-space: pre;&quot;&gt;&#x9;&lt;/span&gt;&lt;/div&gt;" style="text;html=1;strokeColor=none;fillColor=none;align=left;verticalAlign=top;spacingLeft=4;spacingRight=4;whiteSpace=wrap;overflow=hidden;rotatable=0;points=[[0,0.5],[1,0.5]];portConstraint=eastwest;" vertex="1" parent="cOtZHhIljCrcvXUx9MyU-880">
          <mxGeometry y="26" width="250" height="24" as="geometry" />
        </mxCell>
        <mxCell id="cOtZHhIljCrcvXUx9MyU-906" style="edgeStyle=orthogonalEdgeStyle;rounded=0;orthogonalLoop=1;jettySize=auto;html=1;" edge="1" parent="cOtZHhIljCrcvXUx9MyU-880" source="cOtZHhIljCrcvXUx9MyU-882">
          <mxGeometry relative="1" as="geometry">
            <mxPoint x="-70" y="-30" as="targetPoint" />
          </mxGeometry>
        </mxCell>
        <mxCell id="cOtZHhIljCrcvXUx9MyU-882" value="&lt;span style=&quot;color: rgb(255, 255, 255); font-family: AzarMehr, sans-serif; font-size: 16px; background-color: rgb(33, 33, 33);&quot;&gt;user_id&lt;/span&gt;" style="text;html=1;strokeColor=none;fillColor=none;align=left;verticalAlign=top;spacingLeft=4;spacingRight=4;whiteSpace=wrap;overflow=hidden;rotatable=0;points=[[0,0.5],[1,0.5]];portConstraint=eastwest;" vertex="1" parent="cOtZHhIljCrcvXUx9MyU-880">
          <mxGeometry y="50" width="250" height="24" as="geometry" />
        </mxCell>
        <mxCell id="cOtZHhIljCrcvXUx9MyU-885" value="&lt;span style=&quot;color: rgb(255, 255, 255); font-family: AzarMehr, sans-serif; font-size: 16px; background-color: rgb(33, 33, 33);&quot;&gt;deliver_id&lt;/span&gt;" style="text;html=1;strokeColor=none;fillColor=none;align=left;verticalAlign=top;spacingLeft=4;spacingRight=4;whiteSpace=wrap;overflow=hidden;rotatable=0;points=[[0,0.5],[1,0.5]];portConstraint=eastwest;" vertex="1" parent="cOtZHhIljCrcvXUx9MyU-880">
          <mxGeometry y="74" width="250" height="24" as="geometry" />
        </mxCell>
        <mxCell id="cOtZHhIljCrcvXUx9MyU-886" value="descount_off" style="text;html=1;strokeColor=none;fillColor=none;align=left;verticalAlign=top;spacingLeft=4;spacingRight=4;whiteSpace=wrap;overflow=hidden;rotatable=0;points=[[0,0.5],[1,0.5]];portConstraint=eastwest;" vertex="1" parent="cOtZHhIljCrcvXUx9MyU-880">
          <mxGeometry y="98" width="250" height="24" as="geometry" />
        </mxCell>
        <mxCell id="cOtZHhIljCrcvXUx9MyU-887" value="&lt;span style=&quot;color: rgb(255, 255, 255); font-family: AzarMehr, sans-serif; font-size: 16px; background-color: rgb(33, 33, 33);&quot;&gt;amount&lt;/span&gt;" style="text;html=1;strokeColor=none;fillColor=none;align=left;verticalAlign=top;spacingLeft=4;spacingRight=4;whiteSpace=wrap;overflow=hidden;rotatable=0;points=[[0,0.5],[1,0.5]];portConstraint=eastwest;" vertex="1" parent="cOtZHhIljCrcvXUx9MyU-880">
          <mxGeometry y="122" width="250" height="24" as="geometry" />
        </mxCell>
        <mxCell id="cOtZHhIljCrcvXUx9MyU-888" value="&lt;span style=&quot;color: rgb(255, 255, 255); font-family: AzarMehr, sans-serif; font-size: 16px; background-color: rgb(33, 33, 33);&quot;&gt;tax&lt;/span&gt;" style="text;html=1;strokeColor=none;fillColor=none;align=left;verticalAlign=top;spacingLeft=4;spacingRight=4;whiteSpace=wrap;overflow=hidden;rotatable=0;points=[[0,0.5],[1,0.5]];portConstraint=eastwest;" vertex="1" parent="cOtZHhIljCrcvXUx9MyU-880">
          <mxGeometry y="146" width="250" height="24" as="geometry" />
        </mxCell>
        <mxCell id="cOtZHhIljCrcvXUx9MyU-889" value="&lt;span style=&quot;color: rgb(255, 255, 255); font-family: AzarMehr, sans-serif; font-size: 16px; background-color: rgb(33, 33, 33);&quot;&gt;method&lt;/span&gt;" style="text;html=1;strokeColor=none;fillColor=none;align=left;verticalAlign=top;spacingLeft=4;spacingRight=4;whiteSpace=wrap;overflow=hidden;rotatable=0;points=[[0,0.5],[1,0.5]];portConstraint=eastwest;" vertex="1" parent="cOtZHhIljCrcvXUx9MyU-880">
          <mxGeometry y="170" width="250" height="24" as="geometry" />
        </mxCell>
        <mxCell id="cOtZHhIljCrcvXUx9MyU-890" value="&lt;span style=&quot;color: rgb(255, 255, 255); font-family: AzarMehr, sans-serif; font-size: 16px; background-color: rgb(33, 33, 33);&quot;&gt;gate&lt;/span&gt;" style="text;html=1;strokeColor=none;fillColor=none;align=left;verticalAlign=top;spacingLeft=4;spacingRight=4;whiteSpace=wrap;overflow=hidden;rotatable=0;points=[[0,0.5],[1,0.5]];portConstraint=eastwest;" vertex="1" parent="cOtZHhIljCrcvXUx9MyU-880">
          <mxGeometry y="194" width="250" height="24" as="geometry" />
        </mxCell>
        <mxCell id="cOtZHhIljCrcvXUx9MyU-891" value="&lt;span style=&quot;color: rgb(255, 255, 255); font-family: AzarMehr, sans-serif; font-size: 16px; background-color: rgb(33, 33, 33);&quot;&gt;status&lt;/span&gt;" style="text;html=1;strokeColor=none;fillColor=none;align=left;verticalAlign=top;spacingLeft=4;spacingRight=4;whiteSpace=wrap;overflow=hidden;rotatable=0;points=[[0,0.5],[1,0.5]];portConstraint=eastwest;" vertex="1" parent="cOtZHhIljCrcvXUx9MyU-880">
          <mxGeometry y="218" width="250" height="24" as="geometry" />
        </mxCell>
        <mxCell id="cOtZHhIljCrcvXUx9MyU-892" style="edgeStyle=orthogonalEdgeStyle;rounded=0;orthogonalLoop=1;jettySize=auto;html=1;exitX=1;exitY=0.5;exitDx=0;exitDy=0;" edge="1" parent="cOtZHhIljCrcvXUx9MyU-880">
          <mxGeometry relative="1" as="geometry">
            <mxPoint x="250" y="158" as="sourcePoint" />
            <mxPoint x="250" y="158" as="targetPoint" />
          </mxGeometry>
        </mxCell>
        <mxCell id="cOtZHhIljCrcvXUx9MyU-893" value="&lt;span style=&quot;color: rgb(255, 255, 255); font-family: AzarMehr, sans-serif; font-size: 16px; background-color: rgb(33, 33, 33);&quot;&gt;pin&lt;/span&gt;" style="text;html=1;strokeColor=none;fillColor=none;align=left;verticalAlign=top;spacingLeft=4;spacingRight=4;whiteSpace=wrap;overflow=hidden;rotatable=0;points=[[0,0.5],[1,0.5]];portConstraint=eastwest;" vertex="1" parent="cOtZHhIljCrcvXUx9MyU-880">
          <mxGeometry y="242" width="250" height="24" as="geometry" />
        </mxCell>
        <mxCell id="cOtZHhIljCrcvXUx9MyU-894" value="&lt;span style=&quot;color: rgb(255, 255, 255); font-family: AzarMehr, sans-serif; font-size: 16px; background-color: rgb(33, 33, 33);&quot;&gt;payment_method&lt;/span&gt;" style="text;html=1;strokeColor=none;fillColor=none;align=left;verticalAlign=top;spacingLeft=4;spacingRight=4;whiteSpace=wrap;overflow=hidden;rotatable=0;points=[[0,0.5],[1,0.5]];portConstraint=eastwest;" vertex="1" parent="cOtZHhIljCrcvXUx9MyU-880">
          <mxGeometry y="266" width="250" height="24" as="geometry" />
        </mxCell>
        <mxCell id="cOtZHhIljCrcvXUx9MyU-895" value="created_at" style="text;html=1;strokeColor=none;fillColor=none;align=left;verticalAlign=top;spacingLeft=4;spacingRight=4;whiteSpace=wrap;overflow=hidden;rotatable=0;points=[[0,0.5],[1,0.5]];portConstraint=eastwest;" vertex="1" parent="cOtZHhIljCrcvXUx9MyU-880">
          <mxGeometry y="290" width="250" height="24" as="geometry" />
        </mxCell>
        <mxCell id="cOtZHhIljCrcvXUx9MyU-896" value="updated_at" style="text;html=1;strokeColor=none;fillColor=none;align=left;verticalAlign=top;spacingLeft=4;spacingRight=4;whiteSpace=wrap;overflow=hidden;rotatable=0;points=[[0,0.5],[1,0.5]];portConstraint=eastwest;" vertex="1" parent="cOtZHhIljCrcvXUx9MyU-880">
          <mxGeometry y="314" width="250" height="24" as="geometry" />
        </mxCell>
        <mxCell id="cOtZHhIljCrcvXUx9MyU-905" style="edgeStyle=orthogonalEdgeStyle;rounded=0;orthogonalLoop=1;jettySize=auto;html=1;" edge="1" parent="cOtZHhIljCrcvXUx9MyU-880" source="cOtZHhIljCrcvXUx9MyU-882" target="cOtZHhIljCrcvXUx9MyU-882">
          <mxGeometry relative="1" as="geometry" />
        </mxCell>
        <mxCell id="cOtZHhIljCrcvXUx9MyU-898" style="edgeStyle=orthogonalEdgeStyle;rounded=0;orthogonalLoop=1;jettySize=auto;html=1;entryX=1;entryY=0.5;entryDx=0;entryDy=0;" edge="1" parent="1" source="cOtZHhIljCrcvXUx9MyU-881" target="cOtZHhIljCrcvXUx9MyU-869">
          <mxGeometry relative="1" as="geometry" />
        </mxCell>
        <mxCell id="cOtZHhIljCrcvXUx9MyU-899" style="edgeStyle=orthogonalEdgeStyle;rounded=0;orthogonalLoop=1;jettySize=auto;html=1;entryX=0;entryY=0.5;entryDx=0;entryDy=0;" edge="1" parent="1" source="cOtZHhIljCrcvXUx9MyU-312" target="cOtZHhIljCrcvXUx9MyU-868">
          <mxGeometry relative="1" as="geometry">
            <Array as="points">
              <mxPoint x="655" y="770" />
              <mxPoint x="1180" y="770" />
              <mxPoint x="1180" y="1246" />
            </Array>
          </mxGeometry>
        </mxCell>
        <mxCell id="cOtZHhIljCrcvXUx9MyU-902" style="edgeStyle=orthogonalEdgeStyle;rounded=0;orthogonalLoop=1;jettySize=auto;html=1;entryX=0;entryY=0.5;entryDx=0;entryDy=0;" edge="1" parent="1" source="cOtZHhIljCrcvXUx9MyU-881" target="cOtZHhIljCrcvXUx9MyU-831">
          <mxGeometry relative="1" as="geometry" />
        </mxCell>
        <mxCell id="cOtZHhIljCrcvXUx9MyU-904" style="edgeStyle=orthogonalEdgeStyle;rounded=0;orthogonalLoop=1;jettySize=auto;html=1;entryX=0;entryY=0.5;entryDx=0;entryDy=0;" edge="1" parent="1" source="cOtZHhIljCrcvXUx9MyU-213" target="cOtZHhIljCrcvXUx9MyU-830">
          <mxGeometry relative="1" as="geometry">
            <Array as="points">
              <mxPoint x="1470" y="268" />
              <mxPoint x="1470" y="1100" />
              <mxPoint x="2150" y="1100" />
              <mxPoint x="2150" y="1192" />
            </Array>
          </mxGeometry>
        </mxCell>
        <mxCell id="cOtZHhIljCrcvXUx9MyU-920" value="cart_item" style="swimlane;html=1;fontStyle=1;align=center;verticalAlign=top;childLayout=stackLayout;horizontal=1;startSize=20;horizontalStack=0;resizeParent=1;resizeLast=0;collapsible=1;marginBottom=0;swimlaneFillColor=#ffffff;rounded=0;shadow=0;comic=0;labelBackgroundColor=none;strokeWidth=1;fillColor=none;fontFamily=Verdana;fontSize=12" vertex="1" parent="1">
          <mxGeometry x="1770" y="1670" width="250" height="188" as="geometry" />
        </mxCell>
        <mxCell id="cOtZHhIljCrcvXUx9MyU-921" value="&lt;div&gt;id&lt;span style=&quot;white-space: pre;&quot;&gt;&#x9;&lt;/span&gt;&lt;/div&gt;" style="text;html=1;strokeColor=none;fillColor=none;align=left;verticalAlign=top;spacingLeft=4;spacingRight=4;whiteSpace=wrap;overflow=hidden;rotatable=0;points=[[0,0.5],[1,0.5]];portConstraint=eastwest;" vertex="1" parent="cOtZHhIljCrcvXUx9MyU-920">
          <mxGeometry y="20" width="250" height="24" as="geometry" />
        </mxCell>
        <mxCell id="cOtZHhIljCrcvXUx9MyU-922" value="&lt;span style=&quot;color: rgb(255, 255, 255); font-family: AzarMehr, sans-serif; font-size: 16px; background-color: rgb(33, 33, 33);&quot;&gt;user_id&lt;/span&gt;" style="text;html=1;strokeColor=none;fillColor=none;align=left;verticalAlign=top;spacingLeft=4;spacingRight=4;whiteSpace=wrap;overflow=hidden;rotatable=0;points=[[0,0.5],[1,0.5]];portConstraint=eastwest;" vertex="1" parent="cOtZHhIljCrcvXUx9MyU-920">
          <mxGeometry y="44" width="250" height="24" as="geometry" />
        </mxCell>
        <mxCell id="cOtZHhIljCrcvXUx9MyU-923" style="edgeStyle=orthogonalEdgeStyle;rounded=0;orthogonalLoop=1;jettySize=auto;html=1;exitX=1;exitY=0.5;exitDx=0;exitDy=0;" edge="1" parent="cOtZHhIljCrcvXUx9MyU-920">
          <mxGeometry relative="1" as="geometry">
            <mxPoint x="250" y="158" as="sourcePoint" />
            <mxPoint x="250" y="158" as="targetPoint" />
          </mxGeometry>
        </mxCell>
        <mxCell id="cOtZHhIljCrcvXUx9MyU-930" value="&lt;span style=&quot;color: rgb(169, 183, 198); font-family: Consolas, &amp;quot;Söhne Mono&amp;quot;, Monaco, &amp;quot;Andale Mono&amp;quot;, &amp;quot;Ubuntu Mono&amp;quot;, monospace; font-size: 14.4px; white-space: pre; background-color: rgb(40, 43, 46);&quot;&gt;product_id &lt;/span&gt;" style="text;html=1;strokeColor=none;fillColor=none;align=left;verticalAlign=top;spacingLeft=4;spacingRight=4;whiteSpace=wrap;overflow=hidden;rotatable=0;points=[[0,0.5],[1,0.5]];portConstraint=eastwest;" vertex="1" parent="cOtZHhIljCrcvXUx9MyU-920">
          <mxGeometry y="68" width="250" height="24" as="geometry" />
        </mxCell>
        <mxCell id="cOtZHhIljCrcvXUx9MyU-928" value="&lt;span style=&quot;color: rgb(169, 183, 198); font-family: Consolas, &amp;quot;Söhne Mono&amp;quot;, Monaco, &amp;quot;Andale Mono&amp;quot;, &amp;quot;Ubuntu Mono&amp;quot;, monospace; font-size: 14.4px; white-space: pre; background-color: rgb(40, 43, 46);&quot;&gt;variation_id &lt;/span&gt;" style="text;html=1;strokeColor=none;fillColor=none;align=left;verticalAlign=top;spacingLeft=4;spacingRight=4;whiteSpace=wrap;overflow=hidden;rotatable=0;points=[[0,0.5],[1,0.5]];portConstraint=eastwest;" vertex="1" parent="cOtZHhIljCrcvXUx9MyU-920">
          <mxGeometry y="92" width="250" height="24" as="geometry" />
        </mxCell>
        <mxCell id="cOtZHhIljCrcvXUx9MyU-929" value="&lt;span style=&quot;color: rgb(169, 183, 198); font-family: Consolas, &amp;quot;Söhne Mono&amp;quot;, Monaco, &amp;quot;Andale Mono&amp;quot;, &amp;quot;Ubuntu Mono&amp;quot;, monospace; font-size: 14.4px; white-space: pre; background-color: rgb(40, 43, 46);&quot;&gt;quantity &lt;/span&gt;" style="text;html=1;strokeColor=none;fillColor=none;align=left;verticalAlign=top;spacingLeft=4;spacingRight=4;whiteSpace=wrap;overflow=hidden;rotatable=0;points=[[0,0.5],[1,0.5]];portConstraint=eastwest;" vertex="1" parent="cOtZHhIljCrcvXUx9MyU-920">
          <mxGeometry y="116" width="250" height="24" as="geometry" />
        </mxCell>
        <mxCell id="cOtZHhIljCrcvXUx9MyU-924" value="&lt;span style=&quot;color: rgb(255, 255, 255); font-family: AzarMehr, sans-serif; font-size: 16px; background-color: rgb(33, 33, 33);&quot;&gt;created_at&lt;/span&gt;" style="text;html=1;strokeColor=none;fillColor=none;align=left;verticalAlign=top;spacingLeft=4;spacingRight=4;whiteSpace=wrap;overflow=hidden;rotatable=0;points=[[0,0.5],[1,0.5]];portConstraint=eastwest;" vertex="1" parent="cOtZHhIljCrcvXUx9MyU-920">
          <mxGeometry y="140" width="250" height="24" as="geometry" />
        </mxCell>
        <mxCell id="cOtZHhIljCrcvXUx9MyU-925" value="&lt;span style=&quot;color: rgb(255, 255, 255); font-family: AzarMehr, sans-serif; font-size: 16px; background-color: rgb(33, 33, 33);&quot;&gt;updated-at&lt;/span&gt;" style="text;html=1;strokeColor=none;fillColor=none;align=left;verticalAlign=top;spacingLeft=4;spacingRight=4;whiteSpace=wrap;overflow=hidden;rotatable=0;points=[[0,0.5],[1,0.5]];portConstraint=eastwest;" vertex="1" parent="cOtZHhIljCrcvXUx9MyU-920">
          <mxGeometry y="164" width="250" height="24" as="geometry" />
        </mxCell>
        <mxCell id="cOtZHhIljCrcvXUx9MyU-927" style="edgeStyle=orthogonalEdgeStyle;rounded=0;orthogonalLoop=1;jettySize=auto;html=1;entryX=0;entryY=0.5;entryDx=0;entryDy=0;" edge="1" parent="1" source="cOtZHhIljCrcvXUx9MyU-788" target="cOtZHhIljCrcvXUx9MyU-926">
          <mxGeometry relative="1" as="geometry">
            <Array as="points">
              <mxPoint x="335" y="1620" />
              <mxPoint x="1400" y="1620" />
              <mxPoint x="1400" y="1270" />
            </Array>
          </mxGeometry>
        </mxCell>
      </root>
    </mxGraphModel>
  </diagram>
</mxfile>
